<mxfile host="app.diagrams.net" modified="2024-06-29T20:46:53.323Z" agent="Mozilla/5.0 (Windows NT 10.0; Win64; x64) AppleWebKit/537.36 (KHTML, like Gecko) Chrome/126.0.0.0 Safari/537.36" etag="CXleTzRny9FHT39GfeEw" version="24.6.4" type="github">
  <diagram name="Page-1" id="vZR_3l1T8xo6MbTMYSGH">
    <mxGraphModel dx="1050" dy="557" grid="1" gridSize="10" guides="1" tooltips="1" connect="1" arrows="1" fold="1" page="1" pageScale="1" pageWidth="850" pageHeight="1100" math="0" shadow="0">
      <root>
        <mxCell id="0" />
        <mxCell id="1" parent="0" />
        <mxCell id="qXU9WI0w4rbYGttdrwVk-359" value="" style="rounded=0;whiteSpace=wrap;html=1;dashed=1;dashPattern=8 8;fillColor=#009999;fillOpacity=20;" parent="1" vertex="1">
          <mxGeometry x="103.5" y="740.5" width="483" height="237" as="geometry" />
        </mxCell>
        <mxCell id="qXU9WI0w4rbYGttdrwVk-137" value="" style="rounded=0;whiteSpace=wrap;html=1;" parent="1" vertex="1">
          <mxGeometry x="80" y="492" width="530" height="124" as="geometry" />
        </mxCell>
        <mxCell id="qXU9WI0w4rbYGttdrwVk-138" value="" style="rounded=0;whiteSpace=wrap;html=1;dashed=1;dashPattern=8 8;imageWidth=25;fillColor=#99CCFF;fillOpacity=50;" parent="1" vertex="1">
          <mxGeometry x="121" y="627" width="449" height="102" as="geometry" />
        </mxCell>
        <mxCell id="qXU9WI0w4rbYGttdrwVk-358" value="" style="rounded=0;whiteSpace=wrap;html=1;dashed=1;dashPattern=8 8;fillColor=#FFCCCC;fillOpacity=30;strokeOpacity=100;" parent="1" vertex="1">
          <mxGeometry x="213" y="516" width="387" height="93" as="geometry" />
        </mxCell>
        <mxCell id="qXU9WI0w4rbYGttdrwVk-184" value="&lt;div style=&quot;font-size: 11px;&quot;&gt;&lt;font style=&quot;font-size: 11px;&quot;&gt;(6)&lt;/font&gt;&lt;/div&gt;&lt;font style=&quot;font-size: 11px;&quot;&gt;Aggregate Layer-Wise Cofficients of each client&#39;s workers set.&amp;nbsp;&amp;nbsp;&lt;/font&gt;" style="rounded=1;whiteSpace=wrap;html=1;fillColor=#330000;opacity=30;" parent="1" vertex="1">
          <mxGeometry x="227" y="526" width="120" height="60" as="geometry" />
        </mxCell>
        <mxCell id="qXU9WI0w4rbYGttdrwVk-187" value="&lt;div style=&quot;font-size: 11px;&quot;&gt;&lt;font style=&quot;font-size: 11px;&quot;&gt;(7)&lt;/font&gt;&lt;/div&gt;&lt;font style=&quot;font-size: 11px;&quot;&gt;Compute Prioritized-Class Based Aggregation Weight&lt;/font&gt;" style="rounded=1;whiteSpace=wrap;html=1;fillColor=#330000;opacity=30;" parent="1" vertex="1">
          <mxGeometry x="365" y="523" width="120" height="60" as="geometry" />
        </mxCell>
        <mxCell id="qXU9WI0w4rbYGttdrwVk-188" value="&lt;div style=&quot;font-size: 11px;&quot;&gt;&lt;font style=&quot;font-size: 11px;&quot;&gt;(8)&lt;/font&gt;&lt;/div&gt;&lt;font style=&quot;font-size: 11px;&quot;&gt;Update&lt;br&gt;Global Model Parameters&lt;/font&gt;" style="rounded=1;whiteSpace=wrap;html=1;fillColor=#330000;opacity=30;" parent="1" vertex="1">
          <mxGeometry x="496.5" y="523" width="90" height="60" as="geometry" />
        </mxCell>
        <mxCell id="qXU9WI0w4rbYGttdrwVk-361" value="&lt;b&gt;Stage 3&lt;/b&gt;" style="text;html=1;align=center;verticalAlign=middle;whiteSpace=wrap;rounded=0;" parent="1" vertex="1">
          <mxGeometry x="347" y="583" width="60" height="30" as="geometry" />
        </mxCell>
        <mxCell id="qXU9WI0w4rbYGttdrwVk-363" value="&lt;b&gt;Stage 2&lt;/b&gt;" style="text;html=1;align=center;verticalAlign=middle;whiteSpace=wrap;rounded=0;" parent="1" vertex="1">
          <mxGeometry x="308.5" y="924" width="60" height="30" as="geometry" />
        </mxCell>
        <mxCell id="qXU9WI0w4rbYGttdrwVk-382" value="" style="shape=image;verticalLabelPosition=bottom;labelBackgroundColor=default;verticalAlign=top;aspect=fixed;imageAspect=0;image=data:image/jpeg,/9j/4AAQSkZJRgABAQAAAQABAAD/2wBDAAMCAgICAgMCAgIDAwMDBAYEBAQEBAgGBgUGCQgKCgkICQkKDA8MCgsOCwkJDRENDg8QEBEQCgwSExIQEw8QEBD/2wBDAQMDAwQDBAgEBAgQCwkLEBAQEBAQEBAQEBAQEBAQEBAQEBAQEBAQEBAQEBAQEBAQEBAQEBAQEBAQEBAQEBAQEBD/wAARCAIKAqoDAREAAhEBAxEB/8QAHwAAAQUBAQEBAQEAAAAAAAAAAAECAwQFBgcICQoL/8QAtRAAAgEDAwIEAwUFBAQAAAF9AQIDAAQRBRIhMUEGE1FhByJxFDKBkaEII0KxwRVS0fAkM2JyggkKFhcYGRolJicoKSo0NTY3ODk6Q0RFRkdISUpTVFVWV1hZWmNkZWZnaGlqc3R1dnd4eXqDhIWGh4iJipKTlJWWl5iZmqKjpKWmp6ipqrKztLW2t7i5usLDxMXGx8jJytLT1NXW19jZ2uHi4+Tl5ufo6erx8vP09fb3+Pn6/8QAHwEAAwEBAQEBAQEBAQAAAAAAAAECAwQFBgcICQoL/8QAtREAAgECBAQDBAcFBAQAAQJ3AAECAxEEBSExBhJBUQdhcRMiMoEIFEKRobHBCSMzUvAVYnLRChYkNOEl8RcYGRomJygpKjU2Nzg5OkNERUZHSElKU1RVVldYWVpjZGVmZ2hpanN0dXZ3eHl6goOEhYaHiImKkpOUlZaXmJmaoqOkpaanqKmqsrO0tba3uLm6wsPExcbHyMnK0tPU1dbX2Nna4uPk5ebn6Onq8vP09fb3+Pn6/9oADAMBAAIRAxEAPwD9U6ACgAoAKACgAoAKACgAoAKACgAoAKACgAoAKACgAoAKACgAoAKACgAoAKACgAoAKAOC8J/CjRdNt7PUvEdol74ggna6lvUu52Dy+aXV+SATjbnK8kHOaAOp8QeGtE8U2Safr1l9qt45RMqeY6YcAgHKkHox/OgA8P8AhrRPC1k+n6DZfZbeSUzMnmO+XIAJyxJ6KPyoAzP+Fa+Cv7Z/4SD+xf8AiYfavtnnfaZv9dv37tu7b97nGMe1AGn4g8NaJ4psk0/XrL7VbxyiZU8x0w4BAOVIPRj+dAB4f8NaJ4Wsn0/QbL7LbySmZk8x3y5ABOWJPRR+VAGZ/wAK18Ff2z/wkH9i/wDEw+1fbPO+0zf67fv3bd2373OMY9qAPOPjH+0f+yd4Tb/hGvi38YPCdrcW0hnbT/7UMlzE6qRl4rcmRTgsACOewJFAHA+FP+Cgf7A+hGXw/wCG/jbp1mhnEjiXT9TWMyOAuRLLDtIwozhsDHOKAPTfhv4n/Zo+MGot4p+F/jPw34mv0uTfSHTtZMs0Uu/dueASbk+bnDKB7YoA9L8QeGtE8U2Safr1l9qt45RMqeY6YcAgHKkHox/OgA8P+GtE8LWT6foNl9lt5JTMyeY75cgAnLEnoo/KgDM/4Vr4K/tn/hIP7F/4mH2r7Z532mb/AF2/fu27tv3ucYx7UAafiDw1onimyTT9esvtVvHKJlTzHTDgEA5Ug9GP50AHh/w1onhayfT9BsvstvJKZmTzHfLkAE5Yk9FH5UAZn/CtfBX9s/8ACQf2L/xMPtX2zzvtM3+u37923dt+9zjGPagDT8QeGtE8U2Safr1l9qt45RMqeY6YcAgHKkHox/OgA8P+GtE8LWT6foNl9lt5JTMyeY75cgAnLEnoo/KgDM/4Vr4K/tn/AISD+xf+Jh9q+2ed9pm/12/fu27tv3ucYx7UAQ/Ey/8Ahppnhw33xW17R9I0W2lExudU1JbGBHCkZMjOg6MeM96APB4v29v2DfhtZy6dYfHDRooGk890sbe/1DLnCZBiikP8I4B6c980ASeFv2p/2CPGPiWHUdF+M/hRdWnvftEcl/qFxYbrjcHBxc+WnLEYHQngelAH0PqmjeGfHWkW63yQ6npzst1A8Nw2xztIDq8bDIwx745oAm8P+GtE8LWT6foNl9lt5JTMyeY75cgAnLEnoo/KgDM/4Vr4K/tn/hIP7F/4mH2r7Z532mb/AF2/fu27tv3ucYx7UAafiDw1onimyTT9esvtVvHKJlTzHTDgEA5Ug9GP50AHh/w1onhayfT9BsvstvJKZmTzHfLkAE5Yk9FH5UAZn/CtfBX9s/8ACQf2L/xMPtX2zzvtM3+u37923dt+9zjGPagCfRfEF7qPizxHoM8UK2+kfY/IZFIdvNiLNuJODyOMAfjQB0FABQAUAFABQAUAFABQAUAFABQAUAFABQAUAFABQAUAFABQAUAFABQAUAFABQAUAFABQAUAFABQAUAFABQAUAFABQAUAFABQAUAFABQAUAFABQAUAFABQAUAFABQAUAFABQAUAc/wCAfEF74p8J2OvahFDHcXXm71hUhBtlZRgEk9FHegDoKACgAoAKAPPPjp8efht+zt4Fn8ffEvWTaWYkFvZ2sK+Zd6hcsDst7eLOZJGweOAACWIAJDjFydluJtRV3sfnP8Rfil+0L+1UZZviP4ivvh/8P7tma28FaFOYbm5tyflGo3Q+eQlfvRDC8/dRhX6jw94dzxEY4nNW4p68i3/7efT0WvmmfnOecdxoSlQy1KTX23t8l19Xp5NGV4a+Evw08IRCLw74I0m1Ix+9NuJZTjpmR8ufxNfpuCyHLMvVsNQivO1397u/xPzzF51mGOd69aT8r2X3Ky/A6SbTNNuIBaz6fbSQqCBG8SlQD1GCMc16UqNOceSUU12scEa1SMuaMmn6nFeIvgZ8M/EN0uqJ4eTR9WhcS2+qaM5sbuCUHKyK8eAXB6Fga8DMeEsozNP2tFRk+sfdfrpo/mme1gOJ80y9r2dVtLpL3l+Oq+TR6z8Jf2zfjF+znqNnoX7QusXXxB+GkhFuvitbYtrOic/I14FybqLs0mDJ3JJwjfkXEnBeKyJOvSftKPe2sf8AEv1Wne2h+o5Bxbhs5fsai5Kvbo/R/pv2vqfox4f8QaH4s0Ow8TeGdWtNU0nVLdLuyvbSUSQ3ELjKujDgggg5r4o+uNCgAoAKACgAoAKAPiP9pT9u3XB4pvfgp+ytHp+reJtOlaDxD4rvI/O0vQWHDRRjpcXIPG3lUIIIb5tnuZHw/jM/r+ywytFbyey/4PZLX5anj5znmFySj7TEPV7RW7/4Hd7fPQ+VpPg3pXijW38Z/GPXdU+JHiqfmbU/EE7TIvOfLit8+XHED0TBC9BxxX7LlXAmU5dFOtD2s+8tvlHa3rd+Z+T5lxpmeOk1Sl7OHaO/zlvf0svI7TT9D0TSVVNK0exs1X7ot7dIwOMcbQO3FfW0sLQoK1KCj6JL8j5iriK1bWpNv1bZS1nwP4M8RW72uu+FNJv43GCLizjf8iRkHk8iscTlmCxcXGvSjJecUzahmGLwsuajVlF+TaMXwh4c+I3wF1OTxJ+zH8QLvwrI7+bdeHL+R7zQtQOORJA5Jjc9PMQ7gOF218HnXh1hMTF1Mtfs59ndxf6r8V5H2eUceYrDtU8wXtI91pJfo/wfmfdv7KX7Y/hj9oiG48G+I9KPhH4naHAH1nw1cvneoO03Nm5/10BJByMlNwByCrt+O43BYjL60sPiYuM1un/Wq7NaM/VcJi6GOoqvh5KUX1X9aPyep9F1ynSFABQAUAUrX+xv7SvvsX2L+0P3X27ytnnfd/d+bj5vu527u3SgC7QAUAFABQAUAFABQAUAFABQAUAFABQAUAFABQAUAFABQAUAFABQAUAFABQAUAFABQAUAFABQAUAFABQAUAFABQAUAFABQAUAFABQAUAFABQAUAFABQAUAFABQAUAFABQAUAFAFLRv7G/s2H/hH/ALF/Z/zeT9j2eT947tuz5fvZzjvmgC7QAUAFAFLWtZ0rw5o1/wCIddv4bHTdLtpb28upm2xwQRoXkkY9lVVJJ9BQB+Tmp+Otf/ap+J0v7QvjhHTQrKWa08A6HImI9PsA+PtjqetxNtDFu3GOAm39g4A4YhGms3xSvJ/An0X83q+nZa9Vb8s434ilKbyvDOyXxtdf7vouvd6dHfra/VT81CgAoAKAGTwQXUElrdQxzQzIY5I5FDK6kYKkHggjjFKcIzi4yV090OMpQkpRdmje/Yy+LWo/s5/GLT/2etd1IyfDT4g3Ez+FGuCc6LrJO42Kv/zynJOxT/y0Kgcly38/8acNrIsUquHX7mpe3919Y/qvLTpc/buEs/ec4Z0638WG/muj/wA/P1sfpRXxZ9cFABQAUAFAHyB/wUA/aG8UeCNN0L4A/CXVlsfHXxDSU3OoIC0miaKmVmuwB92RyDHGx7iTBDBSPUybKqudY2GDo6OW77Jbv+t3ZHnZtmVLKcJPF1emy7vov66any/4K8GaD4A8OWnhjw5a+TaWq8s2DJNIfvSSMB8zseSf5AAV/SeW5bh8pw0cLhlaMfvb6t92z+f8wx9fM8RLE4h3k/uS7LyRuV3HGFABQAUAcf468La7Pe6V8Q/h3qraJ4+8IzfbtB1ONRkuM7reUHh4pAWUqePmOQQWB+V4r4bpZ/hXyq1aPwv/ANtfk/wevdP6ThrP6mSYn3taUviX6rzX4rTtb9Gf2Wvj5pn7SXwX0T4mWttHZanIHsNd01M50/VIcLcQEN8wGSHUNzsdCetfztOEqcnCas1o0fu8ZRnFSi7pnrVSUFABQBz+i+H73TvFniPXp5YWt9X+x+QqMS6+VEVbcCMDk8YJ/CgDoKACgAoAKACgAoAKACgAoAKACgAoAKACgAoAKACgAoAKACgAoAKACgAoAKACgAoAKACgAoAKACgAoAKACgAoAKACgAoAKACgAoAKACgAoAKACgAoAKACgAoAKACgAoAKACgAoA5/wD4fvfC3hOx0HUJYZLi183e0LEod0rMMEgHow7UAdBQAUAFAHx//AMFPfGl7pvwC034U6NcSw6j8UvEdj4cLxMVaOyD+fcvkfw7YlRh3WUjBGa7ctwcswxlLCx+3JL73q/ktTjzDFrA4WpiZfZTf3LT7z51sbK00yyt9OsLdILW1iSCCJBhY41ACqB2AAAr+paVKFGCp01aKSSXZLZH841Kkqs3Um7tu7fdsnqyAoAKACgAoA4H45+HrrxB8MtXfS3ki1bR0XWdLuIm2ywXdsfNR42HKvhWUEf3q+c4ty5ZnlFala8ormXrHXT1V18z3uGMe8vzSlUvZN8r9Jaa+js/kfqV8EPiPbfF74P8Agz4n2qhR4m0S01KSMDHlSyRKZY/+AvuX8K/m0/fzt6ACgAoAKAPyXuPE7fFv9or4v/GectLby683hXRGck+Xp2ngRZjB+6krr5hH97JwDX7L4Z5cqeGq4+S1k+Vei1f3t/gflHiFj3PEUsFF6RXM/V6L7kvxOlr9QPzkKACgAoAKACgDrf2DvEx+H/7Vvj34XMzRaV8RNBg8VWMYP7pdQtX8m5Cjs8iSeYxxzsGTwBX4D4gZcsFm7qwVo1UpfPZ/irv1P23gjHvGZWqcnd024/Ldfg7L0P0Wr4g+wCgAoA5/RfEF7qPizxHoM8UK2+kfY/IZFIdvNiLNuJODyOMAfjQB0FABQAUAFABQAUAFABQAUAFABQAUAFABQAUAFABQAUAFABQAUAFABQAUAFABQAUAFABQAUAFABQAUAFABQAUAFABQAUAFABQAUAFABQAUAFABQAUAFABQAUAFABQAUAFABQAUAc/4B8QXvinwnY69qEUMdxdebvWFSEG2VlGAST0Ud6AOgoAKACgD4L/AOClcs8nxW/Z102QEWEupeIrmVicqJ4rODyQR0ydz4PUc4r6ngqMZ59h1Lu/wjJr8T5vi6Tjktdx7L/0pXPMK/ow/BgoAKACgAoAKAK2pwwXGm3cF0wWGSCRJCV3AKVIOR347VnWjGdOUZ7NO5pRlKNSMo7po+s/+Ca13e3v7EPwum1BHSVbK+iUM+8+WmoXKRnPoUVSB2BA7V/Jx/TJ9M0AFABQAUAfjV+zVLPd/Cm21K+BW/v9S1K5vVY5ZZ2vJdwYnljwOTzX9CcAxjHIaTXVyv8A+BNflY/DeNZN51VT6KNv/AUepV9ifKBQAUAFABQAUAJ8E5ZrX9vD4MtZqWN7pfiW3vNrbdsC2JdC394eYAMdjzX5B4oxiqmGkt7T/wDbbfmz9S8OZS9niI9Lx/8Abv8AgH6iV+Un6WFABQBStf7G/tK++xfYv7Q/dfbvK2ed93935uPm+7nbu7dKALtABQAUAFABQAUAFABQAUAFABQAUAFABQAUAFABQAUAFABQAUAFABQAUAFABQAUAFABQAUAFABQAUAFABQAUAFABQAUAFABQAUAFABQAUAFABQAUAFABQAUAFABQAUAFABQAUAUtG/sb+zYf+Ef+xf2f83k/Y9nk/eO7bs+X72c475oAu0AFABQB8Tf8FR9AubPwJ8N/jHCga28BeMbf+02xgxWF6pgkk3dgH8lcdDvGelevkONWX5nQxMtoyV/R6P8GeXnWEeOy6th47uLt6rVfieK1/Tx/OwUAFABQAUAFAHJfFrxLF4Q+GniTxDK2Da6dKIvmxmVxsjGe2XZR+NeTn2NWX5ZXxL6RdvV6L8Wj08lwjx2YUaC6yV/Rav8Ez9Fv2S/h7e/Cr9mn4beAtUhEN/pfh60+2xbQvl3UqebMmPUSSOM9TjJ5NfzAf0UetUAFABQAUAfkL4G0C5+Hfjv4pfBzUEEdz4P8Y33kKBgNYXTGe1kC/whkYtgcfWv3Hw2xqrZZPDdacvwlqvxufjvH+EdHMY4jpOP4x0f4WO3r9EPhAoAKACgAoAKAPK/CPx9l+Gv7cPh7UtO+HOqeMZfDOhXVm2madNEL6V7qIPJJZxMT58iwkYiG13+fHAyfwzxIxyxGaRwyX8OKv6y10+Vv+GsfsnAODdDLpYhv+JL8I6fnf8Aq5+ovwR/aa+C/wC0JYSz/DTxlb3WoWgIv9Fu1NtqdgwOGWe2kw64b5dwBQkHDGvz0+5PUqACgDn9F8P3uneLPEevTywtb6v9j8hUYl18qIq24EYHJ4wT+FAHQUAFABQAUAFABQAUAFABQAUAFABQAUAFABQAUAFABQAUAFABQAUAFABQAUAFABQAUAFABQAUAFABQAUAFABQAUAFABQAUAFABQAUAFABQAUAFABQAUAFABQAUAFABQAUAFABQBz/AIB8P3vhbwnY6DqEsMlxa+bvaFiUO6VmGCQD0YdqAOgoA85+NX7Qnwm/Z40az8R/F/xDe6HpV9KYIr2PRb69gWQYwkj2sMixE5+UOV3YO3ODgA85sf8Agoj+xZqDslv8f9AQoMnz4bmEfgZIgD+FAFX4l/tAfsTftAfDbXvhN4i/aG+H7aZ4t0+Sycza5bwvCxG6OVfNZQskbqjru/jReO1AHwz8PbvxN4W1LV/gf8Tla28ceBJjYXiSqVN/aKcW97Fu5eOSPYdwz1BONwr9/wCCOIY5vgVh6sv31NWfdrpLz7Pz33R+IcX5HLK8Y69OP7qo7ryfVeXdeXozua+2PkQoAKACgAoAx/hd8Of+Gq/2hdI+G8Vs958P/h/dR6741uVTdb3NzGc2umFvusXcEyL/AHVfoyV+OeInEEMRNZVhpXUXedu/SPy3fnbqj9W4EyOVCLzKurOStD06v59PK/Rn6t1+Wn6OFABQAUAFAH59f8FCfhfd/DD4i6P+1t4a06eTRL6CLw98QY7eIv5cIOLPUWC8/IcQs3PyiJR9419Pwlnv9hZgqtR/u5aS9Oj+T/C66nzvE+Tf21gXTgv3kdY+vVfNfjZ9Dzy0u7W/tYb6xuYri3uEWWKWJwySIwyGUjggjnNf0ZTqRqxU4O6eqa2aPwacJU5OE1ZrRpktUSFABQAUAc74+8caP8PfDN14k1hyRHiO2t05lurhuI4Y1HLMx9OgyTwDXm5vmtDJsJLF4h6LZdW+iXm/w32R6GV5bWzbFRwtBavd9l1b9P8AgbmD8a/2JvEvw5/ZT8KftLeJbnUdH+J9l4mTxP4svLZWFzpFnevEkSxop3brNktnCZBVnnG4ADH8zY3GVcwxE8VWd5Tbb+f6LZeR/QmEwtPBUIYeirRirL+vzPpH4WeEfhV+2ppl3pPxi0V/BX7RPw58m31TxF4Xuxp+qSAoPs2q2s8QAnt5kKsu4Mq7/l2qyE8p0naf8Jv+2T+yz+6+Jnhx/j58PLbj/hI/Dlqtv4msIR/Fc2Odl0AB96M7uCzt2oA94+DH7Q/wc/aB0Vta+FPjiw1nyAPtdlkxXtk3TbPbviSM5yMlcHBwSOaAOm0XxBe6j4s8R6DPFCtvpH2PyGRSHbzYizbiTg8jjAH40AdBQAUAFABQAUAFABQAUAFABQAUAFABQAUAFABQAUAFABQAUAFABQAUAFABQAUAFABQAUAFABQAUAFABQAUAFABQAUAFABQAUAFABQAUAFABQAUAFABQAUAFABQAUAFABQAUAFAHP8AgHxBe+KfCdjr2oRQx3F15u9YVIQbZWUYBJPRR3oA6CgD5+/aV/ah/Zb+HOial8PPi/rdh4mu9Wge1n8G6fbDVNQvVIz5TWyZEeQMhpTGMjhsigD8Bvi3c/D+7+I+vXHwu8L634c8MPdudP0vWblZ7u0TvG7BRgA5AU7mUYDO5BYgHL2N7dabe2+o2MxiubWVJ4ZABlHUgqefQgUAf0E/tS/sp2f7TXh7QPiN4M1dPCXxN0K1WfRNXILwywuu9rG7AGZIGLHnGUJJAILK3ZgMfiMsxEcThpcs4/1Z90+qOXG4KhmFCWHxEbxf9XXZ9mfDlp8QtS8LeJm+GPxw8Oz+BPHFsxiezvwUtL8g7fNs7g/u5Y2OCuGPXALYzX7nw9xvgc3jGliGqdbs9m/7r8+z16a7n41nnCGMyuUqlBOpS7rdeq8u609Njua+2PkQoAgvr+x0y0l1DUryC0tYF3yzzyCOONfVmbAA9zUVasKMHUqySit23ZL5l06c60lCmm29ktWcz4G0z4nftU6+3gb9nq3mstCR2j1zx9d2rrp+nxjhktc4+0XBz8oU8cHgfOv5bxPx/TjB4XKHeT0c+i/w9357Lpfdfo3D3BE5SWJzNWS1UO/+LsvLd9bbP9LfgN8C/Av7O3w20/4aeAbWUWdoWmury4YPc6hdvjzbmd8fNI5H0AAUAAAD8glJyd3ufqaSirLY9DpDCgAoAKACgCnq+kaX4g0q80LW9PgvtO1G3ktbu1uEDxTwupV0dTwVKkgg9jQB+Y/xq/Zr+If7HeoXGu+CNN1bxr8FbmeSX7PbRtc6p4T3HdtZRlprQc4fqo+8QeZPveFONKmTWwmMvKj07x9O68vmuz+K4l4Sp5tfE4W0avXtL17Pz+T7rH8KeMvC3jjSk1rwnrlrqdo+MvC+WQkZ2up+ZG/2WANfteAzHC5nSVfCVFOPl09Vun5PU/IsbgMTl1X2OKg4y8/0ezXmjZrtOQKAOQ8afFLwp4KuINJup59S129YR2OiaZCbq/upG+6qQpluexOAa8LOeI8vyOF8VP3ukVrJ/Lp6uyPZyrIcdnErYeHu9ZPSK+fX0V2fRH7J37GvjHV/FukftFftM2aWuq6ePtPhPwUG3w6IW5W5uz0ku8YwOkZ5IDALH+D8QcR4riGv7StpBfDFbL/N93+SP2jI8hw2R0fZ0tZP4pdX/kuyPs/xv4O0L4heDdc8CeJ7UXOkeIdPuNMvYu7QzRlHwexwxwexwa+fPcPzl+Gvw/8Aiff+AB4i+HUiD9or9lXVLjwfeW5BC+LfDkeXt7SZRyyS2/EBJzuiOMFlZAD7z+A3xv8ABv7Qvwy0r4m+CpnW2vlMV3ZTcXGnXicTWsy/wyI3HuCrDhgSAcV8aP2NPhD8XtaXx5ZRaj4G+INsTJaeMfClwdP1JJPWVk+WcHgHzAW28BlzQB5Za/Fn9p79l3Ur62+Nngu0+MnhK28oXvjbwRZxx69ZxBT5b6npinLgJk74ztVASSxOKAPo/wCEXxy+E3x38OjxR8JvHOmeIrIBfOW3kxPbMeiTwtiSFvZ1B9OKAO7oAKACgAoAKACgAoAKACgAoAKACgAoAKACgAoAKACgAoAKACgAoAKACgAoAKACgAoAKACgAoAKACgAoAKACgAoAKACgAoAKACgAoAKACgAoAKACgAoAKACgAoAKACgAoAhu7y00+1mvr+6htra3QySzTOESNAMlmY8AAdSaAPmPxF+3P8ACuz1OT4c/s2eDNX+Mnie2JUab4Mtl/su0ZiSGuNQI+zwxk5+dd4z1xmgDNX4LftgftBfv/2gPjBF8LfC0/J8HfDqXF9JGf4LrVXBYHGQywgowPagD2j4Ofs3fBD4A2DWvws+Hul6NPKuLnUSpnv7nuTLdSFpXBPOC20EnAFAH5a/tVfDD4z/APBRj9oDXfiD+z38KWk8MeB7aPwdJq91q9lFBqVzbzzyPLHJ5myT/X7R5bSAIkZZlLhQAfn/AK/4d1bw1ql/pGrWwSbTr6fTp3ikWWHz4W2yKkiEo+DjlSQQQRwRQB/Td8LbyTUPhl4R1CaYTSXOg2EzyDHzlrdCW445zmgCv8UPhD8MvjT4ak8IfFTwTpXiXSnJZYb2Hc0LEY3xSDDwvjjejK3vQB8sa7/wS58A2Vw83we+NXxD8B27Z26aL1NTsISPu7I5xvAzjOZDkDHFevgs+zPL1y4avKK7Xuvud0eXi8ly7HPmxFGLfe1n961MOL/gmp8U5JjFqP7Z2tS2IICR2/g2zgnCn7wM3mnJPY7ePevSlxrn0o8rxD+6K/HlucEeEcljLmVBffL8rnaeDP8AgmF8ANOvYdZ+KmteL/ilqMMiyoPEmqsLKNweNltBsXb6o5dTk5GOK8TGZljMwlzYqrKfq2/uWy+R6+Ey/C4FcuGpxj6JL8ep9ZaNoujeHNKtdC8PaTZaXptjEIbWzsoEgggjHREjQBVUegAFcJ2F2gAoAKACgAoAKACgAoA+bPi3/wAE9/2Z/ixrNz4tHhe/8GeJ7olpNb8I3zaZcM5OS7RqDAzk8l2jLE9Sa2oYithp+0oTcZd02n96Mq1CliI8laKkuzSa/E8jvf8Agmf8QLTK+Ef2x/E9mg+4NW8M2mpEc9yZI93y4H1ye+K+gpcZZ7RVo4h/NRf5pnh1eE8mq6yoL5Nr8mizp3/BMKfUJFj+In7VPxB1izJ/e2+kW1tpHmr/AHSyiQ4Jzn1BA4xmscTxVnOKi41MRKz7Pl/9Jsa0OG8pw0uanQjfz1/O59EfBD9k34Afs8GW7+F3w9s7HVblStzrF1I95qM2R8wNxMWdVbGSiFUJ5214EpOT5pO7PbUVFWWx69SGFAHyP8U2/wCGfP23PA3xiRvs/hT41Wi+AvEpziOPWYhv0u4f1d1BgGTwqsaAMv4zaFq/7GPxfuv2qfh9ptxc/DHxhcRw/FPQLRC32KZmCprlvGP4gWPnAD5sknO4tGAfX2ia3pHiXRrHxF4f1K31DTNTto7uzu7eQPFPDIoZJEYcFSpBB96AM3RfD97p3izxHr08sLW+r/Y/IVGJdfKiKtuBGByeME/hQB458Xf2KfhZ8RPER+JHgm81T4Y/EaMs8PizwlL9juJHPJ+1RLiO5VjjcHG5gMbgKAOF/wCF9ftP/sx/6H+1F8Pf+FheCrfgfEXwPZkzW8Y/5aajpo5j9WkiwijgBzQB9H/DH4t/DT4z+GYvGHwt8aaX4k0mXAM9lNuaJiM7JYzh4n/2HVWHpQB11ABQAUAFABQAUAFABQAUAFABQAUAFABQAUAFABQAUAFABQAUAFABQAUAFABQAUAFABQAUAFABQAUAFABQAUAFABQAUAFABQAUAFABQAUAFABQAUAFABQAUAcx8Qfid8O/hRoL+J/iV410fw1paZH2nUrtIFdgPuoGOXb0VQWPYUAfOEn7Y/xQ+NcjaZ+xr8CdS8T2TsYx448XLJpHh2PnHmRKwFxdgd1QIw9CKAJbL9iTxJ8VrqLXv2yfjVrfxKkV1mTwppbvpHhq2YHIH2eEq9wVOMSOVJGQwNAHvvwf+G+j/Cf4f6b4H0XRdJ0uCx80mDS4BFBlpGYEAKuTggEkZ470AdpQB8hfHH4heL/ANp/4i6l+yN8B9bn03Q9NwnxQ8a2ZyNNtmyDpNo/RruUAq56Iu4HJDhQDpf2j9f0X9kv9laPwD8EtDTTtY1T7P4J8DabacSPqd6THG4J5aRcyzF2yWdcsSWoAwP+Hb3wQl/Zen/Z8k0+OHULtLfUpPECJvni12O0jgN6mcEIxjO6LIBWRxwWyAD6O+FXhi/8E/C/wf4M1WSGS90HQNP0y5eFi0bSwW6RuVJAJXcpwSBxQB1NABQAUAFABQAUAFABQAUAFABQAUAFABQAUAFABQAUAFAHj/7WvwYf48/AHxX4A08mPXDbDUtAnVtjwarbHzrVlf8Agy6BCw6K7UAJ+zV8VdK/aX/Z08OeNNbsLe5k1zTH03xFp08QKC9jBgvIJI2HCl1f5WHKOvY0AeIfC3UtS/Yc+Mdp+zv4wv7if4NePr2R/hzrV1IWXQtQkJaTRZ5G6IzEmFieSe5Z9gB9YaL4gvdR8WeI9BnihW30j7H5DIpDt5sRZtxJweRxgD8aAOgoAKAPm/4m/sPfD7xB4ll+J3wY1/VPg78RDlv7e8K4igu2znbeWXENyhPLDClj95j0oA5NP2m/j9+ze66Z+2H8Mv7W8MREIvxL8EWz3Niqdn1CyA821OMbnUbCxwinrQB9M+AfiN4D+Kfhu38X/DnxdpfiLRrr/V3mn3KzIGxko2OUcZ5VgGHQgUAdHQAUAFABQAUAFABQAUAFABQAUAFABQAUAFABQAUAFABQAUAFABQAUAFABQAUAFABQAUAFABQAUAFABQB5J8Q/wBrT9mn4VX0mlePfjb4T0vUIgxlsvt6z3Me3rvhi3Op9AQCegzQBwNp/wAFKP2Ib29bT4fj1pyyoyqWl0vUIo8t0xI8AQj1IOB3xQB7D8N/jj8HfjBbtc/C/wCJvhvxNsBMkWnajHLNEP8AbiB3p/wJRQB3FABQAUAFABQAUAFABQAUAFAHj/xq/a0+AfwCYWPxB8e2q65LhbbQNOU3uq3Dt9xVtosuu48Bn2qT3oA8j/4WP+3F+0X+6+FHw6svgT4PuOniPxrCLvXpYz/HBpg+SFsH7s2QeoegDqfh7+wZ8HfD+vR+Pvird6z8X/HAwza742uTfCJuuILVv3MSA8qNrFMDDUAfSMcccUaxRIqIgCqqjAUDoAOwoAdQBz/gHxBe+KfCdjr2oRQx3F15u9YVIQbZWUYBJPRR3oA+fv2lPjd468SeNIP2Tf2abyP/AIWLrlt5/iHXwC8Hg3SWADXUhH/Ly6sBFHnOWVuMoSAew/Av4I+B/wBnz4c6d8N/Adm6Wlpma7vJzuudRu3x5t1cP/HI5GSegACjCqAADwa2K/tI/t2TXZBuPBX7OVkbeLvFdeKr5fnPo32eBduOqSqD/FQB9c0AFABQAUAFABQAUAFABQAUAFABQAUAFABQAUAFABQAUAFABQAUAfI/wYI/Z/8A2zviL8B5v9H8MfFiE/Efwop4jTUM+XqlsnbcxUTBRgLGg9aAPfvjb8GvBfx8+Gms/C7x5ZGbTdWhwkyYE1ncLzFcwsfuyI2GB6HkHKkggHiH7JHxe8SaX4u8Qfsr/Hme1PxX8GQxvDrIQL/wluiqoFtfB+ryqhVZFJLDryfM2gH1TQAUAFADXRJEaORFZGBVlYZBB6gigD5m8ffsN+Eh4kuPiZ+zh4v1L4K+PJfnlvPDyKdL1BgchbzTmxDKucn5QvJ3EMaAMG2/az+L37P9xFoP7anwtaw0kOsMPxH8Hwy32hTZOA11CAZrNj7g7iTtUKM0AfT/AIP8aeEfiD4ftfFfgbxNpmv6PerugvtOuknhf1AZCRkdx1B4OKANqgAoAKACgAoAKACgAoAxfFnjTwd4D0mTX/HHivR/D2mRffvNUvorWBfq8jBf1oA8H1v/AIKN/sT+Hywv/j7o0u0An7DZXl73xx5EL56flz0oA2PC37eP7HvjG8hsNF/aB8KLPO/lxrfzvYbmwCBm5WMc5AHqeBzxQB7pZ3lnqNrFfafdw3NtOoeKaGQOkinoVYcEe4oAmoAKACgAoAKACgAoAKACgAoAKACgAoAKACgAoAKACgDz344/Hf4c/s8+B5fHfxI1dra1Mq21lZ26ebeajdNnZb20Q5kkbB46AAliACQm0ldglfRHyRd+GP2i/wBriP8Atr48+KNS+G3w7viZbT4eeHpzBe3VsT8g1S8HztuX70KgDkZEbAivmcfxAqbdPCq779Pl3/L1PosFkbmlUxOi7dfmejeA/wBm/wCA/wAM7dbfwT8J/Denldv+kNZLPcnbgjdPLulbBGeWPPNfN1sdicQ71Jt/122PfpYPD0FanBL+u53NzoOhXtoun3mi2E9qisqwS2yNGA33gFIxg9651OSd0zocItWaPJviB+x5+z38Qpzqlx4BtdA1xGEtvrfhwnTL63mBysyvDhWcdi6t244Fd2HzXF4Z+7Ntdnqv69Dir5bhcQvehZ91oZGi/HD49fsgX9rZ/HnXLz4o/CCRvs48Yx2ZOueHsn922oImftUOODMAXzyTkrG31mXZxSxvuS92fbv6f5HzOPyqpg/fj70fy9f8z7a8P+IND8WaHYeJvDOrWmqaTqlul3ZXtpKJIbiFxlXRhwQQQc17J5JoUAFABQAUAFADJpobeF7i4lSKKJS7u7BVVQMkkngADvQB80/ED9vr4P6Lr8ngH4QadrXxk8bjKrovgq3N5FE2cZnuxmGJAchmBcrj5lFAHNf8Kx/bh/aMPm/F74lWfwM8IXHJ8NeB5hda5LGf4J9TPyxNg9YcqehSgD2H4Kfsn/AX4AKbn4deAbOHWJQTc67fk3mqXLN99nuZcuNxySqFVz/DQB67QAUAFABQB83/ALRP7RMvw+tdB+DH7Oum6X4g+KnjoPF4c0612NZ6Zb7mE2p3WzKpBEQ55++6sMEK1AHZfs0/s7aH+zz4Ln07+05vEHi7xDcHVPFnia7+a61nUXyXkZjkiNSzBEzhQSeWZmIBp/tIfGTT/gD8EvFnxWvlSWbRbBv7Ptm5+1X8hEdtDgcndM6A45C5PagDnP2N/g7qXwX+A+i6P4pLzeMPEMkvibxXcyj97Pq963mz+Ye7JlYs9/KB70Ae3UAFABQAUAFABQAUAFABQAUAFABQAUAFABQAUAFABQAUAFABQAUAfLv7fXhbW9P+H3h39o3wTaNN4p+CGsx+KIUj4a50s4TUrYnsjwfO3+zEfWgD6M8J+KNF8b+FtI8ZeG7xbvSddsYNRsZ16SQTIHRvxVhQB8/ftLfsueIfinc3vxN+H2s2+h/E3wvc2ur+BtXRyGjnhi2zWdxkYME4ARhkjoSCNysAdr+y/wDtDad+0L4Bk1S70xtB8ZeHbltH8XeHZsrPpGpxkrIhU8+WxVmRu4yM7lYAA9ioAKACgAoAiuba3vLeW0vLeOeCdGjlikQMjoRgqwPBBHBBoA+YPGH7Dml+HvEF18R/2UPHmofBjxdcN5tza6bGJ/D+psP4brTm/dgHoGjAC5JCk0AZ2nftj+Pvgpf2/hX9tn4Wy+DlkkW3t/Hnh1JdQ8M3rk4UuwBls2Y9EkBPUnaKAPqPw54l8O+MNFtPEnhPXdP1nSb5BLa31hcpcQTJ6pIhKsPoaANKgAoAKACgAoA+RPjD+1p448beOb34E/sg2unap4g0qZoPFHjTUIjLo3hzHBhTHFzd542DKqQQwbD+XxY3H0cBDmqPXourOzB4KrjZ8tNadX0Rx3h39jH4b3Wq/wDCa/HHUdT+L3jWbDXOseKpmnhXv5cFnnyYoQfuxkPt6A44r4/FZ5isQ/cfKuy/z3/I+pw2T4agveXM/P8Ay/4c9r0bwj4U8OIkfh7wxpOlpHwi2VlHAF4A4CKMcAD6CvKnVnP4m2enGnCHwpIyfFHwl+F3jazksPF/w68N6xBKu1lvNMhlPfBBK5BBJIIIIJyKunia1J3hNr5kTw9KqrTin8jx/wD4Zg8V/Ba/m8XfscfEa88B3rsZrrwpqUsl/wCHNUbHIeCQl4HPTzEJKjhQuc17mD4hq03y4hcy79f8mePi8ipVFzUHyvt0/wCAe8fs0/tYaV8arm9+HPjrw/L4H+LHh2Hdrnha8f76g7TdWcnSe2Y4IZSdu4Akgq7fXUa1PEQVSm7pny1WlOhNwqKzR7/WpmFABQAUAFABQAUAFABQAUAFABQAUAFABQAUAUta1nSvDmjX/iHXb+Gx03S7aW9vLqZtscEEaF5JGPZVVSSfQUAfB/whtNZ/al+Ip/a7+KNs/wDZFvLPafDLw9PFiLTNOWQr/aLq33rmcqGDfwgAgkeXs+Sz7Mm5PCUnp1/y/wAz6jJcvSisTUWvT/P/ACPpKvlz6MKACgAoAhvLO01C0nsL+1hubW5jaGaCZA8csbDDKynhlIJBB4INCbi7oTSaszwb4H6zf/sgfHrTfgNd6g8nwg+KNzcSeDjcZP8Awj2uEh300SdPJnLExqed5AGT5jN95k+Y/XqXLU+OO/n5/wCZ8XmuA+p1OaHwy/Dy/wAj7qr2TyQoAKAMHxt498EfDbQZvFHxA8W6T4d0i3/1l5qd2lvEDjhQzkZY44UZJ7A0AfMV7+3J4s+Ll3NoH7GHwO1v4jOrmF/FusRvpPhu2YHBbzZQslwV7xqEYj7pNADIf2LPif8AGyVNW/bQ+POqeK7RmEn/AAhHhN30nw9FznZIUxNdAdnbY4/vGgD6Y+H3wy+Hvwo0CPwt8NvBmj+GtKix/o2m2iQq7AY3OVGXf1ZiWPcmgDpqACgAoAKACgDxn9pz9ozT/gF4VsodI0d/Evj7xXcf2X4P8MW5zPql82ACQOVhj3BpH4AGBkFhQBzf7IP7L1z8DdF1Dxx8SdQt/EHxY8YHzvEesq29IY85jsbUkDZBGAvAA3MM9FQKAfRVAHyN8ad37Q/7YfgL4A22bjwl8KY4/iD4zA5il1DldKs37ZBJmKHIZGPpQB9c0AFABQAUAFABQAUAFABQAUAFABQAUAFABQAUAFABQAUAFABQAUAFAFXVNM0/W9Mu9G1a0jurG/gktbmCQZSWJ1KujDuCpIP1oA+Wv2ENU1DwBH8Qf2RvE93LLqXwe1x4tHknPz3fh29LT2Euf4iAzq2MhfkWgD6P0XxBe6j4s8R6DPFCtvpH2PyGRSHbzYizbiTg8jjAH40AfNX7T/w88XfBX4gQ/tq/AzRpb7UtMtltPiJ4atuB4j0ROs6qOPtVuo3K3UqoHRSjgH0j8OPiJ4R+LHgfRviL4E1ePUtC161W7s7hO6nqrDqrqwKsp5VlIPIoA6SgAoAKACgAoArajp2n6xYXGl6tYW97ZXcbQ3FtcRLJFLGwwVdGBDAjqCMUAfLviP8AYiuvAGtXfj39jf4kXfwl165cz3WgFTd+GNUf0msmyICfu74vuDO1AeaAItD/AG1te+F2rWvgn9tL4ZXPwz1K4kFva+K7Dfe+FtSfsUuVy1sx6+XLnaOWZelAH1JpGsaTr+mW2taDqlpqWnXsazW13aTrNDPGejo6kqynsQcUAcl8RvjF4L+Fet+DdH8aXwsE8cax/YGnXTkCJb5onkijcn7ok8sop/vsg75AB3NAHyx+2n8YfGtteeGP2ZPgxq66d48+JQma81RULv4f0GMEXF7gEbXYgxxkkZYPtIYKRzYzFRwdF1p9PxZ0YXDSxdVUo9fwL3wp+Fng74M+BtN+H/gbTha6bpyYLtgzXMp+/PMwA3yORkt9AMAAD86xOIqYqo6tR6s+9w9CGGpqnTWiOurA2CgAoAKAPHf2hvgtqXj+00z4h/DbUhoHxS8DudQ8L6zGi5Z1yWs58/fglBZSp4BbOCCyt6eV5jLAVdfge6/U83MsBHG09PiWz/Q91/Ze+O9j+0X8G9H+I0dmunasS+na/pYDBtN1WAhbi3ZW+ZcNhlDc7HQnk1+gpqSutj4dpxdmesUxBQAUAFABQAUAFABQAUAFABQAUAFABQAUAfJ//BR3XtRu/g94e+COhXM0Op/F/wAV6d4WaSFirw2Jk867lz/dCRBGHOVkPBGaxxNZYejKq+ibNsPSderGmursd1pOlaboOlWWh6NZRWdhp1vHaWtvEu1IYY1CoijsAoAA9BX5jKTnJyluz9DjFQSjHZFukUFABQAUAFAHi/7YfgCf4g/s9+KrbS1ZNc0G3HiLRLiI4mt76yPnI8TdVcqrxgj/AJ6Hp1r0MqxDw2LhLo3Z+j/q5wZlQ+sYWceq1Xy/qx9OfBD4j23xe+D/AIM+J9qoUeJtEtNSkjAx5UskSmWP/gL7l/Cv0U+DMH41ftRfAj9ny0834p/ETTdMvXUNBpUTG41G4z93y7aPdIQTgbiAvIyRQB4j/wALu/bQ/aM/cfs+/B2H4TeE7j7vjH4hx/8AEwljP8dtpi5w2MFTJvjYHqKAN7wT/wAE/fhmNfg8fftBeKdf+N3jKL5hfeLJi9hbtnJW308Ewxx5/gfzAO2KAPp+zsrPTrSGw0+0htba3QRQwwxhI40AwFVRwAB0AoAmoAKACgAoAKACgDzf4/8Ax48Ffs7fDu78feMZJZ33raaVpVr813q1+/EVpbpyWdz6A7RljwKAPLP2YfgL42k8VX/7Uf7SKxXXxW8UQeVY6aDvtvCOlHJSwtgcgSFT+9ccklhk5kaQA978A+IL3xT4Tsde1CKGO4uvN3rCpCDbKyjAJJ6KO9ACfEPx14f+GHgXX/iH4ruvs+keHNPn1K8fjPlxIWKqO7Njao7kgd6APB/2DPAfiCw+F+q/G/4gW3l+NvjTqsnjHVQ3LW1pLn7BagnnZHAQVU8r5rL2oA+maACgAoAKACgAoAKACgAoAKACgAoAKACgAoAKACgAoAKACgAoAKACgAoA+R/2nSfgR+0p8Kf2qbUeRoWry/8ACuPHDrwosrt99jcyeixXAyznJxsXvQB9V2v9jf2lffYvsX9ofuvt3lbPO+7+783Hzfdzt3dulAFwgEEEZBoA+Kb6Nv8Agn78Zn1q3Vov2ePijqii9iQfuvBevy8CYDolnPgBv4UIH3QqhwD7VjkSVFlidXRwGVlOQQehBoAdQAUAFABQAUAFAFHW9C0TxNpN1oPiPR7LVdMvozDdWV7bpPBOh6q8bgqw9iKAPlvVv2MPF3wg1K58YfsUfFCbwBcTSG4uvBesmS/8L6g55I8okyWjMerxEkAAKFFAHxP/AMFNv2ivH3jP4ceFPhH8ZPhDqfw++Ieha8msMYblLrStRtBBNF9ps7lTn/WMuUIymQCxIOAD64/4Jpftox/tJfDf/hX/AI51FW+Ivg22jS7aR/n1axGEjvRnkuDtSX/aKNx5gUAGD+z/AHI+Kvx2+OH7RV5GZUv/ABGfBfh6STJMWl6YqxsYs/dSaXEhHdkJIB6/IcSYhyqQoLZK79X/AF+J9VkFC1OVZ7vT7v6/A+ha+ZPoQoAKACgAoAKAPFv2f7hfhP8AtyfEL4cxIbfRPix4ctvGlhEvEKapayG3vAo7SSq/nOcc4GT0Ffd5DiHWwii94u3y6f5fI+Lzqh7HFOS2lr/n/mfale0eQFABQAUAFABQAUAFABQAUAFABQAUAFABQB8eftms9z+05+y3pVz8unyat4nu5HblBcQ6dGYF29NxLNg9R2rzM5bWBqW8vzR6OUpPGQv5/kz1ivz0+6CgAoAKACgAoAoa9bWl7oWo2eoOqWs9pNFOzJuAjZCGJXuME8VUG1JNEzScWmflr+z5+1v8Ydc+F2h/BzWPiL4s+G3ws8FWosdU8S+DPDEmp6htkkkkVbm78wvZAgsI3iTOIyMNtNfqZ+bH6Cfsh+EP+CfNldRa58CfFnhnxj4xuW86XWdc1EXfiKaU9ZClyFmhY9/LjjB7jNAH2BQAUAFABQAUAFABQAUAcp8Uvij4I+DPgPV/iT8RNai0vQtFhM1xM/LMeixxr1eR2IVVHJJAoA+cP2f/AIXeN/j98R7X9sL9orRZNPeFGHw18F3PzJ4esHwRezqeDeyja2SMoMHghFiAPrqgClo39jf2bD/wj/2L+z/m8n7Hs8n7x3bdny/eznHfNAHyr+2XNN8bfiV8Nv2L9Ilc2viu7XxZ45MbEeT4csZAwifHI+0XCqit2aMZ4NAH1pDDDbQx29vEkUUShERFCqqgYAAHAAHagB9ABQAUAFABQAUAFABQAUAFABQAUAFABQAUAFABQAUAFABQAUAFABQAUAef/H74SaV8dvgz4u+E2sCNYvEemS20ErjIt7ofPbzY/wCmcyxv/wABoA8n/YO8eeI/iZ8LbrxN41kVfFOlTReE/Eds7k3EGq6Yht5zMMYDSDy5eCf9YemKAPpigDC8c+CPC/xJ8H6v4D8a6RDqmh67aPZX1pMPlkjYdj1VgcFWGCrAEEEA0AfMH7NnjXxR+zp8SR+xZ8aNZnvbTypLn4W+Jrs/8hnSk5OnSv0+1W4woHdAAAAI94B9eUAFABQAUAFABQAUAeU/tJ+C/jJ48+HD6H8CfGFr4V8WC7huLXWLm/mgS1CHLbo44pVuAwypjkXb8277yrQB/P5+0t4e+Nvhf40eI9G/aGvNSvfG8Nxm9u72czfaUIzHLE54MLLgptAAXC4XBUAGF8Hvi14z+BvxI0P4peAdQ+y6zoVyJ4t2THPGeJIJQMbo5ELIw4OGOCDggA/Xn/gnncpqf7Lega+0ivd6xqesX953YTPqE4O5jyx2hTk84I9K+Bz1t46d/L8kfbZMksHG3n+bPpKvIPVCgAoAKACgAoA8N8Ss1p+31+z3NYjdLf6P4ttb4KdpS3SyWSNmP8YMnAXsea+s4Zb5ai9P1Pl+IUuam/X9D7dr6k+cCgAoAKACgAoAKACgAoAKACgAoAKACgAoA+Qf+CiNvN4WsfhD8eAoNl8O/HdodXf7ph02+H2aaXd2AYxDB4O4Z6VyY6i8Rhp01u0dOCqqhiIVHsmep1+an6EFABQAUAFABQB5v+0h48t/hn8B/HXja4fa2n6Jcrb/ADbc3Mq+VAuRyMyyRjI554rqwNF4jEwprq/+H/A5cZVVDDzqPov+GPiO88HfEX/gnB8Ufgv8ZfD9jdXWleM/BtpbeMdHj+Vbi6ggja/tgOFEixlJYicFpIn65YH9LPz4/Q3W/wBmr9jz9qnwlpnxDuvhd4Y1qy8RWkeoWet6bAbC8lRxlWae3KSlgequTtYEEZyKAOK/4Yv+MHwz/ffs1/tgeO/D1vFzFoXi5I/EOmAf88oxKA0Ce67moAP+Fyft7fCX5Pir+zX4c+Julw8Sax8OtXaK4Cj+I2N0PMlcjqE2jP4UAbnhH/gop+zNreqL4a8ba9rXwy8Q8b9I8daTLpM0fb5pGBhXn1kFAH0XoPiHQPFOmRa14Y1zT9X0+cZiu7C5S4hkH+y6EqfwNAGhQAUAFAGZ4m8S6B4N8Paj4r8VavbaXo+k20l5e3ty4SKCFBlnY+gAoA+QPhz4a1/9ur4k6b8f/ibpFzp/wW8KXRn+HnhW9TadduVJA1m9jPVOvkxnjH+zuMwB9pUAFAHL+EtPHw/8BxW3iO/tIY9JhuLi7uRIRDHEHeRnLMBgBTkkjsaAPnb9h+wvPiprPxB/bK8SWcsV38T9Taw8MRTgh7Pw1YsYbZQD9wyujSOOjFUbvQB9Y0AFABQAUAFAHknxD/a0/Zp+FV9JpXj342+E9L1CIMZbL7es9zHt674YtzqfQEAnoM0AcDaf8FKP2Ib29bT4fj1pyyoyqWl0vUIo8t0xI8AQj1IOB3xQB7D8N/jj8HfjBbtc/C/4m+G/E2wEyRadqMcs0Q/24gd6f8CUUAdxQAUAFABQAUAFABQAUAFAGL4s8aeDvAekya/448V6P4e0yL795ql9FawL9XkYL+tAHg+t/wDBRv8AYn8Plhf/AB90aXaAT9hsry97448iF89Py56UAbHhb9vH9j3xjeQ2Gi/tA+FFnnfy41v53sNzYBAzcrGOcgD1PA54oA90s7yz1G1ivtPu4bm2nUPFNDIHSRT0KsOCPcUATUAFABQAUAFAHxj4T1yL4Ff8FEPFfgllFr4W+OdhFqVmBxFF4is7dXmA7KZoWdyerPtHOKAPs6gAoA8m/aW/Z90L9or4dP4Vu76TR/EGmXCar4Z1+2yLnRtUiO6G4jYYOMgBlBGVJxhgrAA5f9k39oHXvifpWsfC/wCLtjFo3xf+Hcq6d4p03hVugBiLUbccBoJlw2VGAzdArISAfQNABQAUAMlligieaaRY441LO7HCqB1JJ6CgDwb4lft2fsp/Cy4bTdd+L+kanq27y00vQN2q3by9o9lsHCMfRytAHB/8NY/tM/FL91+zx+xv4jgspf8AV6/8RLuPRLZV7SC1yZZkPUFHzjt6AEV1+z7+2b8TLaW++O37W0nhHSwjST6D8K9Ia2cKBlhHfSA3ROBgLsck9MnqAfkt+23Z/CbRvi8vhv4UeHvH9nFpdkI9X1HxyLlNV1W9Mjk3BjuMOkfl+WFykZJ3EqOCQD59oA/W/wD4JaeK2u/gdq3w+vhs1DwxqiXQj3k/6HfwJcQPg9Nx87gccZ6k18VxFRcMSqnSS/L+kfX5DVU8O6fWL/P+mfZ1fPnuBQAUAFABQAUAeJ+AoJfiJ/wUO+0WiB9O+EfgN1u5T82zUtUlHlx46KTbKWyME4I6V9rw7RcMM6j+0/y/4Nz5DPqqniFTX2V+f9I+16+gPDCgAoAKACgAoAKACgAoAKACgAoAKACgAoA4/wCL3wv8NfGn4ZeJPhX4vhL6V4lsJLKZlALQseY5kzxvjkCSLn+JBQB8lfst/EXxB9h1P9nz4tTG3+Jvwyb+zNRinBVtTsEO211GLdzLHJH5eXBJyQzY3rn4POsA8JWdSK9yX4Pqv8j7XKcasVRUJP3o/iu/+Z71XjHrBQAUAFABQB84eKLOH9rn9ovRPgNowN/8O/hrfReIfiHdxqWtrm+iObPSC/3WJfc0qc8Kw4aMivruH8A6aeKqLV7enf59P+CfLZ5jVNrDU3tv69j6A/bb+DGo/Gr9n/WtN8Lqy+L/AAxLF4p8LTRrmWPVLImSNU/2pF8yIdsyA9q+nPnT5r/Y2+NFj8JdS8H2istt8FvjruvvCrbv3HhTxWSRf6GSfuQyTpKYAcc4ABJkagD9DqACgDD8XeBvBXj/AEttD8deENF8Rac+c2mq2EV3Cc/7EikfpQB8669/wTl+Akepy+I/hBqfjP4Q67IdxvvBOvz2auw6BoXLx7PVVCgigDO/4QP/AIKJfCP5vBfxh8CfGbSIelj4u0ttJ1Py/wC5HcWxKO/+3KefTtQAv/DeHiH4dfuP2nf2XPiP8OVj4m1nT7dde0WPHVmu7bG31ACscfSgD2L4bftT/s6fF22+0/Dz4y+FtVYRmVrY36290iAZLNbzbJVAGeSoHBoA+dppNT/4KKfET7Hbm6tP2a/BOo/v5QWiPj3VIH4RTwfsETDk/wAZH97BhAPte0tLWwtYbCwtora2to1hhhhQIkaKMKqqOAAAAAOABQBNQAUAfHX7W/xJ8U/EL4SeB/gB4VuY7Pxj8edXfw+72gI+x6LDITqVztJJ2rAoVgeqyPjpQB9X+EvC2h+B/C2keDPDNilnpGhWMGnWNuvSKCFAiL74VRzQBrUAFABQB558dPjz8Nv2dvAs/j74l6ybSzEgt7O1hXzLvULlgdlvbxZzJI2DxwAASxABIcYuTstxNqKu9j85/iL8Uv2hf2qjLN8R/EV98P8A4f3bM1t4K0Kcw3Nzbk/KNRuh88hK/eiGF5+6jCv1Hh7w7niIxxOatxT15Fv/ANvPp6LXzTPznPOO40JSoZalJr7b2+S6+r08mjK8NfCX4aeEIhF4d8EaTakY/em3Espx0zI+XP4mv03BZDlmXq2GoRXna7+93f4n55i86zDHO9etJ+V7L7lZfgdJNpmm3EAtZ9PtpIVBAjeJSoB6jBGOa9KVGnOPJKKa7WOCNapGXNGTT9TivEXwM+GfiG6XVE8PJo+rQuJbfVNGc2N3BKDlZFePALg9CwNeBmPCWUZmn7WioyfWPuv100fzTPawHE+aZe17Oq2l0l7y/HVfJo9Z+Ev7Zvxi/Zz1Gz0L9oXWLr4g/DSQi3XxWtsW1nROfka8C5N1F2aTBk7kk4RvyLiTgvFZEnXpP2lHvbWP+JfqtO9tD9RyDi3DZy/Y1FyVe3R+j/TftfU/Rjw/4g0PxZodh4m8M6taappOqW6Xdle2kokhuIXGVdGHBBBBzXxR9caFABQAUAFABQAUAfEf7Sn7duuDxTe/BT9laPT9W8TadK0HiHxXeR+dpegsOGijHS4uQeNvKoQQQ3zbPcyPh/GZ/X9lhlaK3k9l/wAHslr8tTx85zzC5JR9piHq9ord/wDA7vb56HytJ8G9K8Ua2/jP4x67qnxI8VT8zan4gnaZF5z5cVvny44geiYIXoOOK/Zcq4EynLop1oe1n3lt8o7W9bvzPyfMuNMzx0mqUvZw7R3+ct7+ll5HaafoeiaSqppWj2Nmq/dFvbpGBxjjaB24r62lhaFBWpQUfRJfkfMVcRWra1Jt+rbKWs+B/BniK3e113wppN/G4wRcWcb/AJEjIPJ5FY4nLMFi4uNelGS84pm1DMMXhZc1GrKL8m0YvhDw58RvgLqcniT9mP4gXfhWR38268OX8j3mhagcciSByTG56eYh3AcLtr4POvDrCYmLqZa/Zz7O7i/1X4ryPs8o48xWHap5gvaR7rSS/R/g/M+7f2Uv2x/DH7RENx4N8R6UfCPxO0OAPrPhq5fO9QdpubNz/roCSDkZKbgDkFXb8dxuCxGX1pYfExcZrdP+tV2a0Z+q4TF0MdRVfDyUovqv60fk9T6LrlOkKACgAoA+Z/25fhs/jX4O6r40+HS2S/EX4X39n440qWBVNz9osQZPKk2/Owe380Kh+8QnXFAHtfwl+JGhfGD4Z+Gfih4afOneJtMg1GJN25oi6gvEx/vI25G91NAHW0AFAHzR+1l8D/Gd9qejftM/ACJIfi18P4m8u1wfL8S6Ty0+lzgfeLAsYz1DnAwSrIAdV4B/bG+AHjT4RaX8YdU+Iug+FtNvkaO6tdb1KG1uLG8jwJrSRHIJlRjjAHzAqwyGGQDz2/8A+Ci3wu8Q3k2i/s/fDv4h/GTUo2MZbwzoEy2ET/8ATa6nCBF/2wrCgCD+1f8AgpD8Xf8AkHeHPhx8CdIm58zULg+ItajU9Cqxj7KTjkhwDn8aAHRf8E9tC8cSLe/tL/Hf4lfF2YsGk0++1V9M0fd1yllbEeXz6SelAHu/w1+AvwW+DtusHwv+F3hvw2wXY09jp8aXEg/258GR/qzGgDvaACgD83/27v2d/gp8TvjPp3w18I+FJNb+N3xMuI9T1PxDf6vdmDwn4ftlSOS7eCOVIAgSIpGjodxL5O4oCAfBPxB/ZU8VeLtQ0nx58BvA11P4C8a67qfh3wZGJJJbnUBplv8A8fDlv+Wl35FzIqg43xzKAiqooA+rfg3pmo/AT4K/BT9sHS7S+k8Nahpdx4L+KEEVu7tbQw6hcQ2eougG7dA6CBjgkIqIo+YmvMzXA/XsO4x+Jar/AC+Z6GWYz6nXUpfC9H/n8j7207UdP1jT7bVtJvoLyyvIknt7iCQSRTRMAVdGHDKQQQRwQa/PpRcW4yVmj7pNSV1sWKQwoAKACgDh/jP8XfCvwQ+H+o+PvFdx+6tVEVnaIczX92/EVtEoyWd244BwNzHAUkdGEwtTGVVSp9fwXc58TiYYWk6s+n4+Rr/sP/BbxJ8MvhpqHjv4m25T4k/FDUG8TeKN6bXtWkB+z2IB5VYI2xsP3WeQDjFfpFGlGhTVKGy0PgKtWVabqT3Z9GVqZhQAUAFABQAUAFABQAUAFABQAUAFABQAUAFAHz/+1B+y/P8AGWfRviV8NfEw8H/FbweGOha6ELQ3MJJL2N6gH7y3fJ7EqSSAQWVsa9Cniabp1FdM1o1p4eaqU3Zo8b+HX7Ulj/wkEfwl/aD0N/hl8Tbc+RLp2pkx2GpsDt86wum/dzRucFV3E5O1S+Nx+Jx+S1sI3KmuaH4r1X6n2GCzajikozfLL8H6f5HvNeMesFAFTVtX0nQNNuNZ13VLTTtPs0Mtxd3c6wwwoOrO7EKo9yacYym+WKuyZSUFzSdkfPF58X/iL+1LrM3wu/ZEE1vpG54PEPxNu7SRdO0yIfK0dhuA+03Jz8pU4XhhwfMT6fLchk2quLWnRf5/5Hz2YZ1FJ08M9e/+X+Z9d/Aj4HeB/wBnn4c2Hw38CW8xtbZmuLy9um33Wo3j4Mt1cP8AxSORz2AAUAAAD6xJJWR8u3fVnoVMD4Csfgx4RtvjP8Yv2FvHkTW3gv4rQN8R/ANxGAH02+LYvEtj/DJFMglRBgCONs8SEEA9x/ZF+M/i3xBDrv7P/wAa5Vj+LHwwZLLVZCcDXNPOBa6rDnlllTbvPZyCQu8KAD6MoAKACgAoAKAPzp+MHwj+GH7d3x/b4bfC34deHNN8GeBb/d4/+I2n6ZDFd6heL/zCbKdV/eNz+8kO7b16ACYA9Zsv2IPin8ILWOD9lr9rTxp4U0+1B+z+HPE8EOvaSi5z5USyBTboc9VDNyT1NAE3/C5P29vhL8nxV/Zr8OfE3S4eJNY+HWrtFcBR/EbG6HmSuR1CbRn8KANzwj/wUU/Zm1vVF8NeNte1r4ZeIeN+keOtJl0maPt80jAwrz6yCgD6L0HxDoHinTIta8Ma5p+r6fOMxXdhcpcQyD/ZdCVP4GgD5N/ZetbD46/tI/Eb9p+2tYP+ES8LFvh38PlijCwNBC/mahexAfKRLO2FkUZKs6k8UAfYVAENzd2tmqPd3MUCySJChkcKGdjhVGepJIAHUk0ATUAUta1nSvDmjX/iHXb+Gx03S7aW9vLqZtscEEaF5JGPZVVSSfQUAfk5qfjrX/2qfidL+0L44R00KylmtPAOhyJiPT7APj7Y6nrcTbQxbtxjgJt/YOAOGIRprN8UryfwJ9F/N6vp2WvVW/LON+IpSm8rwzsl8bXX+76Lr3enR362v1U/NQoAKACgBk8EF1BJa3UMc0MyGOSORQyupGCpB4II4xSnCM4uMldPdDjKUJKUXZo3v2Mvi1qP7Ofxi0/9nrXdSMnw0+INxM/hRrgnOi6yTuNir/8APKck7FP/AC0Kgcly38/8acNrIsUquHX7mpe3919Y/qvLTpc/buEs/ec4Z0638WG/muj/AM/P1sfpRXxZ9cFABQAUAFAHyB/wUA/aG8UeCNN0L4A/CXVlsfHXxDSU3OoIC0miaKmVmuwB92RyDHGx7iTBDBSPUybKqudY2GDo6OW77Jbv+t3ZHnZtmVLKcJPF1emy7vov66any/4K8GaD4A8OWnhjw5a+TaWq8s2DJNIfvSSMB8zseSf5AAV/SeW5bh8pw0cLhlaMfvb6t92z+f8AMMfXzPESxOId5P7kuy8kbldxxhQAUAFAHH+OvC2uz3ulfEP4d6q2iePvCM327QdTjUZLjO63lB4eKQFlKnj5jkEFgfleK+G6Wf4V8qtWj8L/APbX5P8AB690/pOGs/qZJife1pS+JfqvNfitO1v0Z/Za+PmmftJfBfRPiZa20dlqcgew13TUznT9UhwtxAQ3zAZIdQ3Ox0J61/O04SpycJqzWjR+7xlGcVKLumetVJQUAFAHO6R4curHxV4k1q6e3ktdZFoIowSWAiiKMHBGOSeME8elAHzR+x9MvwN+KvxY/ZC1SVbbS/DV6fGngsyNtU+H79y0kSZ/gt7glCe7O3pQB33xK/br/ZU+Ftw2ma58X9I1PVt3lppegbtVu3l7R7LYOEY+jlaAOD/4av8A2mvil+6/Z6/Y48R29lL/AKvX/iLdx6JbqO0gtMmaZD1BRs47egAv/DOv7Z3xW/efHH9rj/hEdPl/1uhfDDTPsO0HqF1Gf/SB6YKsP6gHhvxZ/Y7+Fn7GfxB0D9pC28Av8S/hwh+w+PrPxPCmsX2ntLKCutxF0/eMrH94u33AG7dGAfol4UvPDGo+GtL1HwXLp8ug3dpFcadJp4UWz27qGRo9ny7SCCMcc0Aa1ABQAUAFAHmv7Q/x18Lfs6/CvVviZ4oV7k2oW20zToT+/wBT1CTIgtYhySzt1IB2qGbGFNAHxT4x8FfEn4VfAvUJ/FFyl3+0p+1jrUHh64l6nR7O4wHtYuSY4LW1JVip+V3TlhGpoA+9Ph58MvCnw18BeFfh5oOnRHTvB9lBaacZIwXRo4jEZs9pGDSFmHJMjepoA1pPCXhibQL7wrJ4fsG0fUxdC9sPs6+RcfaXd7jemMN5jyyM2fvF2J60AfDWu+Cfid+wdqEsmh6ZrPj/APZ/ubiSVIbVGutY8Fbzu27eWuLIHdz1QcsQR+98LNMmjjL1aWk/wf8AwfM9nLc1lhP3dXWH4r/gHs/w6+KPw++Lfh6LxT8OPFmn69psmN0lrLloWIzsljOHifH8LgN7V8bXw9XDS5KsbM+so16eIjz0ndHU1ibBQB5d8X/2kfhd8GDDpfiHVpdS8S3pCad4Z0eI3mq3sjD5FS3TLKG7M+1T2JPFduDy7EY1/uo6d3sceKx1DBr949e3Ur/Aj9nP4k/FHx9pH7Sf7U9nHp93pObjwX8P438y38P7jlbq7PSa927ewCHkgMFWP7nAZfSwEOWGre77/wDAPjcbjqmNnzS0S2XY+xK7ziCgAoAKACgAoAKACgAoAKACgAoAKACgAoAKACgAoA4/4ofCH4ZfGnw1J4Q+KngnSvEulOSyw3sO5oWIxvikGHhfHG9GVvegD5zn/wCCd+neFZWPwJ/aL+KHw8sj9zSBqK6rpsJH3fLhuQWAzjOXOQMcVyVsDhsQ71IJs6aWNxFBWpzaRCv7GX7TNw32bU/29fEEmnrwkdr4H063uAp+8DOHJY+hx8vvXOsmwKd/Z/i/8zoebYxq3P8Agv8AI09C/wCCcfwdvNRh1342+MfHXxe1KGRZo18U63IbGFwePLtIdiBf9hi6nJyOcV20cNRw6tSil6I5KuIq13epJv1PqLRtF0bw5pVroXh7SbLS9NsYhDa2dlAkEEEY6IkaAKqj0AArYxLtABQB8sft++EddsPAnhv9pTwHZmbxd8D9XTxLCicNdaUcJqNqSOiND87H+7EwHWgCH9ojwjqvxF8LeCP20P2Ztt7468J6fFrGmwxjA8S6BOgln0yYLyxZGLRjkrJuCgMwYAHu/wAGfi74O+Ovw10P4o+Bb3z9K1u3EoR8ebbTDiW3lA+7JG4ZWHqMjIIJAO2oAKACgD5H/aJ+LHjz42/EOb9jz9mzWJLHUzGr/EPxlb5aPwvpz9baJgeb2VcqFByoJ6Hc8QB9EfCT4T+B/gh8PtI+Gfw70dNO0TRoRHEnBkmc8vNK38cjtlmbuT2GAADsKACgDD8XeBvBXj/S20Px14Q0XxFpz5zaarYRXcJz/sSKR+lAHwV+2h+yt8EfgZ4Jg8U/s9WfijwF8TfGmtWXhnw3ZeEvENzYw6jfXMgXZNDuZRCsXmEhAg+6CRuzQB1/wr+Av7ev7KngHSfBPwo8d/C/4i+GdHSTy9A1nTpdLuIRJI0jpb3MPEjM7s2+Y/xHjgUAdZ/w3h4h+HX7j9p39lz4j/DlY+JtZ0+3XXtFjx1Zru2xt9QArHH0oAT49fHb4EftMfsr/EjSPg98ZNB1bWY/D8+r6da2t/8AZtSW6ssXkDJA+ydH8y3Tadow2ORigDx//gnv/wAFMLL4qLp3wU/aC1eCz8ZgCDSfEE7LFBrPZYZuix3PYHhZcY4cgOAer/8ABT3xpe6b8AtN+FOjXEsOo/FLxHY+HC8TFWjsg/n3L5H8O2JUYd1lIwRmu3LcHLMMZSwsftyS+96v5LU48wxawOFqYmX2U39y0+8+dbGytNMsrfTrC3SC1tYkggiQYWONQAqgdgAAK/qWlShRgqdNWikkl2S2R/ONSpKrN1Ju7bu33bJ6sgKACgAoAKAOB+Ofh668QfDLV30t5ItW0dF1nS7iJtssF3bHzUeNhyr4VlBH96vnOLcuWZ5RWpWvKK5l6x109VdfM97hjHvL80pVL2TfK/SWmvo7P5H6lfBD4j23xe+D/gz4n2qhR4m0S01KSMDHlSyRKZY/+AvuX8K/m0/fzt6ACgAoAKAPyXuPE7fFv9or4v8AxnnLS28uvN4V0RnJPl6dp4EWYwfupK6+YR/eycA1+y+GeXKnhquPktZPlXotX97f4H5R4hY9zxFLBRekVzP1ei+5L8Tpa/UD85CgAoAKACgAoA639g7xMfh/+1b49+FzM0WlfETQYPFVjGD+6XULV/JuQo7PIknmMcc7Bk8AV+A+IGXLBZu6sFaNVKXz2f4q79T9t4Ix7xmVqnJ3dNuPy3X4Oy9D9Fq+IPsDlfHvxW+GXws0/wDtT4k/EDw94YtSpZH1XUYrbzMdkDsC59lBNAHz1f8A/BRb4XeIbybRf2fvh38Q/jJqUbGMt4Z0CZbCJ/8AptdThAi/7YVhQBi2HjD/AIKL/GvWdU0XSNB+HPwL0+x8gyvqEjeINZgWVCyFQn+iucAkhlXGQPWgDwv9rn9jf/hXlt4R/aM+PPxX8X/GWy0jX7DTPHUWpt9hto/D88u13tobUh4RHNIrbFk2ksOmDkA+/vhd8Dvgj8J7CFvhN8NfC+gRSxArd6bYxLNOhHBacAySZHdmPFAHf0AFAFbU9N07WtNutH1exgvbG+ge2uraeMPFNE6lXR1PDKykgg8EGgD44+GGp3/7Dnxktf2ePF15cS/Bnx/fSSfDnWblyy6FqMjF5NFnkbojMS0LE8k9WJcoAfaFABQAUARXNzbWVtLeXlxHBBAjSyyyuFSNFGSzE8AAAkk0AfGnwltrn9tn4+f8NHeILeU/CL4Z3s1h8N7CZCses6mjbZ9ZdW+8qMu2HI4IB+VkcMAa3wu/4yL/AG2PGfxkl/0jwh8EYJPAvhdjzHLrco3apcp/tIpEBI4KshoA+uqACgAoA+c/if8AsDfs6fEjxBceNtO0PVfAfi25JZ9f8F6lJpN0XJyXKR5hZyeS5jLE9SaidOFRcs0mvMqE5U3zQdn5HEv+xR+0JpI2eDP27vF9qif6sa34VsNXYdvmZ2Td8uPxy3euCeT4Ke9NfivyZ3RzXGQ2m/wf5jl/YM+IfiMC1+J37aPxP1iwc4nttDgtdD85P7jNEHOCS2fUEDjGaunleDpO8aa/P8yJ5jiqitKb/L8j2T4J/sofAP8AZ8knvvhl8P7Sz1e7BF1rV5LJe6jPn72bmZmdQ3UohVSedtdySSsjjbb1Z65TEFABQAUAFABQAUAFABQAUAFABQAUAFABQAUAFABQAUAFABQAUAFABQAUAFAFfUdPsdW0+50rU7WK6s72F7e4glXcksTqVZGB6ggkEe9AHyf+wvqF98LNc+I37GfiS7lkufhfqrX/AIYknbL3fhu+YzW7An7xidyrnopkVf4aAM3xID+w7+0E3ju2HkfA/wCMmqpF4hiHEHhbxJJwl8B0jt7nGJDwFYZJAVFIB9kgggEHIPQ0ALQB8yftS/tA+MrPxFp37Mf7OSxah8XvF8JeS6PzW3hXTDxJqN0cEKwB/doRkkg4OUSQA9L/AGdv2fvB37OPw6t/A3hZpr27mka+1rWbr5rvWNQk5lup2JJLMegJO1QBk8kgHqFABQAUAFAHyL4d/wCMkf26dV8WN+/8Ffs7Wkmh6bnmK68UXi/6XIOx8iECIg8q4VgeaAPprwD4gvfFPhOx17UIoY7i683esKkINsrKMAknoo70AdBQB+OH/BTT4y/DfSPF3ib4J6h+zF8N18Zr5Nxb+OdH1VWuooZG3r50EUEckdxsABjllcLu3AOrKSAfnMCVIZSQQcgjtQB9eeBP2rfih8f9c+D/AMLvinqI1YeBdR1Ge01iZibm6jeyxDFOOkjxmFgJT85D/Nkgs31PBUYzz7DqXd/hGTX4nzfF0nHJa7j2X/pSufVNf0YfgwUAFABQAUAFAFbU4YLjTbuC6YLDJBIkhK7gFKkHI78dqzrRjOnKM9mnc0oylGpGUd00fWf/AATWu729/Yh+F02oI6SrZX0Shn3ny01C5SM59CiqQOwIHav5OP6ZPpmgAoAKACgD8av2apZ7v4U22pXwK39/qWpXN6rHLLO15LuDE8seByea/oTgGMY5DSa6uV//AAJr8rH4bxrJvOqqfRRt/wCAo9Sr7E+UCgAoAKACgAoA8a+Kfx18Q/s0/Gz4f/F7wdotprGsWmm6vYiyuvMELrMkUaGTyyGZQ0mQuRyo5Ga/IPFGMVUw0lvaf/ttvzZ+peHMpezxEel4/wDt3/APpj4IeIfit+25bl/EX7e9j4dbBN94J+HWmHR9StMffBuLsC7wv3SwR0z0Y9/yk/Sz6D8Bf8E+v2VfA2of29efDlfGWvOwebV/GF1JrFxM46OyzkxBvdYwaAPoWw0+w0qzh07S7G3s7S3UJFBbxLHHGo7KqgAD2FAEVr/Y39pX32L7F/aH7r7d5Wzzvu/u/Nx833c7d3bpQBk/EbwHoPxQ8A+Ifh14ng83SvEmm3GmXQA+YJKhXcvoy53A9iAe1AHhv7BHj3Xda+DVx8JfHc2fGnwe1SfwRrSnOZUtTttLgZ5KPBsAb+IxsaAPpWgAoAKAOG+Nfwb8E/Hz4bax8L/H1iZ9M1aLCyx4E1pOvMVxC38MiNgg9DyCCpIIB4x+yh8ZPGeleItU/ZL/AGgr4P8AEzwPbiTTNVkyE8V6GPlhv4mb70oGFlXJOQSSWEm0A+oKACgD5B/an8V+If2hPiVZ/sPfCnVp7OO9gj1P4n67annSNDJBFkrdri5yo2/3GGQVZ9oB6N+0X4/0P9kv9l7Ubj4f6RDZz6Vp8HhzwdpVsm7dqEwEFpGidXKsfMYdWEbnrQB0H7K/wVi/Z/8AgR4V+GsribVLS1+163c7t7XOpzky3Uhfq/7x2UE87VUdqAPWKACgAoAKACgAoAKACgAoAKACgAoAKACgAoAKACgAoAKACgAoAKACgAoAKACgAoAKACgAoAKACgAoAKAPkL9suKX4HfFj4Yftn6XGyWPhy8Xwf46MYP7zw/fSbUmfHUQTsHA7vInYUAfTPj3wN4Q+LPgTV/AXjDT4dV8P+I7J7S6iyCJInHDow6MDhlcchgrDkCgD55/ZM8f+K/ht4q1T9i/4z6pJd+J/Btt9r8H61ccf8JJ4bzthkBPWeADy5F64X+LY7EA679qn9pS5+Den6V8P/htoy+Kfi544c2fhPw9H83zHIa9ueRstosFixIDbSMgB3QAu/stfs223wD8NahqviXWW8T/EjxhP/afjHxNP80t/eNk+XGSAVgjyVRcAdTgZwAD2+gAoAKACgDyr9qH402/7P3wL8V/E8os2oafaeRo9qV3G61KYiK1iCjlgZXUsBztVj2oAzf2Qvgrc/Aj4D6B4Q1uRp/E2oeZrnie7c7pLnV7s+bcs7fxFSREG7rEpoA9a0b+xv7Nh/wCEf+xf2f8AN5P2PZ5P3ju27Pl+9nOO+aAPGPjT+2p+z58Db3/hHfEXjA634qd/Kg8L+HITqWqzS9o/JjOI2PYSsme1AHxf+1B8Yvib4o+GWsj4i/Djwb+z18MvFJkkng1jRYdZ8X68zNkvFp6hUgkL4JecxFH2sJgcGgD8nZfK81/I3+XuOzfjdtzxnHegD279n3wtqFr4a1r44W8Raw+H3ijw3FqrZx5Vnf8A26F5M+zpGMdPnGa9fIcasvzOhiZbRkr+j0f4M8vOsI8dl1bDx3cXb1Wq/E+9a/p4/nYKACgAoAKACgDkvi14li8IfDTxJ4hlbBtdOlEXzYzK42RjPbLso/GvJz7GrL8sr4l9Iu3q9F+LR6eS4R47MKNBdZK/otX+CZ+i37Jfw9vfhV+zT8NvAWqQiG/0vw9afbYtoXy7qVPNmTHqJJHGepxk8mv5gP6KPWqACgAoAKAPyF8DaBc/Dvx38Uvg5qCCO58H+Mb7yFAwGsLpjPayBf4QyMWwOPrX7j4bY1VssnhutOX4S1X43Px3j/COjmMcR0nH8Y6P8LHb1+iHwgUAFABQAUAFAGf8FPgt4c/ab/ac8UeDPGGmi88K+FvAE9lqLYBaK/1GRRAUJBCSLGjSq/UNGOor8O8Scaq+Zww0f+XcdfWWv5WP2LgDCOjl868vty09Fp+dz0n4TfAH4XfHC58Qfs6/tH6CbL42fCN4orLxpokp07V9X0bgWGqRzp/rmCbUfzRJtbaT87HH52fdnof9l/t6fsxfNoupWX7R/gS2/wCXS/caf4qtYh2WblLrA7tvkc8ALQB6T8Gf23fgR8Y9W/4Q3+2bzwZ43icQ3HhLxbbHTNTjm/55qknyyt/sozNjkqKAPXtF8P3uneLPEevTywtb6v8AY/IVGJdfKiKtuBGByeME/hQB0FAHyP44P/DPf7dnhf4goPs/hP4/aenhPW26RxeIrNc6fMx/vSxHyFHqHJoA+uKACgAoAKAPB/2r/wBnjUPjN4d0vxh8OdVXw/8AFbwFO2q+DtcXClJwPntJj/FbzgbGByBwSCNysAa37L/7Q2nftC+AZNTvNMbQfGXh25bR/F/h2bIn0jU4yVkQqefLYqzI3cZGdysAAQ/tWftBJ+z/APDcahoem/23448TXSaH4N0GMbpdS1Sb5YxsHJjQkO54GAFyC60ARfsofs+v8Bfh9OfFGojWviD4vum13xprrndJf6lLlmUN/wA8otxRBwPvNgFyKAPMvHH/ABkb+3N4b+HUf+keDfgBaR+K9dHWKbxHdLjT4W7boY8zqfXepoA+uqACgAoAKACgAoAKACgAoAKACgAoAKACgAoAKACgAoAKACgAoAKACgAoAKACgAoAKACgAoAKACgAoAKACgDl/ij8PNA+LXw68R/DTxRF5ml+JdNn064wAWjEiECRc/xo2HU9mUGgDw/9gb4h6/r/AMHrr4SeP5v+K4+Dupy+CtcViS0qWx22lwM8lHgCgOfvGN270Acr/wAFIrjwt4a8CeD/AIhaVrNzpvxg8P8AiCBvhuNOt/tF9qN9IypNY+SOZLeVCBIOn3B8xYI4BX/4J5aBo/xA0nxJ+0/451xvEHxg8TaldaT4l+025hk8Mi3k2jSIYWy0CKojY92BTOduSAfZVABQAUAFABQB8dfGfVNL+Of7Ynhb4XarqdrB8P8A4E2sfj/xlPcTLHanWJBjTLeZ2O1TGpM/zcFWcGgDY8Xf8FB/AOoa7ceBP2afBHiH44eLYTseHw1CV0q2boGuNQceUif7aB0/2hQByHhb9mH9r74xaBa6R+0L8cj8OfCKh8+Dvh84ju5kdyzJdai2Tn5iGRPMjYHjFAH0V8Ff2YfgT+z3Y/ZfhR8OtM0i5dNk+pMhn1C4HfzLmQtKwJ527goJ4AoA9J1OGe5027t7W5+zzSwSJHNnHlsVIDfgeaAPyv8Agh+wv8MP2kbHxH4f8NvLbfC3wFYXnhvw14ijjEdx4o8UOP8AS9blZeZbeFwscUZJTYAAQfMyAdN/wTk/ZVfUPgV+0N8EPjFostpLqniI+E9TXYT5M1rbK6TxFhtYo9xHNG3Q/u25BFAHm3w9u/E3hbUtX+B/xOVrbxx4EmNheJKpU39opxb3sW7l45I9h3DPUE43Cv3/AII4hjm+BWHqy/fU1Z92ukvPs/PfdH4hxfkcsrxjr04/uqjuvJ9V5d15ejO5r7Y+RCgAoAKACgDH+F3w5/4ar/aF0j4bxWz3nw/+H91HrvjW5VN1vc3MZza6YW+6xdwTIv8AdV+jJX454icQQxE1lWGldRd5279I/Ld+duqP1bgTI5UIvMq6s5K0PTq/n08r9Gfq3X5afo4UAFABQAUAfn1/wUJ+F938MPiLo/7W3hrTp5NEvoIvD3xBjt4i/lwg4s9RYLz8hxCzc/KIlH3jX0/CWe/2FmCq1H+7lpL06P5P8LrqfO8T5N/bWBdOC/eR1j69V81+Nn0PPLS7tb+1hvrG5iuLe4RZYpYnDJIjDIZSOCCOc1/RlOpGrFTg7p6prZo/BpwlTk4TVmtGmS1RIUAFABQBzvj7xxo/w98M3XiTWHJEeI7a3TmW6uG4jhjUcszH06DJPANebm+a0MmwksXiHotl1b6Jeb/DfZHoZXltbNsVHC0Fq932XVv0/wCBufZv7BHwB1j4L/CCbxJ4+s2i+IPxEu/+Eh8SiRNslqzA/Z7LHUCGNsbT915JB0xX8zY3GVcwxE8VWd5Tbb+f6LZeR/QmEwtPBUIYeirRirL+vzI/2yvhp4ssv+Ee/an+Dmnm4+IfwpZ7mSyjyDr2hNk3unPjljsLSR9SGDbRuYEcp0nuPwr+JnhP4x/DzQfid4Gv/teieIbNLu2c4Dpnh43AztkRwyMvZlI7UAYXxl/Z0+Cv7QGkDSPi18PdL14RoUt7t4zHeWo/6Y3KESx884DYPcGgD5o0r4Vfthfs/eJNd0j9m/4op8TPCHh42xTwZ8QLnddiKWPd5dpqI2lSuCqrIVjUYyGPUA9A+H/7ffww1HxBD8Pfjp4f1r4KeOH+X+yvF8XkWlwc43W19gQypnADNs3E/KDQB2H7YPwhn+PH7PPiDw94Xmz4isY4vEXhW7t3+ePVLQ+dbNEw6F8GPcO0pNAHR/s1/GOy+PnwN8IfFa12JPrWnIdQgXj7Pfxkx3UWOoCzJIBnqMHvQB6ZQAUAFABQB8iftV+B/EXwH8bD9uL4NWivd6Larb/EfQFcRx+IdDQjdOM4UXVuo3K55KqByF2OAUf2VNJvv2pfifd/tzePLdl0dPtWh/C7RJmVv7M01JGinv5FBIW5mdZFPOVXcMsvlkAH038XPiVoPwc+GXib4o+JnxpvhnTZtQlXdtMzIvyRKT/E77UX/aYUAeQfsI/DXXvB3wV/4T/x6m7xz8VdRm8b+I5GXDLLeHfDBg8qscPljZ/CzOBQB9G0AFABQAUAFABQAUAFABQAUAFABQAUAFABQAUAFABQAUAFABQAUAFABQAUAFABQAUAFABQAUAFABQAUAFABQB8O/tKeNbL9in9qOw/afu9PvZ/A3xP0Obw74strGPfIdZsoWl06ZV4BklRDAMnAAkY0Adp+zP8E/HXjzxzJ+1/+0xpoi8c6vAYvCfhqXLQ+D9JbJSNVYcXUitmRyAw3MPlLMqgGV8edN1H9kb40j9rnwbYSy+APFj2+lfFbSbVCfI+YJba3HGvV4y22XA+YNnGXZ1APrrTdS0/WdOtdX0m9gvLG+gS5trmBw8c0TqGR0YcMpUggjgg0AWaACgDi/ih8Z/hV8FdDPiL4q+PtG8M2JBMbX1yFknI6rFEMySt/sorH2oA+SPib/wUH+JniHwJ4g8c/s0/Aq/k8H6FYy3t14/8bo2naSI1HBtbfIluyxKqoUhtxAKYNAHM/swf8E9dH+K/ha2+Pn7V/iPxF4p8QfEWYeLL/wAMG5ay0xJZiXhaeKIhpJBGykLlFjDGPYQMkA+9/CHgrwf8P9Cg8MeBfC2leH9Itv8AVWWmWkdtCh7nYgAyccnqe9AEPgHxBe+KfCdjr2oRQx3F15u9YVIQbZWUYBJPRR3oA6CgD5e/bH+IXirxJf8Ah79kT4Qai1t43+KKSDVdQi5Ph/w2uVvL1sfdZxuij6ZbeAQ23IB778N/h74W+E/gPQvhv4J05bLRPD1lHY2cIxnao5dj/E7MSzN1ZmYnk0AbVnpenafcX13Y2UME2p3AurySNAGnmEUcQdz3YRxRJk9kUdqAPnv9rv8AZEs/2hrPTPGfgzXE8LfE3wsrDRNbKEw3EJJLWV2oGXgYk84JQkkAgsrdmAx+IyzERxOGlyzj/Vn3T6o5cbgqGYUJYfERvF/1ddn2Z8I2nxC1Lwt4mb4Y/HDw7P4E8cWzGJ7O/BS0vyDt82zuD+7ljY4K4Y9cAtjNfufD3G+BzeMaWIap1uz2b/uvz7PXprufjWecIYzK5SqUE6lLut16ry7rT02O5r7Y+RCgCC+v7HTLSXUNSvILS1gXfLPPII4419WZsAD3NRVqwowdSrJKK3bdkvmXTpzrSUKabb2S1ZzPgbTPid+1Tr7eBv2ereay0JHaPXPH13auun6fGOGS1zj7RcHPyhTxweB86/lvE/H9OMHhcod5PRz6L/D3fnsul91+jcPcETlJYnM1ZLVQ7/4uy8t31ts/0t+A3wL8C/s7fDbT/hp4BtZRZ2haa6vLhg9zqF2+PNuZ3x80jkfQABQAAAPyCUnJ3e5+ppKKstj0OkMKACgAoAKAKer6RpfiDSrzQtb0+C+07UbeS1u7W4QPFPC6lXR1PBUqSCD2NAH5j/Gr9mv4h/sd6hca74I03VvGvwVuZ5Jfs9tG1zqnhPcd21lGWmtBzh+qj7xB5k+94U40qZNbCYy8qPTvH07ry+a7P4riXhKnm18ThbRq9e0vXs/P5Pusfwp4y8LeONKTWvCeuWup2j4y8L5ZCRna6n5kb/ZYA1+14DMcLmdJV8JUU4+XT1W6fk9T8ixuAxOXVfY4qDjLz/R7NeaNmu05AoA5Dxp8UvCngq4g0m6nn1LXb1hHY6JpkJur+6kb7qpCmW57E4Brws54jy/I4XxU/e6RWsn8unq7I9nKshx2cSth4e71k9Ir59fRXZ9Efsnfsa+MdX8W6R+0V+0zZpa6rp4+0+E/BQbfDohblbm7PSS7xjA6RnkgMAsf4PxBxHiuIa/tK2kF8MVsv833f5I/aMjyHDZHR9nS1k/il1f+S7I+6q+fPcCgD468H/8AGGX7TbfDGY/Z/g/8btQlvvDDniHQfEzYM2njskVwMNEvA3YVRw7UAfYtAFK1/sb+0r77F9i/tD919u8rZ533f3fm4+b7udu7t0oAx/H/AMNfAHxV8PS+FPiR4O0jxJpM3LWupWqTIrYxvTcMo47MpDDsRQB8yzfsb/Fv4EzPrH7FfxvvNB09WMp8A+MXk1Pw/LzkpDIcz2oPcruYnq4FAHiP7NP7Sdz+yL8YvH/wj/ax8IyfCvTfHOrHxZoGHa90q2upzsu1iniDBbeSRUdO0WGVyD8xAP0c8P8AiLw/4s0e28Q+Ftc0/WNLvU8y2vbC5S4gmX+8kiEqw9waANGgAoAKAPjT4z3l7+2b8dj+y74ZvJV+Fnw/uINS+J+o27kLqd4r77fREdf9pd0uDwVIyrRgMAUb2F/+CfPxkOsWcRi/Z2+J2pqt9CgPk+Cddl4EyqOEspyAG/hQjjaFVZADe/azlX4+fGv4XfsgaXILnRr6dfHvjvyzuT+xLKQfZ7d8dVuLjC+oKxnoaAPrpVVQFUAADAA7CgBaACgAoAKACgAoAKACgAoAKACgAoAKACgAoAKACgAoAKACgAoAKACgAoAKACgAoA+c/jR+2/8ADT4aeJZfhj4E0jVPif8AElWaP/hF/DKiVrVwcE3txzHaoCQGJ3MuQSgHNZVq1OhHnquyNKVGdeXJTV2eZz+Pf+Ch3xEma8tz8L/hHpzDEVm0cmvakmepkkyLdio6bQASORivErcRYaDtTTl+H/B/A9ilkOImr1Go/j/X3kS+G/2+rRvt0P7Y3h+/lb5jY3Xw7sordCOiiSNvMIbuTyO1cy4mjfWn+P8AwDd8PStpU/D/AIJYt/2gP25vhKrzfEj4PeEfizocB3SX3gu8ksNUSHPLGznDLO47RxYzxz1Nd+Hz7CVnaTcX57ff/nY46+S4qirxXMvL/I99+BH7UPwb/aLsbiT4c+JG/tbTlzqmgajEbXVdNYNtZZ7duRhvlLKWTPAYmvZTUldHktOLsz1imIKACgDnviB4/wDCPwt8Gat8QPHmtwaToOiWzXV7dzHhEHAAA5ZmJCqoyWZgACSBQB8Ga58A/ij/AMFDfCfib47/ABHbU/CmlnSrhfg54XM5he2fh4tUvMH/AFk5RFA6CNiRkBGIB9Y/si/Gx/j78AvDPj3UQYtfSFtL8Q2zLse31W2PlXKsn8G5l8wL2WRaAPVdb0TSPEujX/h3X9Og1DTNTtpLO8tLhA8U8EilXjdTwVZSQR6GgD5N/Z01vVf2WPi7L+xh4/1O5uPC+rLNq3wn1q8csZ7IEtPpEkh6zW5JKdyh/hBjSgD0v41ftq/s9/Ay9Ph7xH4x/trxU7+VB4Y8Oxf2jqs0p6R+TGcRMewlZM9qAPLT4o/b8/aTwng3wvpf7O3gu54/tTX4xqXiWeI8bo7TAjtyRnKyBXXqr0Adp8MP2BPgV4H1weO/HMGq/FPxw5DzeI/G90dSmMg5zHE/7qMA8r8rMvGGoA5f9rlj8dPjL8Mv2MtKBk0nULhPG/j1Y/uJoVlJ+5tpMfwz3AVfUFYz0NAH10qqihEUKqjAAGAB6UALQBS0b+xv7Nh/4R/7F/Z/zeT9j2eT947tuz5fvZzjvmgDmvjB8VvCPwQ+Guv/ABS8cXn2fR/D9o1zKFxvmfIWOGMHrJI5VFHqw6DmgDxz9jf4UeLbOz1/9pD4zWXl/E74ryrf3dvJknRNJGPsWmR55UJGFZxwS2A2SmSAfStABQAUAcf8UPhD8MvjT4ak8IfFTwTpXiXSnJZYb2Hc0LEY3xSDDwvjjejK3vQB8sa7/wAEufANlcPN8HvjV8Q/Adu2dumi9TU7CEj7uyOcbwM4zmQ5AxxXr4LPszy9cuGryiu17r7ndHl4vJcuxz5sRRi33tZ/etTDi/4JqfFOSYxaj+2drUtiCAkdv4Ns4Jwp+8DN5pyT2O3j3r0pca59KPK8Q/uivx5bnBHhHJYy5lQX3y/K52ngz/gmF8ANOvYdZ+KmteL/AIpajDIsqDxJqrCyjcHjZbQbF2+qOXU5ORjivExmZYzMJc2Kqyn6tv7lsvkevhMvwuBXLhqcY+iS/HqfWWjaLo3hzSrXQvD2k2Wl6bYxCG1s7KBIIIIx0RI0AVVHoABXCdhdoAKACgAoAKACgAoAKAPmz4t/8E9/2Z/ixrNz4tHhe/8ABnie6JaTW/CN82mXDOTku0agwM5PJdoyxPUmtqGIrYaftKE3GXdNp/ejKtQpYiPJWipLs0mvxPI73/gmf8QLTK+Ef2x/E9mg+4NW8M2mpEc9yZI93y4H1ye+K+gpcZZ7RVo4h/NRf5pnh1eE8mq6yoL5Nr8mizp3/BMKfUJFj+In7VPxB1izJ/e2+kW1tpHmr/dLKJDgnOfUEDjGaxxPFWc4qLjUxErPs+X/ANJsa0OG8pw0uanQjfz1/O59EfBD9k34Afs8GW7+F3w9s7HVblStzrF1I95qM2R8wNxMWdVbGSiFUJ5214EpOT5pO7PbUVFWWx69SGFABQB5x+0J8EfDf7Qvwo1r4Y+I3a2N9GJ9O1CMfvtNv4/mt7qMjBDI+DwRlSy5wxoA4f8AY++NviP4k+D9U+HXxVjFn8VfhldLoPi60Y8zyKD5F+n96K4jXeGAALb8DbtyAev6L4fvdO8WeI9enlha31f7H5CoxLr5URVtwIwOTxgn8KAOgoAKAPkn/goj4HWHwL4X/aK0/wAOW2t3/wAINYTU9R0+eBZk1LQLgrDqVo6MCrK0ZVjuyAqP60AV/wDhivw5Zw2/xc/Ym+LusfCW8163h1WG1sGN94b1WOVA8by2EpKqGUrhk4QHhM0ACftc/G34BOumftmfBC4s9IiIT/hYPgdJNS0Vl6eZcwcz2o9yCST8qAUAfSnw5+Kfw5+Lvh+PxV8MvGukeJdLkwDcaddLKI2IzskUfNG/qrgMO4oA8m/a8+O3iP4caDo/wr+EMC6j8XPiXM+k+FbMYIsxj9/qM3ULFAhL5II3AZBVXwAdr+zl8B/DX7Onwr0z4c+H5XvLlC17rGqzZM+q6lLg3F1KSSSzMMAEkhVVcnGaAOn+J/h7wL4r+HfiTw/8TbS0uPCl5plwusJdHES2oQtI5bqu0DcGHKlQwIIBoA/Or/gmV4v0rwL8SdR074j2PiG1u/izpsT/AA08QeIZxI2paDpsktvFp6t0jlSNUfYMB1CHAHl7wD9PKACgAoAKACgDF8WeNPB3gPSZNf8AHHivR/D2mRffvNUvorWBfq8jBf1oA8H1v/go3+xP4fLC/wDj7o0u0An7DZXl73xx5EL56flz0oA2PC37eP7HvjG8hsNF/aB8KLPO/lxrfzvYbmwCBm5WMc5AHqeBzxQB7pZ3lnqNrFfafdw3NtOoeKaGQOkinoVYcEe4oAmoAKACgAoAKACgAoAKACgAoAKACgAoAKACgAoAKACgD47/AGjPjv4++KPxJuP2WP2a/Ef9k3mnosnj/wAaW6mT/hH7d+lnbMPl+2yAHnOUAIGGDNHwZhj4YClzy1b2Xf8A4B24HBTxtTljolu+x0Pwi+DHw/8Agh4Vi8KeAdFW1i+/d3kp8y7v5jy01xKfmkckk88DOFCgAD4HFYurjKntKrv+S9D7bD4alhYclJW/X1O4rnOgKACgDx340/s82nj/AFKz+JPw81yXwP8AFLQA0mjeKNPXa7Hbj7PdqBieBuFIYEgZxkFlb08uzSrgJW3h1X+R5uPy6njY32l0f+Z6d+yf+0tc/GrStW8C/EbTIPDvxY8DyLZ+KdDUlVfp5d9bBuWtpQQwIJ27gCSCjN97RrQxFNVKbumfFVaU6E3TmrNHv9amZT1jV9K8P6Tea7rmo29hp2nQSXV3d3MgjighRSzyOx4VQASSegFAHxV4V03WP+Ch3xJtviR4ssLmz/Z28E6iz+F9GuYzGfGWpRMVN/cxnk2qEMERhg8qRzKoAPt9ESNFjjRVRQFVVGAAOgAoA+OPCmp6b+yr+2z4v8E67qFtpHw/+OdjL4z0i4upVhtbPXrVf+JlEXYhV8yP9+zE4/1aigDc8Xf8FB/AOoa7ceBP2afBHiH44eLYTseHw1CV0q2boGuNQceUif7aB0/2hQB5r8Tf2SP2v/2wNAGoftC/E3wr4BGl+ZqPhnwt4YsBcmy1ERssMl1fsTICCQHELMpByu0gCgDtv+CdHh/4MaT8Pr/QNC+Euj+DPin4Kum0Dx1bFDNqAvUyPP8AtEpaVrecAyJhvL5dVyFyQD7BoAp6zrGmeHtHvtf1u9is9O0y2lvLu4lOEhhjUu7sewCgk/SgD5b/AGE9I1X4hHx5+2B4vsZLfVvi/qu7RIJh89j4csyYbKLH8Jfaztjh8Rt3oA+sKACgDn/APh+98LeE7HQdQlhkuLXzd7QsSh3SswwSAejDtQB8s6wD+2f+1B/wjCH7R8G/gRqaT6oQMweIfFij5Lc9nitASXHTeSCCrqQAfY1ABQAUAFABQAUAFABQAUAFABQAUAFABQAUAFABQAUAFABQAUAFABQAUAFAHyZ+1t4Z1/4K+O9F/be+GmmS3dx4WthpPxC0m2Hzax4aZwWmwOs1qcSKT/CvzHbHggH0B8PviNp3xEub/UPD19ZX+gNaadfaVe22f9JguoPNDkk8jBGOBjvzQB2dABQBQ17Q9K8TaHqPhvXbNLvTdWtJrG8t5BlZoJUKSIfYqxH40AfMn7BGu6r4V8OeM/2V/F968/iD4J64+kW0kx/eXeh3BabTrj6GMsgA4VUQd6APqh0SRGjkRWRgVZWGQQeoIoA+Q/2l/wBlr9nf4e+H/EH7R3h7xLq3wP8AEGgWj3lx4h8GzC0Fy2flhlsgRDcGRyF2AI0jOAWOaAPBfgLr/wC1N8JfEy/tfftMfArxD8TG8aeH7O1i1zQmhk1Xwzpa5YRnSUVAglG2aQxkBcncQzOpAPuz4MftI/BP9oHTG1H4UfEDTdZlhTdc6fuMN/adj51tIBKgB43FdpI4JoA8k/b18Saz4i8L+Ev2WvBN68Hib43awuiSyxcvZ6HFiXUrnHoIgEIPVXfHIoA7342/steCPiv8FdO+E+kbvDlz4ShtpPBer2eVn0G9tEC2s0TDDYXaqsARuXPIYKwAMf8AZM/aD134n6brHws+LtjHovxf+Hci6f4p03hVu16Rajb9A8Ey4bKjALdlZCwB9BUAFABQB8ifGH9rTxx428c3vwJ/ZBtdO1TxBpUzQeKPGmoRGXRvDmODCmOLm7zxsGVUghg2H8vixuPo4CHNUevRdWdmDwVXGz5aa06vojjvDv7GPw3utV/4TX446jqfxe8azYa51jxVM08K9/Lgs8+TFCD92Mh9vQHHFfH4rPMViH7j5V2X+e/5H1OGyfDUF7y5n5/5f8Oe16N4R8KeHESPw94Y0nS0j4RbKyjgC8AcBFGOAB9BXlTqzn8TbPTjThD4UkZPij4S/C7xtZyWHi/4deG9YglXay3mmQynvgglcggkkEEEE5FXTxNak7wm18yJ4elVVpxT+R4//wAMweK/gtfzeLv2OPiNeeA712M114U1KWS/8Oao2OQ8EhLwOenmISVHChc5r3MHxDVpvlxC5l36/wCTPHxeRUqi5qD5X26f8A94/Zp/aw0r41XN78OfHXh+XwP8WPDsO7XPC14/31B2m6s5Ok9sxwQyk7dwBJBV2+uo1qeIgqlN3TPlqtKdCbhUVmj3+tTMKAMnxb4q8P8AgXwvq3jPxXqUWn6NodnNqF/dSZ2wwRIXdiBycAHgcnoOaAPjy9+MX/BRn40FfE3wH+Cvg3wH4Lux5ulT+OLlm1W+gP3Jngjf9wGGCEZMjP3mGCQDo/h1+0d+018OPFui+Cv2zfhLomj6b4lvYtK0jxt4WuTNpgvpDtht7yNnd4DI2FWQ7VLFRtxllAPragAoAKACgAoAKACgDi7P4kxXfxm1f4QDSHWTSvDGneJTf+cCsi3d3eW4h8vbwV+xFt2458zGBjJAMX9oH4p+J/gv4IPxJ0nwjZa9oeiS/afEqS6l9kuLXTQP3k9uCjLNInB8pim4AgNnFAHp1ABQB5H+1f8AGyT9nz4B+KvibY2ou9Xs7dLPRrUjd5+o3Eiw2y7f4gJJA7KOSqNik2krsaV3ZHj/AOzf8Hz8F/hfY+HtTuvt3iXUpJNY8S6izb5L7Vbg77iRn/iAY7FPdUBPJNfnGYYx43EOr06eh99gcKsHQVPr19T1GuI7AoAKACgAoA+c/wBp4X/wW8V+Ef2yPCNuzXvgK4j03xVawj5tU8OXUqxzxkfxPE7q6Z4BJY52gV9Fw9jHSqvDS2lt6/8ABPBz3CKpS9vHeO/p/wAA+8LW+s76xh1O0uo5bS4iWeKZWBR42G4MD6EHOa+zPkj4k8UavrP/AAUN+Jl38M/CGoXVn+zt4Jv1TxVrNrIYz4x1GJgw0+2kHJtUIUu6nngg8xNQB9ReNvib8E/2c/Blm/jbxZ4d8E+H9OtltdPtppUhHlRKFWK3gX55NqgAJGpOB0oA+eW/bE+Onx6c6d+xt+z/AHt7pU3yr488dK+maMo6eZBD/rrlef4SGB6xkUAeS/tRfsK/GLxd8HNe+MXxf+Oer/E/4heEYBrmnaAlqlp4eihhdZLq2itEG52eFGUONjOVUEEnIAPtj9nTVfhh4i+CvhLxV8H/AA1pOgeF9c0yHULXT9NtY4IrdnUeZGyxgL5iOGRjjO5DmgD0igD5L/au8F+JPgv47sP23vhHpU15qHh21XT/AIhaHbDB17w6CN8wHQ3FsAHVj/Agydse1gD6Z8EeNPDPxG8I6R478G6rFqWia7Zx31jdRHiSJxkZHUEdCp5BBBAIIoA+bv28/EGteLtG8GfsneCL97fxF8atX/s29miPz2WgW+JdRuP+/YCYPDK0g6igD6b8OeHtH8JeHtL8K+HrKOz0vRrOHT7G2j+7DBEgSNB7BVA/CgDRoAKAPlj9of8AaH8a2fwu8MfD34YxwP8AF74u3FxonhyG23KunxK7Lc6k+SSkcEQLbjn5yDghWAAPaPgR8GfC3wA+FehfC3wkhe20mD/Sbt1xLf3b/NPcynu8jlmPJwCFHAAoA7+gAoAKACgAoAKACgAoAKACgAoAKACgAoAKACgAoAKACgAoAKACgAoAKACgCG8s7TULSewv7aK5trmNoZoZUDpJGwwysp4IIJBB6g0AfHH7Ol5YfspftD6/+yHrFzAPCvitpPEPw3vncF4kOXuNFlfrui3NJEGOSjE5y6rQB9m0AFABQB8j/tCkfAP9rH4XftKQfuPD3jcf8K08ZsDtjQzMZdNun7DbKrK0h6IqrnmgD64oA+Lron9uv9ogWCD7R8CPgtqublvvW/ivxRGOI/SS2tg3PVWJ/iWQFQD7RoA8Q+Mv7G/wL+NWpr4q1Xw9ceHPGUDeba+LfDFydM1eCXtJ58XEjDt5qvjtigD4l+Bmo/tPWnxi8R/tN6XoF7+0V4T8DyX/AMONI1Ce6hsNaewgnWSW9tIQpjuSWZk35MsoBHHOAD7d+DH7YnwK+N2oN4Y0LxLNoPi+BvLu/CfiS3Om6xbyjrGbeX/WEd/LLgdyKAOV/ay+CHjG+1LR/wBpj4BQpF8W/h9ExitQP3fiXSuWn0ucD724FjGeoc4GCwZADqvhD+158HPjDpvgSbRtbNlqXj221A2em3WFlt76wEBvLCU8bbhBcKwXHzorOvy4yAe2UAfLH7afxh8a2154Y/Zk+DGrrp3jz4lCZrzVFQu/h/QYwRcXuARtdiDHGSRlg+0hgpHNjMVHB0XWn0/FnRhcNLF1VSj1/AvfCn4WeDvgz4G034f+BtOFrpunJgu2DNcyn788zADfI5GS30AwAAPzrE4ipiqjq1Hqz73D0IYamqdNaI66sDYKACgAoA8d/aG+C2peP7TTPiH8NtSGgfFLwO51DwvrMaLlnXJaznz9+CUFlKngFs4ILK3p5XmMsBV1+B7r9TzcywEcbT0+JbP9D3X9l7472P7Rfwb0f4jR2a6dqxL6dr+lgMG03VYCFuLdlb5lw2GUNzsdCeTX6CmpK62Ph2nF2Z6xTEeJftoWs1z+zX4unSwlvbbTX0zVdRtokLtNp1pqNtc3qbR94G2hnBHcZFAHrXhrxL4f8Y6BYeKfCusWmq6RqkC3Nne2kokhniYZDKw4IoA8S/bk1vRYP2etd8F3F1CfEPjWS10HwvY7gbi71aa4iFt5KdWMcm2UkfdEZPGKAPoCgAoAKACgAoAKAMjxh4W0rxz4S1vwVronOm+INOudLvBBKYpPIniaOTY68o21zhhyDzQB8fRf8EqP2dovHV7rNxqPig6DNpNra29gPEF0tzHeJNO0szT78tGyPCqx4wpjc/xUAX9b/YE/Ym+EGkXfxU8b6f4gudE8JRnWLwalr19e26JB8+97dGJlC7c7MMDjBBHFAH2TQAUAfHv7ejL4j+I37OXwwunL2Gs+OpdcubcnCTjTLUyqH7kAy/dxtOecYFcGaVHSwdSS7fnoduXQVTFQi+/5anq9fnJ98FABQAUAFABQByfxa8L2fjb4XeLvCF/CssGsaJe2bK3HLwsAc4JBBIIIGQQDW2GqOlWhNdGjHEQVWlKD6pnwFq37eEPxA+AXwp/ZdsPEniGwt20C00/x5qmj2TXOsX0MQMaaVp8YPzzTRIm+VmC4baxyXRv08/Oj6s+H2jftmeP/AAZpPw8+CHw70P8AZf8AhbptuttZ3OsRDUfEkkHd1tThIZGJZn87bJuJbzCTkgHqvww/YE+BXgfXB478cwar8U/HDkPN4j8b3R1KYyDnMcT/ALqMA8r8rMvGGoA+klVUUIihVUYAAwAKABlV1KOoZWGCCMgj0oA+Qf2QWb4D/Gz4ofsbaixi0rT7k+OfASueG0S9k/f28ef4YLg7fUs0h6CgD6/oAZLFFPE8M0ayRyKVdGGVZTwQQeooA+Nvh/LL+xD8fl+DGrTGH4K/FfUJbrwPcyN+58O65Id02ksx4SGYktCOm7AGT5jAA0P2Vgv7QH7QXxM/a9vCbjQrWVvAHw/ZuU/sy1fN3eR54Inn5VhggCRTQB9eUAFAGN4x8XeHfAHhTV/G3i3U4tO0XQ7OW/vrqU/LFDGpZj6k4HAHJOAMk0AfMP7F/gq/+Jmv61+2h470aLT7/wAawHTfBOjBVC+H/DSSMY1UL8qy3D5lkI9cjG9loA+t6ACgAoAKACgAoAKACgAoAKACgAoAKACgAoAKACgAoAKACgAoAKACgAoAKACgAoA+fP2j/wBmW9+NnhvxPJperQaR4qt7vT9e8E6xExE+mavZRny3Y4+VHPyNjd8rbsZVaAOg/ZW+PX/C/fhfHrWtab/Y/jLw/dy6D4v0Vxtk07V7c7ZkK9QjH5168NjJKmgD2OgAoA80/aT+Dlh8ffgd4v8AhRe7El1zTnWxmbgW99GRJbS57BZkjJx1GR3oA+P7b9rX4hftAfBH4e/s6fDC8ltPjZ42t59C8Z3bA+Z4VtLJzb6jqE2D8kkmwmIZBzIcEOEBAPtv4R/Crwd8Evhzofwv8BaeLPRdBtRbwKcF5WyWkmkI+9I7lnY92Y9OlAHYUAeBftufFvWfhV8CNQtfBe+Txv44uoPB/hSCJsSvqV8TGrp6GNPMkB6bkUHrQB3/AMBfhJo3wJ+DvhP4S6Fsa38OabHayTKuPtFwcvPOR6yStI//AAKgCj8Zf2bfgl8f9PWz+Knw/wBN1eeFdtrqIUwX9pg5BhuYysqYPOA20kcg0AeK/wDCpv2x/wBnP9/8D/iXF8ZPB9vyPCHjy4EWrwxD+C01VQA7dABOAigcAmgD81P27fGejWfxa0f4m/D7wr45+Enju6v21bxF4W1aza1+xavFs8vVLKVf3cqzfNudNu5og5Hz0AfW+hf8FcfDlz+zToXiTV/s0fxSh1/TNF1nTdm2OS281ZLnUEUceU8EcqYHKSyAY27SwB3X7P10vxW+Ovxv/aLu4zLHf+Iz4M8PSyZPl6XpirGxiz92OaXEhHdkJwD1+Q4kxDlUhQWyV36v+vxPqsgoWpyrPd6fd/X4H0LXzJ9CFABQAUAFABQB4t+z/cL8J/25PiF8OYkNvonxY8OW3jSwiXiFNUtZDb3gUdpJVfznOOcDJ6Cvu8hxDrYRRe8Xb5dP8vkfF51Q9jinJbS1/wA/8z7Ur2jyBskccsbRSoro4KsrDIIPUEd6APhzx5+wd8C7fxPqOqfB79pvxT8GJL6d5b7RvDvihILBZSfmKW+9GiJP8O7aOAqqBigDqv2TP2W/2f8Aw14y174l6P488UfFXxv4T1OTw9P4l8UX5vDZXH2aGd1s/wCHBiuo8yZdvmdQw+YUAfXdABQAUAFABQAUAFAHzN8ev2Nf2evjv8ZB8SfjvcW2prD4ZstD0/SZNQmsGtzDdXcz3PmxToZBJ9pCbCuF8okMdxAAPnT9pb9h39gT4TfDO++I+i6RbRX2hPFcQaN/wld1KNcJkVTZBTOZd8gYhGiZSr7WO5QykA/SSgAoA+PP21wNI/aI/Zf8YyfKlt4h13RN5PG6/sEjUYPHJj9c+gNebnEOfA1F5fk0z0MqlyYyD8/zVj1ivzw+7CgAoAKACgAoAyfF2sp4c8Ka14hkkEaaXp9zes5x8ojjZyeeP4e/FXShzzUe7IqS5IOXZH5ofsbar8c/2RvF3hHXNE+HOi+MNJ+K3hseINOsDaxxapqMMeftFvYXbIH+1RKPNFsSUlRhtHmMmf1I/Nz9avgf+0D8Lv2hfC7eJ/htr4uTauIdS0y5TyNQ0u45Bgurc/NE4IYd1baSpYc0AejUAFABQB8lft36VqPw4ufh9+2L4Vs5ZdS+EmrrHr0UA+e88OXrCG8jI/iKblZc8Ludu1AH1VpOq6dr2lWWuaPeRXdhqNvHd2txEcpNDIoZHU9wVII+tAFugD5R/wCClF7pGqfs9xfCddDt9Z8WfEnX9O8PeE7STIaLUXnVhdBh8yCJFclxwNwVvlYggDv2CfGf/CNeDr/9krxnolloHj34OH+z7uztgVh1TT3YvBqkAbllm37nPZ3BIXzAoAPqygAoA+PPjhNL+11+0DY/ss6JM8vw48AS2+v/ABPuoWPl31yDvstF3DruZfMlGei9Q0eCAfUHw98NXHg/wdp3hu6Nt5lksi/6NnywpkZlC5A4AYDoKAOjoAKACgAoAKACgAoAKACgAoAKACgAoAKACgAoAKACgAoAKACgAoAKACgAoAKACgDn9F8QXuo+LPEegzxQrb6R9j8hkUh282Is24k4PI4wB+NAHy/+0BZ3X7KPx10/9rvw1bzDwN4te28PfFWxgQlIkJCWeshR/FEzCOQjkqwAGXZgAfXVneWmoWkF/YXMVzbXMazQzROHSSNhlWVhwQQQQR1BoAmoA84/aD+OXhX9nf4Wat8TfFSvcC0C2+nadCf3+p38nEFrEOSXdvQHaoZsYU0AfG/7IXhnx/8As8/tXXMXx4sdLh8R/tKaBP4pjnt7cRiw1mC5luLnSUb/AGYLhXfBILIg+bG4gH6H0AFAHyLZf8ZHft43OoH/AEjwV+znYG0g7xXPim/X943o3kQLtI6pIoP8VAH11QAUAecfHv4geNfhz8PrvWvh54X0nWtflYW9mus6zb6Zp9s7dJrmWZ1JjXrsjy7HCgrkuoB/P7+1Pqvxj8QfFi/8QfHDx1ofinxDeji60bxBZapaQwqTtijFpI626Lk4iIQ8liMkkgHkFAH7Tf8ABOhkuP2UPDOqNcCa71K/1a7vGx83nG/nB3HqxKqpyeeR6V8Dnrbx07+X5I+2yZJYONvP82fS9eQeqFABQAUAFABQB4b4lZrT9vr9nuaxG6W/0fxba3wU7SlulkskbMf4wZOAvY819Zwy3y1F6fqfL8Qpc1N+v6H27X1J84eMftj2+pXn7NvjO00zxDcaIJ4rOO9vba5EE6ae15AL1IWJH717YzoijlndVAJYCgDwjw5+yx/wSm1LRbS90a0+HN/aSxK0dw/jaZ3cY6sWu8hvUEAg5GB0oA94/Ze0b9nbwx4Z8VeFP2atJs7Hw/o3iaW11MWVzJcW82pmztJHkjleR96+TJbLlTjKkYyDQB7NQAUAFABQAUAFABQB8fftkfCL9jKLxwnx7/bE1exl01tAtPDWj6XPLeRTCWC5up5JYRZyiWcsLtVK7CEEYJYbuADzH9mWb/gkh4q+J2lW3wd8M6RZ+NIrhZNIg15dSzLOpyhgF67QtKCAVA+fIBUZFAH6H0AFAHzn+318MPEHxI/Z01PUfBNmbnxb4D1Cz8aaAiglzdWEm9wgHJcwGdVUclio71FSCqQcJbNWKhN05Kcd1qV/hd8RfD3xb+H2g/EfwtOJNN16zS6jUsC0LHiSJ8cb0cMjD+8pr8zxFCWGqypT3R+h0K0cRTVWGzOprE2CgAoAKACgD5+/bP8AEWrXXw3s/gd4J/f+NPi9fx+FdHtlYgrDIy/bLiTHIhSEsHb+HzATxmvYyPCvEYpT6R1/y/H8jyc5xKoYZx6y0/z/AK8z3D46fstaT8Qf2ftG+Fvga8/sLX/h9BY3XgTV1+WTTNQsI1W2bcOisECPweG3YJUV96fFHi3gfwJpv7W3haH4/fDbVZ/g5+0d4Snl0HxRc2EYCHVbYhZrTUrX7tzbybVZWYFgpUZfyylAHp3wn/a21G28Z2vwK/am8LwfDn4mS/Jp04kLaF4mHAEunXLcbmJH7hzvBYLktlVAPpegAoAyvFfhjRPG3hfV/B3iSyW80nXLGfTr63bpLBMhSRfxVjQB80/sB+J9b0Hwn4s/Zb8c3rT+KPghrDaEkknD3miy5k025A/umLKgDoqR55NAH1XQB8g+A2P7SP7cniX4kSr9o8F/AC2l8J6ATzFP4iuQDqE69t0UYEJH/XNhQB0v7X/wg8ZPcaF+098DLMN8UPhkHmFmgIHiPRjk3WmSgcuSu5o+pDbgoDMGUA9i+C/xf8G/Hf4aaH8U/Al6Z9K1u38wI+BLbTA7ZYJQPuyRuGVh0yMjIIJAOM/ax+PN38C/hqkvhPTxq/j7xbeR+HvBmjqAz3mqTnajFe8ced7k4HAUkbgaAL37L3wGtf2e/hVaeErnUDq3iXU7iXWfFOtOS0mqavcHdcTsx5IzhFzztRc8kkgHeeAfEF74p8J2OvahFDHcXXm71hUhBtlZRgEk9FHegDoKACgAoAKACgAoAKACgAoAKACgAoAKACgAoAKACgAoAKACgAoAKACgAoAKACgAoApWv9jf2lffYvsX9ofuvt3lbPO+7+783Hzfdzt3dulAEPifw1oXjPw5qfhHxRpkOo6RrNpLY31pMMpPBIpV0PsQSKAPl/8AZI8Ta98FfHOtfsQ/EvUprq68LW7ar8PtWuW51nw0zkJFnvNbHMbAfwj5RtjyQD6vuLi3s7eW7u544IIEaSWWRgqIgGSzE8AADJJoA+OfhTbXX7aPx7H7ReuwyN8IfhreTWHw4sZlIj1rVEbZca06H7yIwKQ5HBUEbWRwwB237e/gLXtc+DEPxW8Bw58a/CDVIPG+iMo5kW1ObqA45KPB5hKD7xjQUAe3/DXx9oPxT+H/AId+I/hibzNL8S6bb6na5ILKkqBtjY6MpJVh2KkdqAOc/aL+MemfAL4KeLfizqYSQ6Fp7vZwOeLm9ciO2h9fnmeNTjoCT2oA5T9jD4Oan8GPgLo2meKzJL4x8SyzeKPFdxKP3s2rXpEs3merICkRPfy896APc6ACgDnvHvgrwN8QPCt94Y+I/hzSdb0C4jY3VrqcCSwBQD853cKVGSHGCvUEHmgD+ff9s7w9+yj4a+KU+nfsp+JNc1TSY3lXUY7lPM063mBACWVy586aMfMCXUjgFZJA3AB4FFFLcSpBBE8kkjBERFJZmJwAAOpJoA/ZP9gTQvEfwr8MePv2cPHE1u3iP4ZeKZLef7NIzwvaXUSTQSxlgG2SETOuVXgjIzmviuI6PJiY1Okl+K/pH12Q1efDun2f5/0z6or5890KACgAoAKACgDxPwFBL8RP+Ch32i0QPp3wj8But3Kfm2alqko8uPHRSbZS2RgnBHSvteHaLhhnUf2n+X/BufIZ9VU8Qqa+yvz/AKR9r19AeGee/H34W+FfjN8KtW+H3jjUY7HQLu40++1GWXb5Zgs72C7dJCxACOLfYxyMKxPagD5yf4Of8En42KO/wLVlOCD4qtQQf/AigD0D9nf4qfsVeEhrXwv+BnizwJ4bij8T/YV02DXLRf7X1CW3tcTWa+czXCuHhhDL1kidAMryAfR9ABQAUAFABQAUAFAHx78dfGX7Pvw7/bV8MeJ/2hPEPhqK2n8Biz8Opq7xzJpV8L+Z5bhoWyYfPj2olwVC5tpE3gkBgDmf2wvjf+xh8UPhc/hDQvin8OL7xpfXdovhnVLW/tt+jXizowvGuwcWyRKrO2XBcKUUMzBSAfR3gf8Aak+C/wAT/ifD8Lfhn410nxZevoN3r895o2oQXVtaxQXFtB5UpRyyyObpWUYwQj88DIB61QAUAfAnjbQr/wDYO+J17rkcF3c/s/8Aj/U2upnihMn/AAhWsTt827byLKZjwcYQ4UYI/e+FnOV/XI+1pfGvxX+fY9nKsy+qS9lU+B/g/wDI+iNO1HT9Y0+21bSb6C8sryJJ7e4gkEkU0TAFXRhwykEEEcEGviJRcW4yVmj7FNSV1sWKQwoAKAOR+KfxV8DfBnwdeeOfiBrUenabajaoPMtzMQSsMKdZJGwcKPQk4AJG+Hw1TFVFTpK7Ma+Ip4aDqVHZHO/sl/B7xz428cz/ALX3x20u40rX9Tsn0/wV4XnTafDmjSHPmSg8/a5xy2cFVZlON2yP9BwGChgKKpx36vuz4bG4yeNqupLbouyPruu04z4//aAs7r9lH466f+134at5h4G8WvbeHvirYwISkSEhLPWQo/iiZhHIRyVYADLswAPoj4m/Cn4WftA+A38J/ELw9p3iXw/qUa3Fu5OShZcpPbzId0b4OVdCDg9SCQQD5tHiT4/fsNEW3j2XW/jB8DLc7YfEMaef4k8KwdheoP8Aj8tkH/LVfmUAk7QEQgH1X4E8feC/id4WsPG3w/8AEthr2h6lH5lte2UoeNx3B7qwPDKwDKQQQCCKAN+gD4//AGkv+Mef2pvhn+1Pa/6P4b8WFfhz47YcRpHO2/T7x+w8uVcM56IiqPvUAexftY/GtvgD8B/E3xBsE8/XBCuneH7UJva51W5PlWyKn8eHYOVHJVGoAT9k34Kt8AvgL4Y+H9+/na4IDqXiC5Zt73Oq3J825dn/AI8OxQMeSqLQB6/QB8WeJnH7CH7QMnjyNjbfAn4xamF1+JR+48K+JHHyXgHRLe4xh+ykZJASNSAav7N2n337UHxm1P8AbM8XWk6eFtI+0eH/AIUadcoV8uxBKXWrFD0kuGDKpOCEDA5ARqAPr6gClo39jf2bD/wj/wBi/s/5vJ+x7PJ+8d23Z8v3s5x3zQBdoAKACgAoAKACgAoAKACgAoAKACgAoAKACgAoAKACgAoAKACgAoAKACgAoAKACgDn9F8P3uneLPEevTywtb6v9j8hUYl18qIq24EYHJ4wT+FAHQUAeAftg/BLxH8SfB+l/EX4VSCz+Kvwyum17wjdqOZ5FA8+wf8AvRXEa7CpIBbZk7d2QDwfxR+0Tdft7aV4O/Z3+C0moaLbeLNOTVfirqCArL4d0xJDHPpYYj/j4nlR4xkcx4YqUdtoB9w+EvCnh7wL4Y0rwb4T0qDTdG0W0isbG0hGEhhjUKqjueB1PJOSck0Aac0MNzDJb3ESSxSqUdHUMrKRggg8EEdqAPk39iieb4Q+N/ih+xxq0jrH4D1ZvEHhASH/AFvhzUXMsaJ/e8mZmR2/vSY7UARfHr/jIX9rf4c/s323+keF/h2qfEbxso5jknQ7NMs37El2MjIcho3B/hoA+uqACgDz740/Hj4XfADwt/wlfxO8SxadDMxhsbONTLe6jPxiG2gX55XJIGAMDILFRzQB4BH8Pfj9+2e66j8bV1T4UfB2Zt9v4Fs7gxa74gh6qdVuE5tomHW2TDckNgqr0AZv7fWmeBfBv7MFl+yp8K/h9ZzeIfiFcwaN4O8MaVbRptaGaOee629FWNVJaQ87pAWOCzAA+Qfj/wD8E2v+FC+MfgBqXhKefWNM1zXdD8MeLJ2O5F1ia7QeeobGyCXe6Kp4XylBJL0AfXX7XOh3f7Pfxr0L9sHQ7K5fwrrFvF4X+JkNtC0nlW2QLLVGVckmJtsTNgnZsUD5ia8zNcD9ew7jH4lqv8vmehlmM+p11KXwvR/5/I9j07UdP1jT7bVtJvoLyyvIknt7iCQSRTRMAVdGHDKQQQRwQa/PpRcW4yVmj7pNSV1sWKQwoAKACgDh/jP8XfCvwQ+H+o+PvFdx+6tVEVnaIczX92/EVtEoyWd244BwNzHAUkdGEwtTGVVSp9fwXc58TiYYWk6s+n4+Rr/sP/BbxJ8MvhpqHjv4m25T4k/FDUG8TeKN6bXtWkB+z2IB5VYI2xsP3WeQDjFfpFGlGhTVKGy0PgKtWVabqT3Z9GVqZnj37Q3hNfj98B/FngnwFfaPrtxLdxW8tqdQ2W11NYahFJdabNNHuMRf7PLbScZQu2RwaAOd8I/sb/syat4Y0zUvFH7J3gPw/q1zbJJeaW1jbXZs5SPmi85F2yYP8Q4NAHPfAj9kL9n7w146+IHiOP4Z/Dy7vtJ8fLe+H5NPt4Zp9BSLT9OeKBsDNtKk4knEfUCZH/joA+pKACgAoAKACgAoAKAPnb9oHwz+x54U8dr8Zv2nbnwVLdalolt4d0+08WWdneQrFa3FxOZLWGWJ5fMLXhEjLkbVjyB1IB4h40+Pn/BJ7w14T1fxBoXgT4LeI9Q0+0kuLbSbTwZaRzX0ijKwoz2u0Mx4BPFAH1P4R/Zp+DPw8+JkHxS+HXgXRfCWoxaFd6BLaaFpdpYWt1DcXFtOZJkhiVnkVrVApLYCu4wcggA9RoAKAKer6RpXiDS7rRNd0y11HTr6Fre6tLqFZYZ4mGGR0YEMpHBBGKAPjXXP2RvjX+z3d3OufsfeK7TWPCrzyXM3wz8UTkW0W9tzLpt6fmgJJO1JTsySzM3ArzMdlWHx3vSVpd1+vc9DB5nXwfuxd49n+nYw5/2udR8Eytp/x2/Z1+KHgC9i5ecaO2q6awH3jHeW2VkCjJOF6DPtXztbh3Ewf7tqS+7+vvPfpZ9h5r94nF/f/X3EK/8ABQH9ma4b7LpniXxBqOoLw+n2vhjUWuEY/dUqYQMt25/KuZZFjm7cv4r/ADN3nODSvzfgyzB8fvjx8Uw1l+zr+yv4vvVlISPxB40RdD0uPJ/1wWRvNuEHdU2secdOe/D8N1JO9eaS7LV/195xV8/ppWoxu/P+v8j0j4P/ALFl7b+NdP8AjP8AtOeOl+JXjzTlZ9LsltxFoPh92IJNnbkZdxgATSAMcK20MAw+mwuDo4OPJRVvzZ89icVVxcuaq7/ofU9dJzhQBmeJ/DWheM/Dmp+EfFGmQ6jpGs2ktjfWkwyk8EilXQ+xBIoA+X/2SPE2vfBXxzrX7EPxL1Ka6uvC1u2q/D7VrludZ8NM5CRZ7zWxzGwH8I+UbY8kA+smVXUo6hlYYIIyCKAPlPx5+yn41+E/im/+M37FWsWfhjXLx/tOueBLw7fDniQjriMECzuCOFkTaucA7AXYgHefAH9q/wAGfGq/vPAmt6TfeBfibogxrXgrXP3d7bkDJkgJAFzAeokT+EqSFDLkA7D9oD4Q6P8AHr4NeLfhJrWxIvEWnSW8EzrkW90uHt5sf7Eyxv77cUAfDf7O3i/x3+2R8WfhZ4H+JGl3dvbfs3WMl/42juQSLzxZDPLZ2Qf1dUtzc56bjMvpQB+ktABQB8g/tc6hfftHfELR/wBhnwVcMlrqS2/iH4k6pEFY6VokUqyRWykghbm4kWMr3VQrEFWJABc/Y98c+JfhZ4j1H9iL4v3av4i8CWa3HgzVXURr4i8MglYHQdPNgAEbqOy/xbHYgH1lQBz/AIB8P3vhbwnY6DqEsMlxa+bvaFiUO6VmGCQD0YdqAOgoAKACgAoAKACgAoAKACgAoA8f/ag/ag8A/smeANP+I3xG0jxBqOm6jrEWiRRaJbwzTrPJDNMrMs0sShNtu4JDE5K8dSAD0D4e+NdK+JXgDw18RtCt7uDTfFWj2Wt2cV2irPHBcwpNGsiqzKHCuAQGYZzgnrQB5/8AtQftQeAf2TPAGn/Eb4jaR4g1HTdR1iLRIotEt4Zp1nkhmmVmWaWJQm23cEhicleOpAB6B8PfGulfErwB4a+I2hW93BpvirR7LW7OK7RVnjguYUmjWRVZlDhXAIDMM5wT1oA8/wD2oP2oPAP7JngDT/iN8RtI8Qajpuo6xFokUWiW8M06zyQzTKzLNLEoTbbuCQxOSvHUgA9A+HvjXSviV4A8NfEbQre7g03xVo9lrdnFdoqzxwXMKTRrIqsyhwrgEBmGc4J60Aef/tQftQeAf2TPAGn/ABG+I2keINR03UdYi0SKLRLeGadZ5IZplZlmliUJtt3BIYnJXjqQAegfD3xrpXxK8AeGviNoVvdwab4q0ey1uziu0VZ44LmFJo1kVWZQ4VwCAzDOcE9aAOgoAKACgAoAKACgAoAKACgDn9F8QXuo+LPEegzxQrb6R9j8hkUh282Is24k4PI4wB+NAHQUAeOftTfH6P4A/Dgalo2m/wBt+NvEl0mh+DtBj+aXU9Vm+WJdoIJjQkO5yOBjILLkA+WPhn4F8a/8E9fiT4e8b/ErxUfEPhb42SRWPxD1dkVU0jxZJNNLBdbgBttHM8kJJwAQXbHypQB+hVABQB8h/tpzv8CviT8Mf2z7C2mNh4UvD4T8bi3Tc83h+/bCSMO4guCrKuRl5VoA2/2B/COu3ngHxD+0d47tDD4u+N+rt4ouEflrXS+U021B7okHzL/sygHpQB9Q0AfMvxL/AGttW13xdefBX9kzwtb/ABG8fWx8rU9TeQr4d8NE5G++ul4dxg/uIiWJVhkMu0gGx8Fv2StL8G+KR8ZPjL4pufid8WrhMSeItUjAt9MByfI021/1drGMkBlG85Y5UMVoA9s8WeKvD/gbwxqvjLxZqkOm6NotpLfX13McJDDGpZ2Pc8DoOSeBzQB8yfsleFdf+MvjjWf23fifpk9pe+K7Y6X4A0i6HzaJ4aViUkx0E1ycyMw/hbg7ZNoAPqi/02w1SFLfUrOG5ijniuUSVAwWWKRZI3APRldVYHsQDQAzV9I0vxBpV5oWt6fBfadqNvJa3drcIHinhdSro6ngqVJBB7GgD4Q13wT8Tv2DtQlk0PTNZ8f/ALP9zcSSpDao11rHgred23by1xZA7ueqDliCP3vhZpk0cZerS0n+D/4Pmezluaywn7urrD8V/wAA9n+HXxR+H3xb8PReKfhx4s0/XtNkxuktZctCxGdksZw8T4/hcBvavja+Hq4aXJVjZn1lGvTxEeek7o6msTYKAPLvi/8AtI/C74MGHS/EOrS6l4lvSE07wzo8RvNVvZGHyKlumWUN2Z9qnsSeK7cHl2Ixr/dR07vY48VjqGDX7x69upX+BH7OfxJ+KPj7SP2k/wBqezj0+70nNx4L+H8b+Zb+H9xyt1dnpNe7dvYBDyQGCrH9zgMvpYCHLDVvd9/+AfG43HVMbPmlolsux9iV3nEFAH59fFv9lbxf8MPBXxJ+MWrftL/GDw3cap4y1XUtM8PeEvGT6fpKnVdZZLEMPKPlFmu4TMwDYJcjdjkA7nTv+CfPxGTQo4dX/b5/aGm1nygJLm28VTx2vm46iFnZ9ue3mZ96AOx/YK8HT+APA3xD8H614113xd4m0r4haja+Ita1e9N1JfXqWlmqSo7DeEa2W1Ox2dkcum9goNAH03QAUAFABQAUAFABQB8MftU/EP8AZh+Ev7Z3hTxt+0bfaXqdrP4BOm2umXukS6h/ZErahK8eo+T5ToyyBZ4SybpUMS/JtcsoBj/GT9rz/gmZrfwo8V6VYyeFtenvNJuIotL03w7cadd3jMhAiiuTaAQO3QOSNp5oA+/6ACgAoAKACgAoAKACgAoAKACgAoA8A/bB+CXiP4k+D9L+IvwqkFn8VfhldNr3hG7UczyKB59g/wDeiuI12FSQC2zJ27sgHcfs9/G3w3+0L8J9E+KHhxDb/wBoRmLULCQ/vdOv4/luLWQHBDI4I5AypVsYYUAej0AeRfH/APZi+G/7Qun2c3iKO80XxTorCbQfFejS/ZtW0mYHKtFMvJTPJjbKnqMNhgAeD6h+1b8Yv2P9Pv8Awx+2H4cm8SaZa2s58NfEXQLM/ZdalSNmitL6FQfsl1IVChvuEn+6rSEA8q/ZAj+IH7Onxr8FeLvinqy3Vl+1npE2s6hMABFZeJfPlvLeHPO0PbXSoF6mRyBwlAH6VUAeY/tH/HLQ/wBnj4S6v8SNWtzfXkIWz0bS48mXVNTm+W2tY1HzEs/JwCQiu2DigDlf2QvgZrfwk8CX3ir4kXI1H4ofEO7/AOEg8Z6g2CftbgmO0QjgRW6N5aqDtB3lcAgAAi/a7+AWtfFrwppfjn4YXa6V8V/hzcnW/B2pAhd8ygGWxlJ4aGdV2EN8udufl3AgHUfs0fH3Qv2jPhbZeOtOtH03VreR9N8Q6NMCs+k6rDgXFtIp5GG5UkAlWUkA5AAO18A+IL3xT4Tsde1CKGO4uvN3rCpCDbKyjAJJ6KO9AHQUAFABQAUAFABQAUAFABQAUAc/41+HvgH4laVFoXxG8D+H/FWmwXC3cVnremQ30Ec6qyrKscysocK7qGAzh2Hc0Aauk6TpWgaVZaFoWmWmnabp1vHaWdnaQrDBbQRqFjijjUBURVAUKAAAABQBleNfh74B+JWlRaF8RvA/h/xVpsFwt3FZ63pkN9BHOqsqyrHMrKHCu6hgM4dh3NAGrpOk6VoGlWWhaFplpp2m6dbx2lnZ2kKwwW0EahY4o41AVEVQFCgAAAAUAZXjX4e+AfiVpUWhfEbwP4f8VabBcLdxWet6ZDfQRzqrKsqxzKyhwruoYDOHYdzQBq6TpOlaBpVloWhaZaadpunW8dpZ2dpCsMFtBGoWOKONQFRFUBQoAAAAFAGV41+HvgH4laVFoXxG8D+H/FWmwXC3cVnremQ30Ec6qyrKscysocK7qGAzh2Hc0Aauk6TpWgaVZaFoWmWmnabp1vHaWdnaQrDBbQRqFjijjUBURVAUKAAAABQBboAKACgAoAKACgAoAKACgCla/wBjf2lffYvsX9ofuvt3lbPO+7+783Hzfdzt3dulAEXiTxFofhDw/qXirxNqcGnaRpFrLe313O22OCCNSzux9AoJoA+Vv2Z/DmuftI/FK4/bY+Jmk3FppQhk0v4VaHeLg6fpLZEmpunQT3XOD2jPBZTGQAfSHxV+GXhT4yfDvX/hh43sftWi+IrN7O5UY3pnlJUJ6OjhXU9mUHtQB4f+xt8TPFlmfEP7LHxjv/P+IfwoMdtHeycHXtCbAstRTPLHZtSTqQ23cdzEAA+m6APkL9vOTUfjFqHgD9izwtfm2vvihqI1LxHcxqHaw8P2DCaWQjsXlRAhJwWjZe9ADf2X/wBp/wAHfDr9lYxftAeKrDw3q/wevp/AOvrcN+8lubH5IBDGB5kzSQCMjYpLFZCOATQA37F+0N+2x82rrrfwX+CF0OLJW8nxV4ptz/z1PIsLZx1UZdlyDuVwVAPpj4a/C/4f/B7wjZ+BPhp4VsPD+h2IxFa2keAzYAMjsctJIcDc7kse5NAHU0AfHvxyuJ/2u/jxbfspaBcyn4deBpLbXfijewMQl7MGD2eiBh3Zl8yUA8BeCGQggH19b29vZ28VpaQRwQQIscUUahURAMBVA4AAGABQBJQAUAFAHzn8T/2Bv2dPiR4guPG2naHqvgPxbcks+v8AgvUpNJui5OS5SPMLOTyXMZYnqTUTpwqLlmk15lQnKm+aDs/I4l/2KP2hNJGzwZ+3d4vtUT/VjW/Cthq7Dt8zOybvlx+OW71wTyfBT3pr8V+TO6Oa4yG03+D/ADHL+wZ8Q/EYFr8Tv20fifrFg5xPbaHBa6H5yf3GaIOcEls+oIHGM1dPK8HSd401+f5kTzHFVFaU3+X5HsnwT/ZQ+Af7Pkk998Mvh/aWer3YIutavJZL3UZ8/ezczMzqG6lEKqTztruSSVkcbberPXKYgoAKAOW+KHw28KfGD4fa78M/G9m9zoniG0a0ukjfZIoyGWRG/hdHVXU4OGUHBoA+VB+yJ+23pJHhfw1/wUD1iPwoo8qJ7/wzBc6pFD0Cm4Zt7uBxv3qT1wOlAHu/7M3gP4bfCzwVq/w2+HviTUPEF34e124h8U6pqTu97ea5NFDczy3EjACSRo7iBsrkBSq5JU0Aeu0AFABQAUAFABQBw/xo+LPh/wCB/wAPL34leKo2bSdPvdNtLpxKkYhW7voLTzmZyFCRm4DsT/CjUAeO3vxs/YL1P4mS/FvVPjl8Nb3xFLoUXhwyXPiG1lhFlHcSXCqI2YqG8yVzu64OOlAGD8cf2jP2Cr34P+MbTUvG3w68TWs2j3KTaPomrWcd/foUOYbdkYMJG6KQQc0AfXFABQAUAFABQAUAFABQAUAFABQAUAFAHxz4wH/DGP7TS/E2AfZvg/8AG2/isPE6LxDoPiZsiDUD2SK4GVlbgbssx4RaAPsagAoA+P8A9q5Y/wBob9oD4bfsdWwNxoEDDx98QFQ/KdLtXK2tnJjtNOQGXggeWwoA8X/aw/Yk+NPwz+HVyn7LWtah4g8E6RqkPifT/Bl3K1xf+GNRt3MiXejTNl2XBkDW5JJDsVDuQVAPsb9lz9pbwJ+058KtK8c+F9asX1VbSFdf0qOUCbS70r+8jdD8wTeH2ORh1GQeuADxz4bhv2yf2k5fjjeL5/wl+D95PpPgeJuYdb10Hbdarjo8cWAkTcjIDKQwcUAfYtABQB8a/HrTdS/ZA+Nyftc+DLGaT4eeL5LfS/ivpNrGSIGLbLbW40H8aM+2TAywPQmRmUA+tvDN74a1LQbLUfB9zp1xo11EJrObTmRraSNjndGU+Ugkk5HvQBqUAFABQAUAFABQAUAFABQAUAFABQAUAFABQAUAFABQAUAFABQAUAFABQAUAFABQBz+i+H73TvFniPXp5YWt9X+x+QqMS6+VEVbcCMDk8YJ/CgD5Y+M17dftk/HI/sueGL2Zfhf4BuINS+KGpW7kLqN2rbrbQ0df9pN82DxtxlWTDAH2DZ2dpp1nBp+n2sVta2sawwQwoEjijUYVVUcAAAAAcACgCagD5j/AGyvhp4ssv8AhHv2p/g5p5uPiH8KWe5kso8g69oTZN7pz45Y7C0kfUhg20bmBAB7f8MPij4O+Lvw40T4qeDdTS40DXbFb6CZyFMS8h0k5wrxsGRxnhlYdqAPzu+EP7Ud58Q/2ifil8X/AIR+Bbz4k/EvxTIvhXwRpMZMVhoPhm1cD7fqFyflt4p5gJfKzvLIQNokRiAb/h34DX/wT/bl8A/Ev9pu48O+OtV+MNreQJqMOliDT9D8UQiNoEt4zwwMCLDHI6+Yz5fhsmgD9H6ACgDxP9rH483nwO+HUMXg+w/tb4h+MrtfD/gvR1AZ7vU5vlWRlP8Ayyi3CRycLwqkjcDQBpfsxfAay/Z7+Flr4Sl1A6v4j1KeTWfFGtSEtLqurz4a4uGY8kbvlXPO1VzzkkA9aoAKACgAoAKACgAoAKACgAoAKAPI/wBrJfGT/s9+LovAmtaho+qSxWsUmoadn7XaWLXcK3s0G35vNW0Nwy7fm3AbecUAeFaN/wAE4P2GPEmmW+t2s+qeJI7tBKNV/wCE1uZzd5GfMLxyhGz1yABQB7b+zD8N/gP8I/Dfiv4e/AL7QunaT4mlTXIp7m5uGi1ZrO0Z1Ek/Lj7O1qcoSnOM7gwAB7JQAUAFABQAUAFAHD/Gn4TeH/jh8O734aeKZGXStRvdNu7pREsgmS0voLvyWVgQUkNuEYH+F2oA5D/hjD9kr/o3D4d/+E/bf/E0AYXjz9gr9ljxl4M1rwppvwX8HeHLrVrKW0h1bTNCtku7F3XAmibbw69QfWgD6EoAKACgAoAKACgD5V+AXx9/an8e/tT/ABH+FvxS+Cv/AAjnw28Of2x/wjniP/hHNRs/7S+z6jFBa/6VPI1vN5lu8kn7tRu27lwoIoA+qqACgAoAKACgAoA5T4q/DLwp8ZPh3r/ww8b2P2rRfEVm9ncqMb0zykqE9HRwrqezKD2oA8P/AGNviZ4ssz4h/ZY+Md/5/wAQ/hQY7aO9k4OvaE2BZaimeWOzaknUhtu47mIAB9FeI/EOj+EvD2qeKvEN7HZ6Xo1nNqF9cyfdhgiQvI59gqk/hQB8x/sFaBq/jHR/GX7WnjawaDxH8aNXbULKKUZex0C3zDp9uPT5FL5HDKYz2oA+raAPx0+Nv7OPiPwj+2h4h+AfwNnvPDnij4p3I13QNbsNVezgstCvILr+17S8jTJkiWSBjEgAIC5BJKigD7L/AGXfj5o3wfh8N/shfHPwHb/CjxhodpHp2hYkLaJ4ljXjz7G6bgyyOSzRud5d+pclVAPsCgAoAoa9oWj+KNE1Dw14i02DUNL1W2ls720nTdHPBIpV42HcFSQfrQB8e/ssa14m/ZT+Jw/Yo+K16s2ianHcav8AC/W2kLR3NruL3GlM7AZmhYsygjJUnoGjWgD7RoAKACgAoAKACgAoAKACgAoAKACgAoAKACgAoAKACgAoAKACgAoAKACgAoAKACgD5h/ae/aS8Y+CL25+Cvwssba/+KHjW5ttG8G26qc23mwl7rUbgnIEVsp3524zjIKhiAD1L9nX4F+Hf2d/hZpnw60Kd765jLXusarMMz6rqUvzXF3KxySzt0ySQoVcnbQB6ZQAUAc94++IPgn4W+Fb7xv8Q/E9hoGh6cm+4vb2UIi+ijuzk8KigsxwACeKAPx7+JnxB+OGl3t/8LP2dNO8Q+Avg1+0X4rMXhIazZx209xNO0EN4tsC++0sZmuVkHyglAqrgGSgD9YvgX8CPhx+zx8P9P8Ah78NtAtrC0tYo/tdysYFxqNwFAe4uH6vIxBPJwoO1QFAAAOL/bY+EWqfF/8AZ/1u08Kb08YeFZYfFfhaeJcyxapYnzYhH/tuokiHvJntQB237P3xc0v47/Bjwh8WdJEaJ4j0yK4nhQ5FvdDKXEP/AACZZE/4DQB2us6xpfh7SL7X9cv4LHTdNtpLu8up3CRwQxqWeR2PAVVBJPoKAPlH9mTSNT/aT+LWpftr+N7C4h0OKOfQvhVpV0hVrTSgSk+psh+7NcsGAPUR5GWUoaAPrqgAoAKACgAoAKAPn/8AbW+L3x9+C3ws0rxT+zn8L/8AhO/El14gg0+607+xL3VPKsWtrh3n8qzdJFxJFCu8naPMwRlhgA9V+E+v+KvFfws8G+KfHWif2N4k1nw/p2oaxp32aS3+x30ttG88HlSkyR7JGddjksuMEkg0AdXQAUAFABQB5x+0N8GdK/aB+Euq/CbXtQFnpmsXemT3rmNnElva39vdSQ/K6MvmJA0e8MCu/cM4wQD54f8A4J9f8E1I2KP4N0BWU4IPjnUAQf8AwMoA9V/ZosP2VfhTpPiP4X/s+3ml6PZWPid4L+xfWJbhptUktLUloWuZXeRWia2UbCV3BgPmDUAe80AFABQAUAFABQAUAFABQAUAFABQAUAFABQAUAFABQAUAFABQAUAFAHzH+2V8NPFll/wj37U/wAHNPNx8Q/hSz3MllHkHXtCbJvdOfHLHYWkj6kMG2jcwIAPP/2m/jJpP7Ufw8+EnwO+C2uSyxftAXcdzqNzAQJtP8OWpEmoGQDPlyBl8oqTgskqZNAH2fo2j6Z4d0ex8P6JZRWenaZbRWdpbxDCQwxqERFHYBQAPpQBzXxg+K3hH4IfDXX/AIpeOLz7Po/h+0a5lC43zPkLHDGD1kkcqij1YdBzQB+f/jL4GfFrQPhMf+Chnia0uf8AhduneI7bx9d6WHYLY+GkUxNowB+6q2bl5CQGwrKckZIB9yeKfBHwY/a0+D+mp4r0Cy8TeEvE9hBqunySrtliWWMNHNDIp3wyhW6qQRyDxkUAfPI8UftA/sIMtp8QJda+MPwJhOyHxFHH53iPwrDngXqD/j7tlHHmjBUA/dASMgH1n4C+IHgr4o+FbHxv8PfE1hr2halH5lte2UodG9VPdXB4ZGAZTkEAjFAHQ0AfP/xm+D//AA1f8BrWOW8h0Lxnp1wdZ8K63aBo30nVraVvIlRslgjbArjJ4YkDKrgAufslftA33xu8D3uj+ObBdG+JngW6OheNdGYBWt75MgToo48mYKXQjK/eUEhckA90oAKACgAoAKACgAoAKACgAoAKACgAoAKACgAoAKACgAoAKACgAoAKACgAoA5b4n/Erwh8HvAGt/Evx5qa2Gh6BatdXUp5YgcLGg/id2Koq92YDvQB8+fsf/D3XPGHirxH+1v8ZLGC3+IfjmKOPS9GZlaTwt4eIzaWpXqs0qBZJGIBPy8Kd4oA+rKACgDwb43/ALWXhz4beIovhT8OvDl78SfitqCZs/CWiuC1sDjE1/PylnCMqSz84IONpLAA5fwF+yb4j8eeKrL4xftj+I7Lx54rtH8/R/C9qjDw14bJ5Agt2/4+Zh3mlyeBwSqvQB5F4p+Eemf8FA/2gvitd6zqNzbeCvhVpj+BPCN9bOwEXiUss93fxlSMtA6RRkAgMvl0Ae//ALH3xt8R/Enwfqnw6+KsYs/ir8MrpdB8XWjHmeRQfIv0/vRXEa7wwABbfgbduQD3+gD5G/Zk/wCLDftMfFb9li7PkaHrkv8AwsjwOhGEFpdvsvrWPsFinA2oOdu9j1oAZ+0xq2pftMfF3Tv2KvBOoTw6BapBr3xV1S1cqbbSwwaDSlcfdmuTtJHUJg/Mu9aAPrHSdJ0zQdKs9D0WwgstP063jtLS2gQJHBDGoVI0UcBVUAADoBQBboAKACgAoAKACgAoAKACgAoAKACgDyj9qjwF4k+J3wE8VeCPCljJqF9qKWhfT4777E+o2sV3DLdWSz5AiM8Ec0O4kAebyQMmgDyjwj/wT0/Yx8Q+GNM1vU/2YY9Au722SabS9Q1S7a5s3I5ikMdyyFh0JViPegCl8EP+Ce/wG8C+PvFPjLWPg1p1rdaT43i1fwNcrqVxI1rYQ2li8LBRMRlbyO6bbKC3rlStAH13QAUAFABQAUAFABQAUAFABQAUAFABQAUAFAHyr8Avj7+1P49/an+I/wALfil8Ff8AhHPht4c/tj/hHPEf/COajZ/2l9n1GKC1/wBKnka3m8y3eST92o3bdy4UEUAfVVABQAUAFABQAUAFADXdIkaSR1REBZmY4AA6kmgD8sv2OvEfgnwB+17rHxcj8EnSfhf8Y9X1nwn8N9beYtbW08N2srwxoflhiu5fM8sDGHQoowGNAH6n0AfHOsA/tn/tQf8ACMIftHwb+BGppPqhAzB4h8WKPktz2eK0BJcdN5IIKupAB9fajp9jq2n3OlanaxXVnewvb3EEq7klidSrIwPUEEgj3oA+U/2GL28+FurfEX9jjxFdSyXXwu1dr3w1JO2Xu/Dd8xmtWBP3jGzMjkcKXVe1AH1myq6lHUMrDBBGQR6UAfJfj/8AZN8cfCPxVffGj9iLWLLwvrV2/wBo13wFefL4d8R45+WMEC0nIyFdNq5wMxguWAO//Z7/AGtvBPxvvrvwJrelX3gX4naKCus+Ctc/dXsDAZaSAkAXMPcOgztILKoZcgHtOjf2N/ZsP/CP/Yv7P+byfsezyfvHdt2fL97Ocd80AfKf7WPgzxJ8EfHth+3F8IdJlvL7QLZdP+Imh23H9u+HhjdOB0M9sAHDH+BBk7Y9rAH094I8aeGfiN4R0jx34N1WLUtE12zjvrG6iPEkTjIyOoI6FTyCCCAQRQBt0AFABQAUAeSfEP8Aa0/Zp+FV9JpXj342+E9L1CIMZbL7es9zHt674YtzqfQEAnoM0AcDaf8ABSj9iG9vW0+H49acsqMqlpdL1CKPLdMSPAEI9SDgd8UAew/Df44/B34wW7XPwv8Aib4b8TbATJFp2oxyzRD/AG4gd6f8CUUAdxQAUAFABQAUAFABQAUAFAGL4s8aeDvAekya/wCOPFej+HtMi+/eapfRWsC/V5GC/rQB4Prf/BRv9ifw+WF/8fdGl2gE/YbK8ve+OPIhfPT8uelAGx4W/bx/Y98Y3kNhov7QPhRZ538uNb+d7Dc2AQM3KxjnIA9TwOeKAPdLO8s9RtYr7T7uG5tp1DxTQyB0kU9CrDgj3FAE1ABQAUAFAHxreY/bl/aEbS1/0j4GfBfVgbph81v4s8TxjiL0ktrXPPVXZv4lcFQD6q0Xw/e6d4s8R69PLC1vq/2PyFRiXXyoirbgRgcnjBP4UAXPE/ijw34K0C98U+L9dsdG0fTYjPd319OsMECD+JnYgD09yQKAPlWf4ufHT9sSZ9F/ZrN58O/hW7NDffErU7Rk1DVUBwy6NavhlU8j7TIBjJ27WTDAHuvwP/Z7+Fv7Pfh2XQfhzoRinvn8/VNWvJDcalqtxyTNdXDfNIxJY44UFjtVc0AYv7XXxsf4BfALxN4904GXX3hXS/D1sq73uNVuT5Vsqp/HtZvMK91jagCb9lD4Jp+z98BfCvw3uGEurwW323XLktva51S4Pm3Ll+r4kYoGPO1FoA8p/a28M6/8FfHei/tvfDTTJbu48LWw0n4haTbD5tY8NM4LTYHWa1OJFJ/hX5jtjwQD6g8MeJdC8Z+HNM8XeF9Th1HSNZtIr6xu4TlJ4JFDI49iCDQB8ef8FL/EX/CldG+G37U3he/0+28a+APETWVhbXTEDVrG9gdLq0IXlvlRXz0UByOSKAPYf2Ovg1D8KPhJBrWra7F4j8ZeP5B4q8VeIFYP/aV9dKJPkfvCisFQDAxlgBvIoA91oAKACgAoAKACgAoA+f8A9tb4vfH34LfCzSvFP7Ofwv8A+E78SXXiCDT7rTv7EvdU8qxa2uHefyrN0kXEkUK7ydo8zBGWGAD1X4T6/wCKvFfws8G+KfHWif2N4k1nw/p2oaxp32aS3+x30ttG88HlSkyR7JGddjksuMEkg0AdXQAUAFABQAUAFABQAUAFABQAUAFABQAUAFABQAUAFABQAUAFABQAUAFABQAUAFABQAUAFAHzX+3n8Rtd8OfCC2+E/gGb/iuvjBqMXgvQUUkNEtyQt1cnHKpHAWy4+6ZEPagDovF37JXw88T/ALL9p+zHGGtNN0fSbe10fUUTE9lfwLmG/UggiXzcu2CN29xnDGgD5wl/bK+KupfCGH9mi3tHi/ajudWbwDcWwBxAyx5fX9wGPI+zHzg4GN5LBSg5APsL4EfBnwt8APhXoXwt8JIXttJg/wBJu3XEt/dv809zKe7yOWY8nAIUcACgDv6APkb9sON/gd8W/hj+2XpqNHp+g3a+DPHZQcP4fvpAI55MdVt7hg4HdpE7CgD63jkSVFlidXRwGVlOQQehBoAdQB47+0J+y18Nf2ibC0uvEEd3ofi3RSJdB8W6NJ9m1XSplJKGOZcFkDHJjbjkkbWwwAPDPh5+0B8Tv2RLjS/g7+2Zptu3hyaY22gfFHSYmbS7pnYsIdRTANrLlj85AU88bVaUgH2Xb3Gma5pkd1aT2uoaffwB45I2WWG4hdcggjKurKevIINAHxv8OpZf2HP2gR8EdXlaL4LfFjUZLvwLdSEmLw9rchzNpLMfuRSk7ou2cAZJlYAH2lQAUAeefHT48/Db9nbwLP4++Jesm0sxILeztYV8y71C5YHZb28WcySNg8cAAEsQASHGLk7LcTairvY/Of4i/FL9oX9qoyzfEfxFffD/AOH92zNbeCtCnMNzc25PyjUbofPISv3ohhefuowr9R4e8O54iMcTmrcU9eRb/wDbz6ei180z85zzjuNCUqGWpSa+29vkuvq9PJoyvDXwl+GnhCIReHfBGk2pGP3ptxLKcdMyPlz+Jr9NwWQ5Zl6thqEV52u/vd3+J+eYvOswxzvXrSfley+5WX4HSTaZptxALWfT7aSFQQI3iUqAeowRjmvSlRpzjySimu1jgjWqRlzRk0/U4rxF8DPhn4hul1RPDyaPq0LiW31TRnNjdwSg5WRXjwC4PQsDXgZjwllGZp+1oqMn1j7r9dNH80z2sBxPmmXtezqtpdJe8vx1XyaPWfhL+2b8Yv2c9Rs9C/aF1i6+IPw0kIt18VrbFtZ0Tn5GvAuTdRdmkwZO5JOEb8i4k4LxWRJ16T9pR721j/iX6rTvbQ/Ucg4tw2cv2NRclXt0fo/037X1P0Y8P+IND8WaHYeJvDOrWmqaTqlul3ZXtpKJIbiFxlXRhwQQQc18UfXGhQAUAFABQAUAFAHxH+0p+3brg8U3vwU/ZWj0/VvE2nStB4h8V3kfnaXoLDhoox0uLkHjbyqEEEN82z3Mj4fxmf1/ZYZWit5PZf8AB7Ja/LU8fOc8wuSUfaYh6vaK3f8AwO72+eh8rSfBvSvFGtv4z+Meu6p8SPFU/M2p+IJ2mRec+XFb58uOIHomCF6Djiv2XKuBMpy6KdaHtZ95bfKO1vW78z8nzLjTM8dJqlL2cO0d/nLe/pZeR2mn6HomkqqaVo9jZqv3Rb26RgcY42gduK+tpYWhQVqUFH0SX5HzFXEVq2tSbfq2ylrPgfwZ4it3tdd8KaTfxuMEXFnG/wCRIyDyeRWOJyzBYuLjXpRkvOKZtQzDF4WXNRqyi/JtGL4Q8OfEb4C6nJ4k/Zj+IF34Vkd/NuvDl/I95oWoHHIkgckxuenmIdwHC7a+Dzrw6wmJi6mWv2c+zu4v9V+K8j7PKOPMVh2qeYL2ke60kv0f4PzPu39lL9sfwx+0RDceDfEelHwj8TtDgD6z4auXzvUHabmzc/66Akg5GSm4A5BV2/HcbgsRl9aWHxMXGa3T/rVdmtGfquExdDHUVXw8lKL6r+tH5PU+i65TpCgD5k/a4+KfjHVNT0T9lH4GaiYPiP8AEWJmvdSjyf8AhGdAB23OoyEcq5G6OLkEsTghgmQD2z4S/Czwf8FPh1oXww8B6eLPRtBtVtoAcb5W6vNIQBukdyzs3dmPSgDyn4w/tgeGvhD4z1P4bpod74w8cXP2ZPDXhHQIWl1HUHki3s0zcpBCpwTK4AC7iA+00Acr4X/Zc+IXx01+w+KH7bGr2ermzlF3ovw10yQnw/ozfwtdc/6fcAHBZsxglgN6kAAH1XBBBawR2trDHDDCgjjjjUKqKBgKAOAAOMUASUAfH/j7/jJD9unwx8M4v9I8G/AG1j8Xa+BzFN4iuVxp8Ddt0Uf74H/ropoA+wKAIbyztNQtJ7C/torm2uY2hmhlQOkkbDDKyngggkEHqDQB8gfAjVv+GRPjZq/7J/jLUvs3w/8AEa3Xif4YaneS4itoQTJfaQ0jHAMJLSJk/cJJOXUAAzvhp4P079uv4o+If2gfiHpsl38KNFtdR8H/AA70m4UiPUI5kaDUNYKnvJ80UZxkBeQGjBIB2f7AnijWdN8BeJf2bvGl203ij4H61J4Yld+HudKOZNNugOyPBlVH92IetAH1HQAUAFABQAUAFABQAUAFABQAUAFABQAUAFABQAUAFABQAUAFABQAUAFABQAUAFABQAUAFABQB8q/AL4+/tT+Pf2p/iP8Lfil8Ff+Ec+G3hz+2P8AhHPEf/COajZ/2l9n1GKC1/0qeRrebzLd5JP3ajdt3LhQRQB9VUAFABQAUAFABQAUAfH/AMK/+Mkv22PGPxom/f8Ag74IRS+BvCp6xT61KM6ndL23IpEORwytGR0oA+p/GPi7w74A8Kav428W6nFp2i6HZy399dSn5YoY1LMfUnA4A5JwBkmgD84YrX43aZq6f8FV7rR5fKvLzF54KFshni8BMixJcBsZNyFVbknO0qQxIXKUAfpJ4Y8S6F4z8OaZ4u8L6nDqOkazaRX1jdwnKTwSKGRx7EEGgDToA5f4o/DzQPi18OvEfw08UReZpfiXTZ9OuMAFoxIhAkXP8aNh1PZlBoA8U/YN+Iev+Ivg7cfCvx/L/wAVx8INSm8E68rElpRbHba3AzyySQBMOfvFHNAH0nQAUAcZo0WlfFv4ai18eeH9L1TT9chmgvtPnthLazRiVl2tG+7IwoPPfmgD5fvvg58df2J76fxT+zDHf/EL4TF3uNU+GV9dNJfaWpO55dHnbLMByfIbJPPEjNuQA9Fm1z9nz/gol8A9b8KaNrhlhuVVbi3ljEOr+G9STJikkhJ3RSxuDgg7HAdQzKTQB4n8G/2/9T+FuteL/gL+1zbppni34WeG3uJNXWTJ8SSWxkbdErYzJPataSR5I3sZSduQoAPTP2Bf2ltQ+Nf7NniD4w/EzWYLZ9J8Sa5JqU8rgQ2FqpF4E3do4YZ1UE4O1BnPUgHx7qfjrX/2qfidL+0L44R00KylmtPAOhyJiPT7APj7Y6nrcTbQxbtxjgJt/YOAOGIRprN8UryfwJ9F/N6vp2WvVW/LON+IpSm8rwzsl8bXX+76Lr3enR362v1U/NQoAKACgBk8EF1BJa3UMc0MyGOSORQyupGCpB4II4xSnCM4uMldPdDjKUJKUXZo3v2Mvi1qP7Ofxi0/9nrXdSMnw0+INxM/hRrgnOi6yTuNir/88pyTsU/8tCoHJct/P/GnDayLFKrh1+5qXt/dfWP6ry06XP27hLP3nOGdOt/Fhv5ro/8APz9bH6UV8WfXBQAUAFABQB8gf8FAP2hvFHgjTdC+APwl1ZbHx18Q0lNzqCAtJomiplZrsAfdkcgxxse4kwQwUj1MmyqrnWNhg6Ojlu+yW7/rd2R52bZlSynCTxdXpsu76L+ump8v+CvBmg+APDlp4Y8OWvk2lqvLNgyTSH70kjAfM7Hkn+QAFf0nluW4fKcNHC4ZWjH72+rfds/n/MMfXzPESxOId5P7kuy8kbldxxhQAUAFAHH+OvC2uz3ulfEP4d6q2iePvCM327QdTjUZLjO63lB4eKQFlKnj5jkEFgfleK+G6Wf4V8qtWj8L/wDbX5P8Hr3T+k4az+pkmJ97WlL4l+q81+K07W/Rn9lr4+aZ+0l8F9E+JlrbR2WpyB7DXdNTOdP1SHC3EBDfMBkh1Dc7HQnrX87ThKnJwmrNaNH7vGUZxUou6Zq/H/43eF/2e/hbq/xN8UK9wtkqwafp8J/f6nfyfLBaQjBJd344BwoZiMKako81/Zc+E+p/C3w14l/aC+P+pWUPxK+IGNa8V393KscGiWaLmDTkdziKG3jwG5xuByWCKaAOX1T9oL4v/tR6nc+C/wBjy2XRPB8MrWurfFjWLMm1Ug4kj0i2cA3co5HmtiMEHplHIB6x8Av2c/hP8Bo9Ti8JNLrXi+/KyeI/Eur3QvNa1GV/m3XMx+ZVbGQg2rxnBOWIB6/QAUAcj8XPiVoPwc+GXib4o+JnxpvhnTZtQlXdtMzIvyRKT/E77UX/AGmFAHjf7BXw117wj8FW+I3j5N3jn4s6jN428QyMuGR7s74IOeVVISnyH7rO4oA+kqACgD4X/wCCg+iXf7UXiPw5+xv8MNN0688Ywh/F2r6zdbvK8OWUcLpErunKyXLyLHt5+UglcMrKAe4/sW/FLQPiP8CtH0mw8NQ+Fta8Cj/hEvEHhpF2nR9Qs1ETxBSSQjBQ6kk8NgksGoA8/wDjSP8AhQH7Zfw5+PUP+j+GPipCPhz4tYcRpfnMml3L9txZTCWOAqKfWgD63oAKACgAoAKACgAoA+f/ANtb4vfH34LfCzSvFP7Ofwv/AOE78SXXiCDT7rTv7EvdU8qxa2uHefyrN0kXEkUK7ydo8zBGWGAD1X4T6/4q8V/Czwb4p8daJ/Y3iTWfD+nahrGnfZpLf7HfS20bzweVKTJHskZ12OSy4wSSDQB1dABQAUAFABQAUAFABQAUAFABQAUAFABQAUAFABQAUAFABQAUAFABQAUAFABQAUAFABQB4t+2F8bLn4C/APxD4y0RTN4mvgmieGbZF3SXGrXR8u3CL/GVJaUr3WJhQBp/sufBS1/Z9+BfhX4ZKVl1GytBc6zchtxutTmPmXUpbq2ZGYKTztVR2oA8S+N0837Xf7QNn+yzokkknw3+H01tr3xPu4mPlX1yDvstF3DruYeZKOwXqrR4IB9dS6Zp0+mvo81hbvYSQG2a1aJTE0JXaYymMbdvGMYxxQB8kfs/Xlz+yl8dtR/ZC8S3Mo8D+K2ufEXwqvrhyViQsXvNG3H+KJiZIwTkqSScuq0AfYFABQB8i/En/jHP9t3wj8Wov9H8H/HS2j8E+JSOI4degGdMuH/2pEBgHoA5NAH11QAUAUtG/sb+zYf+Ef8AsX9n/N5P2PZ5P3ju27Pl+9nOO+aALtAHwZ/wUI+EE/w+vrT9rP4N/FHwd8JvG2jI6397dNJaT+IxjItztZorpyFAET27s+BucKoAAPx/+Mfxk+IPx68eXvxK+J2spqevX8cMMs8dtHbp5cSBEVUjUKAFA7cnJNAHvn7Pfxdvrf8AZJ+IP7OukXksOofEDxxoFgPKba0dlcJK13ICP4dmnxxsOcrLjHJrty3ByzDGUsLH7ckvver+S1OPMMWsDhamJl9lN/ctPvPq2xsrTTLK306wt0gtbWJIIIkGFjjUAKoHYAACv6lpUoUYKnTVopJJdktkfzjUqSqzdSbu27t92yerICgAoAKACgDgfjn4euvEHwy1d9LeSLVtHRdZ0u4ibbLBd2x81HjYcq+FZQR/er5zi3LlmeUVqVryiuZesddPVXXzPe4Yx7y/NKVS9k3yv0lpr6Oz+R+pXwQ+I9t8Xvg/4M+J9qoUeJtEtNSkjAx5UskSmWP/AIC+5fwr+bT9/O3oAKACgAoA/Je48Tt8W/2ivi/8Z5y0tvLrzeFdEZyT5enaeBFmMH7qSuvmEf3snANfsvhnlyp4arj5LWT5V6LV/e3+B+UeIWPc8RSwUXpFcz9XovuS/E6Wv1A/OQoAKACgAoAKAOq/YV8Ww/DX9qb4hfDi8uFtNE8feH4vF1rvfbBDfWbmK6IycKzpIZHbuIxk8AV+A+IGXLBZu6sFaNVKXz2f4q79T9t4Ix7xmVqnJ3dNuPy3X4Oy9CLxN+0j8Pfih8bbD4/+O21DXPBfg2+m0z4OeB9Ktjc6n4w1pWKTaylsOTEjqY4ZHwoKZBWRWVviD7A9n0r9nr4u/tP6pbeNv2xrtNJ8JwyrdaR8J9Huy1nEQcxyatcJg3ko4PlriMEehZKAPq3S9L0zQ9NtdH0XTrWwsLKJYLa1tYVihgiUYVERQFVQAAABgCgDJ0Xw/e6d4s8R69PLC1vq/wBj8hUYl18qIq24EYHJ4wT+FAHQUAFAHyB+18zfHj42fC/9jbTmMulahcjxz49VDwuiWUn7i3kx/DPcDb6hljPQ0AfXyqqKERQqqMAAYAHpQAtAHmn7RPxy8Pfs8fCnVviTr0D3k8G200nTIsmbVNSlytvaxAZJZ264BIUO2DtoA4/9kP4HeIPhb4O1Pxz8Ubhb/wCKnxJuxr/jG+6+XMwPk2MfUCK3RvLVQSAd+Pl2gAHnX7QFndfso/HXT/2u/DVvMPA3i17bw98VbGBCUiQkJZ6yFH8UTMI5COSrAAZdmAB7J+018JNP/aO/Z78T+AdNuoJbnWNOF9oF9FKNsd/FiazmSQHhTIqZYHlGb1oAh/ZG+M0vx4+AHhXx5qYaPXRbnTPEFu42yQapasYblWX+Es6eYFPIWRaAPYqACgAoAKACgAoAKACgAoAKACgAoAKACgAoAKACgAoAKACgAoAKACgAoAKACgAoAKACgAoA+VfgF8ff2p/Hv7U/xH+FvxS+Cv8Awjnw28Of2x/wjniP/hHNRs/7S+z6jFBa/wClTyNbzeZbvJJ+7Ubtu5cKCKAPqqgAoAKACgAoAKAPkDxH/wAZJft4aR4UT/SfBH7O9kut6ljmG48UXi/6LGexMEQ80Hqrq6nrQB6r+1j8ebv4F/DVJfCenjV/H3i28j8PeDNHUBnvNUnO1GK944873JwOApI3A0AXv2XvgNa/s9/Cq08JXOoHVvEup3Eus+KdaclpNU1e4O64nZjyRnCLnnai55JJAPXKAPHP2qfgL/wv34XyaLoupf2P4y8P3cWveENaQ7ZNO1e3O6Fw3UIx+RuvDZwSooAP2Vvj1/wv34Xx61rWm/2P4y8P3cug+L9FcbZNO1e3O2ZCvUIx+devDYySpoA9joA8j/at+Cq/H74D+Kfh1av5OsTWwvtCuQ2xrbVLc+baur9UzIoUsOdrtQAz9k341N8ffgN4Y+IF+nk64YDpviC1Zdj22q2x8q5Rk/gy6lwp5CutAHr9AHP+AfD974W8J2Og6hLDJcWvm72hYlDulZhgkA9GHagDoKAPyP8A+CjmleCvB/xPfXfj7+zD4x1Wx1maVNM8aaH8Tbp7eZclxElrd2s0dnIBgG3BCcMU3KMgA+EdbH7Nmo4bw43xL0DLnK3q2Gr7UzxyhtMnHsOfyoA6/wDZ/wDC5tPib4O1vTDrU/hbU9Xu4Ib/AFDTVtYp721s5HEahZpFZ1WdCefl8wetfU8FRjPPsOpd3+EZNfifN8XScclruPZf+lK592V/Rh+DBQAUAFABQAUAVtThguNNu4LpgsMkEiSEruAUqQcjvx2rOtGM6coz2adzSjKUakZR3TR9Z/8ABNa7vb39iH4XTagjpKtlfRKGfefLTULlIzn0KKpA7Agdq/k4/pk+maACgAoAKAPxq/Zqlnu/hTbalfArf3+palc3qscss7Xku4MTyx4HJ5r+hOAYxjkNJrq5X/8AAmvysfhvGsm86qp9FG3/AICj1KvsT5QKACgAoAKACgD54/aVsfHl/wCOPC2lfDSHX7jVda0bWNP1GHQbN7m9fSiITchYkKmUGLzcpkAqGyRnI/IPFGMVUw0lvaf/ALbb82fqXhzKXs8RHpeP/t3/AAD7u/4J72P7E2jaYifB3xvDr/xIktUtNVufEqfZdfVY1Cm3itZMeRAm0L5cG5AFUM7lQa/KT9LPtygAoA5/RfEF7qPizxHoM8UK2+kfY/IZFIdvNiLNuJODyOMAfjQB0FAFTVtV07QdKvdc1i8itLDTreS7uriU4SGGNSzux7AKCT9KAPlX9hDStR+I9z8Qf2xfFVnLFqXxb1do9BinHz2fhyyYw2cYH8JfazNjhtqN3oA+taAEZlVSzEAAZJPQCgD46+HAb9s39pB/jjegz/CL4QXs2m+Bom/1Oua8pxc6tjo8cPCQtyNwDKQwcUAfY1AGZ4n8NaF4z8Oan4R8UaZDqOkazaS2N9aTDKTwSKVdD7EEigD5f/ZI8Ta98FfHOtfsQ/EvUprq68LW7ar8PtWuW51nw0zkJFnvNbHMbAfwj5RtjyQCH4XA/s+/tweOPhDKfI8KfG20bx54aUnEcetQjZqlunq8igXB7BVUUAfXNABQAUAFABQAUAfP/wC2t8Xvj78FvhZpXin9nP4X/wDCd+JLrxBBp91p39iXuqeVYtbXDvP5Vm6SLiSKFd5O0eZgjLDAB6r8J9f8VeK/hZ4N8U+OtE/sbxJrPh/TtQ1jTvs0lv8AY76W2jeeDypSZI9kjOuxyWXGCSQaAOroAKACgAoAKACgAoAKACgAoAKACgAoAKACgAoAKACgAoAKACgAoAKACgAoAKACgAoA4P47fFvQ/gT8IPFXxa8Q7WtfDenSXSQlsfaLg4SCAH1klaNB7tQB5d+xX8Nr34M/s9Dxh8T7uO38WeNJ7rx34zv7siMx3N0POYSlvuCKEIrAnAZZD3oA479m3Tb39p/40ap+2d4uspl8L6ULjw78KdPuUK+XYhil1qxQ9JLhgyqeCEDKcgI1AH19QAUAFAHx/wDtAWd1+yj8ddP/AGu/DVvMPA3i17bw98VbGBCUiQkJZ6yFH8UTMI5COSrAAZdmAB9dWd5aahaQX9hcxXNtcxrNDNE4dJI2GVZWHBBBBBHUGgCagD5F+H//ABjn+3F4p+F8v+j+Dvj1ayeMfDw6RQ+IbdcalAv+1LHicn2jAoA+uqAOf8A+IL3xT4Tsde1CKGO4uvN3rCpCDbKyjAJJ6KO9AHlfxp/bU/Z8+Bt7/wAI74i8YHW/FTv5UHhfw5CdS1WaXtH5MZxGx7CVkz2oA8R8a6d+2X+234ZvfBV58NPDfwT+GGtJ5dzL4ttE1fxBdw54ZLMgR2zDqA+yRGAZHyAaAPyx/ZG/ZQ8VftZ/FxPBfhlrmy8Nae4utd1uSIYsLLcdvH3TPJjaiAnJyT8qMQAfpj+378GfC3wW+BXwf134daFBpvhn4TeKba2uIY1wYrC9UwzTu45Z2lMRcn77SEk+vr5DjVl+Z0MTLaMlf0ej/Bnl51hHjsurYeO7i7eq1X4nndf08fzsFABQAUAFABQByXxa8SxeEPhp4k8Qytg2unSiL5sZlcbIxntl2UfjXk59jVl+WV8S+kXb1ei/Fo9PJcI8dmFGguslf0Wr/BM/Rb9kv4e3vwq/Zp+G3gLVIRDf6X4etPtsW0L5d1KnmzJj1EkjjPU4yeTX8wH9FHrVABQAUAFAH5C+BtAufh347+KXwc1BBHc+D/GN95CgYDWF0xntZAv8IZGLYHH1r9x8Nsaq2WTw3WnL8Jar8bn47x/hHRzGOI6Tj+MdH+Fjt6/RD4QKACgAoAKACgDb/Y/0K48cftw3OuQxBtP+Gfg2QXEpG7Zf6hIFjj/2SYFkbIwTtI6V+HeJONVfM4YaP/LuOvrLX8rH7FwBhHRy+deX25aei0/O59ifG79kT9n/APaCBvPiH4AtG1pMGDXtOJstUgdfusLiLDNt6hX3KPSvzs+7PHD8LP26P2bh5vwa+J1n8cfB9v8Ad8M+OJBb63FGP4INRBCytgDmUhR0CUAdN4A/4KC/CDVdfj8A/GrSNc+C/jY4VtI8Z25tbeQ5xugvCBC8ZOMO/l7uwNAH0fplz4dvbq5u9GuNOnuJ0hkuZbV0Z3UpmJnK8kFfuk9unFAGlQB8qft+eJ9b17wn4T/Zb8DXrQeKPjfrC6E8kfL2eixYk1K5I/uiLCkHqryY5FAH0t4U8MaJ4J8L6R4O8N2S2ek6HYwadY269IoIUCRr+CqKANWgD5Z/bE8f+KfGesaD+xx8H9Se28ZfEmFpdf1ODk+HvDStturpsdHlG6GMcZJYZVihoA+hPh54B8LfCzwPonw78Faathofh+zjsbKBeSEQfeY/xOxyzMeWZiTyaAOioAKAPAP2wfgl4j+JPg/S/iL8KpBZ/FX4ZXTa94Ru1HM8igefYP8A3oriNdhUkAtsydu7IB438d/HsP7RH7KXg79sT4RWbR+L/hLqkXiz+zmYie1e2ITV9Mm43BfLDlgQC6xocYYUAfY/gbxloXxE8GaH488M3QuNJ8Q6fb6nZScZaGaMOucdCA2COxBFAG5QAUAFABQAUAFABQAUAFABQAUAFABQAUAFABQAUAFABQAUAFABQAUAFABQAUAFABQAUAFABQAUAFABQAUAfH/7S+f2iP2nvhr+yjZj7R4b8MMnxF8fAHMbwQNtsLJ/XzJWy6HnY6OPu0AWf2rNd1r4/fEvR/2Ifh9qM1tbapBHrfxM1W2bDaboCupWzVh92a6bC46hCCQUdsAH1RoOhaP4X0PT/DXh7ToNP0vSrWKysrSBdscEEahEjUdgFAA+lAF+gAoAKAMzxP4a0Lxn4c1Pwj4o0yHUdI1m0lsb60mGUngkUq6H2IJFAHy/+yR4m174K+Oda/Yh+JepTXV14Wt21X4fatctzrPhpnISLPea2OY2A/hHyjbHkgH1nQB80/t+eBdT1n4If8LW8ITQ2vjH4QajB430K4kYKC1qd1xAxyMpJDvGz+NlQUAckP8AgpL4G8c2Gm6T+zj8LvGHxZ8ZahYW91PpOlWb29ppUkqBvKvb2VdkW0naWVWXIIJFAGdo3wC/av8A2jNMhuPjj8bNP+Gfge43bPBfwtdY3kjLHclxqPzZOch1j8yNsn7p4oA+gvgr+zD8Cf2e7H7L8KPh1pmkXLpsn1JkM+oXA7+ZcyFpWBPO3cFBPAFAHpOpQXF1p11bWdwYJ5oHjilH/LNypAbj0ODQB5n+zR+zn4E/Zf8AhXp3wy8DweZ5X+kanqUkYWfUr1gPMnkx9AqrztRVXJxkgHS/F74X+GvjT8MvEnwr8Xwl9K8S2EllMygFoWPMcyZ43xyBJFz/ABIKAPyz+Ht34m8Lalq/wP8AicrW3jjwJMbC8SVSpv7RTi3vYt3LxyR7DuGeoJxuFfv/AARxDHN8CsPVl++pqz7tdJefZ+e+6PxDi/I5ZXjHXpx/dVHdeT6ry7ry9GdzX2x8iFABQAUAFAGP8Lvhz/w1X+0LpHw3itnvPh/8P7qPXfGtyqbre5uYzm10wt91i7gmRf7qv0ZK/HPETiCGImsqw0rqLvO3fpH5bvzt1R+rcCZHKhF5lXVnJWh6dX8+nlfoz9W6/LT9HCgAoAKACgD8+v8AgoT8L7v4YfEXR/2tvDWnTyaJfQReHviDHbxF/LhBxZ6iwXn5DiFm5+URKPvGvp+Es9/sLMFVqP8Ady0l6dH8n+F11PneJ8m/trAunBfvI6x9eq+a/Gz6Hnlpd2t/aw31jcxXFvcIssUsThkkRhkMpHBBHOa/oynUjVipwd09U1s0fg04SpycJqzWjTJaokKACgAoA53x9440f4e+GbrxJrDkiPEdtbpzLdXDcRwxqOWZj6dBkngGvNzfNaGTYSWLxD0Wy6t9EvN/hvsj0Mry2tm2KjhaC1e77Lq36f8AA3Ps39gj4A6x8F/hBN4k8fWbRfEH4iXf/CQ+JRIm2S1Zgfs9ljqBDG2Np+68kg6Yr+ZsbjKuYYieKrO8ptt/P9FsvI/oTCYWngqEMPRVoxVl/X5n0xXKdIUAcz8QPhn8PfitoMnhj4k+C9H8S6XJk/ZtStEnVGIxuTcMo3oykMOxoA+UY/2Ffil8FPEOr+JP2NvjnceBbGZ4pLfwjrxk1XRbnCnfG4kDSW43E4dfMfBPK0AaVv8AtxeP/gxcRaJ+2n8BtY8Dx7xCPGXhyN9W8OzknAdmj3S2+eyHzH9QKAKv7LWs6X+09+1B8Sv2rra+iv8Awz4URPh/4F5/5YIBLeXoQ4K+a7jY5AJR2U/doA+zKAOF+N/xh8J/AX4X698VPGc5Gn6JbGRIEYCW8uG+WG2iB6ySOVUemcnABNAHln7HPwe8W+HNI1348fGaHd8VfitOmq60jg/8SiyA/wBD0yPPKLDHt3Dru4JbYDQB9G0AFABQAUAfGnjyztP2Qf2j5fH09rEPgr8drtNK8W2zqDbaL4jkBWK+ZT8qwXK7klJ43ZZjwi0AbP7DN7c/C/VviT+x3rtzI1x8LNaa88ONM+XufDl+xntSCfvmNndXI4Uuq8YoA+sqACgAoAKACgAoAKACgAoAKACgAoAKACgAoAKACgAoAKACgAoAKACgAoAKACgAoAKACgAoAKACgAoAKAMjxf4r0PwL4U1nxr4mvFtNJ0Gwn1K+nP8AyzghjLu3v8qnjvQB8PfBT4k/8KS/Z48fft0fFPS5Ljxz8bNVGoaLowBae4iO6HRdMiAG5gU+fK5PlMDglKAPoD9kL4Ga38JPAl94q+JFyNR+KHxDu/8AhIPGeoNgn7W4JjtEI4EVujeWqg7Qd5XAIAAPeKACgAoAKACgD5P/AOChdp4P0X4c6T8YE+IeheDPiT8N7ttd8F3uoXaRPeyqB9o04ITumS4jGwooPO3OF3ZAON8G/tyfHz9p/QLRf2SP2dJFZ4o4NV8V+M7sW+i6Ze7FM0USxEyXewuOVIboTHg0AdLpf7BWpfE3UYPFP7ZXxr8Q/Fi+jcTxeHraRtL8O2j9glrCVMhHA3kpuA+ZTQAn7HdvB8AvjN8U/wBjq5iW206wuz468D5GPO0S9YCWFT1YW84EeTkks3YCgD6e8A+H73wt4TsdB1CWGS4tfN3tCxKHdKzDBIB6MO1AHQUAFABQAUAfOP7Xf7Iln+0NZ6Z4z8Ga4nhb4m+FlYaJrZQmG4hJJayu1Ay8DEnnBKEkgEFlbswGPxGWYiOJw0uWcf6s+6fVHLjcFQzChLD4iN4v+rrs+zPhG0+IWpeFvEzfDH44eHZ/Anji2YxPZ34KWl+Qdvm2dwf3csbHBXDHrgFsZr9z4e43wObxjSxDVOt2ezf91+fZ69Ndz8azzhDGZXKVSgnUpd1uvVeXdaemx3NfbHyIUAQX1/Y6ZaS6hqV5BaWsC75Z55BHHGvqzNgAe5qKtWFGDqVZJRW7bsl8y6dOdaShTTbeyWrOZ8DaZ8Tv2qdfbwN+z1bzWWhI7R654+u7V10/T4xwyWucfaLg5+UKeODwPnX8t4n4/pxg8LlDvJ6OfRf4e789l0vuv0bh7gicpLE5mrJaqHf/ABdl5bvrbZ/pb8BvgX4F/Z2+G2n/AA08A2sos7QtNdXlwwe51C7fHm3M74+aRyPoAAoAAAH5BKTk7vc/U0lFWWx6HSGFABQAUAFAFPV9I0vxBpV5oWt6fBfadqNvJa3drcIHinhdSro6ngqVJBB7GgD8x/jV+zX8Q/2O9QuNd8Eabq3jX4K3M8kv2e2ja51TwnuO7ayjLTWg5w/VR94g8yfe8KcaVMmthMZeVHp3j6d15fNdn8VxLwlTza+Jwto1evaXr2fn8n3WP4U8ZeFvHGlJrXhPXLXU7R8ZeF8shIztdT8yN/ssAa/a8BmOFzOkq+EqKcfLp6rdPyep+RY3AYnLqvscVBxl5/o9mvNGzXacgUAch40+KXhTwVcQaTdTz6lrt6wjsdE0yE3V/dSN91UhTLc9icA14Wc8R5fkcL4qfvdIrWT+XT1dkezlWQ47OJWw8Pd6yekV8+vors+iP2Tv2NfGOr+LdI/aK/aZs0tdV08fafCfgoNvh0QtytzdnpJd4xgdIzyQGAWP8H4g4jxXENf2lbSC+GK2X+b7v8kftGR5Dhsjo+zpayfxS6v/ACXZH3VXz57gUAFABQBz+i+IL3UfFniPQZ4oVt9I+x+QyKQ7ebEWbcScHkcYA/GgDxz9uj4rah8MP2ftW0/wvB9r8YePJ4vBnhizUAvPqF+TECoPdIzI4yMblUHrQB5ro/8AwTI+GXhLwn4buPhb478V/Df4jaLpVvaXXivw3qMijUblUHmSXNs7bJI2fcdi7MggEkDFAE3/AAtX9uj9m8+V8ZfhfZ/HDwfb/e8T+Bohb61FGP459NOFlbAJxEFUdS9AHEeBfjP8O/8AgoD+1Jo3l+Iba1+HPwnjg1nSvDeqTx29/wCIfELqSLh7Rm3tDaDcOhG/uyuQAD7+oAKACgAoAKAOU+Kvwy8KfGT4d6/8MPG9j9q0XxFZvZ3KjG9M8pKhPR0cK6nsyg9qAPzY0j4meK/gD8efBGpfFi/P/CXfCS7j+G3jXUG+Vde8Fag4/srWSTyywTbBKcsd5iDHcxAAP1S60AFABQAUAFABQAUAFABQAUAFABQAUAFABQAUAFABQAUAFABQAUAFABQAUAFABQB85/Gj9t/4afDTxLL8MfAmkap8T/iSrNH/AMIv4ZUStauDgm9uOY7VASAxO5lyCUA5rKtWp0I89V2RpSozry5KauzzOfx7/wAFDviJM15bn4X/AAj05hiKzaOTXtSTPUySZFuxUdNoAJHIxXiVuIsNB2ppy/D/AIP4HsUshxE1eo1H8f6+8iXw3+31aN9uh/bG8P38rfMbG6+HdlFboR0USRt5hDdyeR2rmXE0b60/x/4Bu+HpW0qfh/wSxb/tAftzfCVXm+JHwe8I/FnQ4DukvvBd5JYaokOeWNnOGWdx2jixnjnqa78Pn2ErO0m4vz2+/wDzscdfJcVRV4rmXl/ke+/Aj9qH4N/tF2NxJ8OfEjf2tpy51TQNRiNrqumsG2ss9u3Iw3yllLJngMTXspqSujyWnF2Z6xTEFAHyP+3Rqd/8UNb+HX7Gvhq9lhufihqgv/FE0DYez8NWTCW5Yn+AysgVCeGMbKfvUAZHwj0yx/av/aBh+LNrYxx/Bj4ISvoHw9s0XFtqusRgRz6mq9GigVVjhPIyFZSGDigD7PoAKACgAoA8K+NX7av7PfwMvT4e8R+Mf7a8VO/lQeGPDsX9o6rNKekfkxnETHsJWTPagDy0+KP2/P2k8J4N8L6X+zt4LueP7U1+Mal4lniPG6O0wI7ckZysgV16q9AHafDD9gT4FeB9cHjvxzBqvxT8cOQ83iPxvdHUpjIOcxxP+6jAPK/KzLxhqAOL8XKv7F37TCfEu1QWvwd+Nl/Dp/iaNPlg0DxMciC/x0jhuBlZDwA2WY8ItAH2PQB8nft0aZqHw1vPh9+2J4YtJZb/AOE+rrD4gigXL3nhu9YQ3iED7xQsrrnhdzt2oA+ivhp4tbx34G0nxeXtXXVImnje1z5Tx72CMuSTgqAevegDp6ACgAoAKACgDj/ih8Ifhl8afDUnhD4qeCdK8S6U5LLDew7mhYjG+KQYeF8cb0ZW96APljXf+CXPgGyuHm+D3xq+IfgO3bO3TRepqdhCR93ZHON4GcZzIcgY4r18Fn2Z5euXDV5RXa919zujy8XkuXY582Ioxb72s/vWphxf8E1PinJMYtR/bO1qWxBASO38G2cE4U/eBm805J7Hbx716UuNc+lHleIf3RX48tzgjwjksZcyoL75flc7TwZ/wTC+AGnXsOs/FTWvF/xS1GGRZUHiTVWFlG4PGy2g2Lt9UcupycjHFeJjMyxmYS5sVVlP1bf3LZfI9fCZfhcCuXDU4x9El+PU+stG0XRvDmlWuheHtJstL02xiENrZ2UCQQQRjoiRoAqqPQACuE7C7QAUAFABQAUAFABQAUAfNnxb/wCCe/7M/wAWNZufFo8L3/gzxPdEtJrfhG+bTLhnJyXaNQYGcnku0ZYnqTW1DEVsNP2lCbjLum0/vRlWoUsRHkrRUl2aTX4nkd7/AMEz/iBaZXwj+2P4ns0H3Bq3hm01IjnuTJHu+XA+uT3xX0FLjLPaKtHEP5qL/NM8Orwnk1XWVBfJtfk0WdO/4JhT6hIsfxE/ap+IOsWZP7230i2ttI81f7pZRIcE5z6ggcYzWOJ4qznFRcamIlZ9ny/+k2NaHDeU4aXNToRv56/nc+iPgh+yb8AP2eDLd/C74e2djqtypW51i6ke81GbI+YG4mLOqtjJRCqE87a8CUnJ80ndntqKirLY9epDCgAoAKACgCla/wBjf2lffYvsX9ofuvt3lbPO+7+783Hzfdzt3dulAHyZbf8AGSX7e812f9I8E/s42Bgi7xXPim+X5z6N5EK49UkjB/ioA+wKAPmr9sX4seLbeDQf2avgve+X8T/iqz2drcoT/wASLSBkXmpyEcoFQOsZ4JfJXLJggDtQ/wCCeX7KurfDbw/8Or34b20UnhuzjtrHxBYsbPWFkX5jO1zFhncyFnw+5AzHCjpQBxY+Fv7dH7N2Zfg98TrP45+D7flfDPjeUW2twxD+CDUQQsrYAGZSFHQJQB03w+/4KC/CDV9dj8BfGnSdc+C/jbgNpHjS3NrBKc43QXhAidM4wz+Xu7A0AfTltc217bxXdncRzwToJIpYnDI6kZDKRwQRzkUAS0AFABQB8Z/8FK/2ZLv4u/C+X4peBtMa48Y+D7C4hubaFQZNX0SQZubXGDukjIE8OQdsiHaNzDAB2/8AwTx+O/8Awvv9l7wxrOoX4utf8OIfDmtMWy7XFsqhJWzyTJCYZCcfeZvSgD6VoAKAOY+I3xN8AfCLwrc+NviX4t07w7oloQsl5fS7FLkEqiD70jnBwigscHANAHyvdftn/Hr4weZJ+yv+z7H/AMI9Idtp4y8f3b6fZ3P/AE0hsY/9IlhI5WQMM9CoPFebis2wuEfLOV32Wv8AwD0MNlmJxS5oxsu70/4JRbRv+CgeuKG1L9q7wh4ZZgNy6L4Dt7wIevym6bnk7eewB65ryp8TQXw02/nb9GenHh6b+Kovu/4KHC9/4KJ+EsX2l/GP4YePPJO9rLW/Db6Z569CgktW+U4GVJ4yTngVdPiWjJ2nBr8f8iJ8P1Uvcmn+H+Z0XhX9vqPwprlt4Q/az+FWpfCK+vJBDZa6bkaj4evXx0+2RqBA55OxwQoGWZa9nDY6hjFejK/l1+48jEYOthXarG35fefWVjfWWp2VvqWm3kF3aXcST29xBIJI5o2AKujDIZSCCCOCDXWcxPQAUAFABQAUAFABQAUAFABQAUAFABQAUAFABQAUAfHf7Rnx38ffFH4k3H7LH7NfiP8Asm809Fk8f+NLdTJ/wj9u/SztmHy/bZADznKAEDDBmj4Mwx8MBS55at7Lv/wDtwOCnjanLHRLd9jofhF8GPh/8EPCsXhTwDoq2sX37u8lPmXd/MeWmuJT80jkknngZwoUAAfA4rF1cZU9pVd/yXofbYfDUsLDkpK36+p3Fc50BQAUAeO/Gn9nm08f6lZ/En4ea5L4H+KWgBpNG8Uaeu12O3H2e7UDE8DcKQwJAzjILK3p5dmlXAStvDqv8jzcfl1PGxvtLo/8z079k/8AaWufjVpWreBfiNpkHh34seB5Fs/FOhqSqv08u+tg3LW0oIYEE7dwBJBRm+9o1oYimqlN3TPiqtKdCbpzVmj3u4uILS3lurqaOGGFGkkkkYKqKBksSeAAOc1qZn5R2/jnxd+0p8XfFuq/De9lg8W/Hq8l8J+HNQCnd4a+HOnSGO91If3Ddyo6KpIzIkoUglcgH6efDj4e+FfhR4E0P4ceCNOWx0Pw9Zx2VnCOTsUcsx/idmJZm6szMTyaAOkoAq6pqmmaJp9xq+taja2FjaIZbi6upliiiQdWd2ICgepNAHy54u/4KD+AdQ1248Cfs0+CPEPxw8WwnY8PhqErpVs3QNcag48pE/20Dp/tCgDFHwC/bI/aNX7R+0j8bI/hn4WuPveC/hy+y5kjPVLrUX3EnHDKnmRtnjb0oA91+Cv7MPwJ/Z7sRa/Cn4c6XpFyybJ9SZDPqFxnr5lzJulIJ527goycAUAepUAFAHKfFX4ZeFPjJ8O9f+GHjex+1aL4is3s7lRjemeUlQno6OFdT2ZQe1AHh/7G3xM8WWZ8Q/ssfGO/8/4h/Cgx20d7Jwde0JsCy1FM8sdm1JOpDbdx3MQAD6G8V+GNE8beF9X8HeJLJbzSdcsZ9OvrduksEyFJF/FWNAHzL/wT48XXOneBPE/7NXiLU4LzX/grrMuhJcRspF9o8rNLp92NvGHjLKMdBGueTQB9X0AFABQAUAFABQAUAFABQAUAFABQAUAFABQAUAFABQAUAFABQAUAFABQAUAFABQB4v8AHP4hwfs3/D/4ofHfWpLWWCDT7aTTLYsd096sfkwQsMDG+Z4xwT8pJ7UAZ/7FHwb1T4M/ALR7HxYZJfGXimabxV4ruJh++l1W9IklEn+0i7Ij7xk96APTvin8S/CXwc+HuvfE3xzqAs9E8PWb3d1JwWbHCRoP4ndyqKvdmUd6APDP2Ofhp4s1W41/9rD4y2DQfEH4pKklpYSZJ8P+HwQ1np6AjKsV2yScAltu4BlbIB9O0AFAHM/ED4ZfD34raBJ4X+JPgvR/EulyZP2bUrRJ1RiMbkLDKN6MpDDsaAPmK6/Yg+InwXnl1n9iv49ax4Ii3mU+DPEjvq3h2Yk5KIJN0ttnu48x/QigBbf9uLx/8GLiLRP20/gNrHgePeIR4y8ORvq3h2ck4Ds0e6W3z2Q+Y/qBQB9O+APiX8PvipoEfij4b+M9H8SaVLgC6027SdVYjO19pyjDurAMO4FAHS0AFAHwV4O0LT/2Hf26ZvCtsVsPhX+0UjS6UvCwaX4jhfP2YDPyo5mKoABk3MKjiImgD7E+JvxW8H/CXTdG1LxhqKWy6/r+m+G9PQsA015e3CQoBnjChnkY9kjc9qAK3xr+Mvgb4BfDfVvif8QtTFppelx/LGuDNdztxHbwr/HI7cAduScKpIAPkLwL8K/HHx+8VWX7Qv7VlsJ75We48JeA5ATp3hm2fGxpYmA868KgFmccHsCFWP47Ns6lVboYd2j1ff08vz9D6vLMpjTSrYhe90Xb18/yPosAKAqgADgAV82fQC0AFAFDXtA0PxRpF1oHiTSLPVNNvYzFc2l3CssUqHsysCDVQnKnJSg7NEzhGa5ZK6Pnjw94h8T/ALAHiexVtU1DWv2c9avBbXFvctJc3Pga5mk+SWN+WexZ2ClTkqWH8R/e/a5Rm/1z9zW+P8/+CfIZplf1X97S+D8v+AffVjfWWp2VvqWm3kF3aXcST29xBIJI5o2AKujDIZSCCCOCDXvHik9ABQAUAFABQAUAFABQAUAFABQAUAFABQAUAeR/tX/GyT9nz4B+KvibY2ou9Xs7dLPRrUjd5+o3Eiw2y7f4gJJA7KOSqNik2krsaV3ZHj/7N/wfPwX+F9j4e1O6+3eJdSkk1jxLqLNvkvtVuDvuJGf+IBjsU91QE8k1+cZhjHjcQ6vTp6H32BwqwdBU+vX1PUa4jsCgAoAKACgD5z/aeF/8FvFfhH9sjwjbs174CuI9N8VWsI+bVPDl1Ksc8ZH8TxO6umeASWOdoFfRcPYx0qrw0tpbev8AwTwc9wiqUvbx3jv6f8A6/wD4Kb/tE6f8LP2ZJdC0DWkTVvigDo2nzwsGK6c6Bry5UZG4eQwjGDndOmK+zPkjT/4J5/s2Xfwi+HB+JXjnSBZ+NvGtpaj7JIMvomjQxhbLTgSAQyxhXlOAWkb58smSAfQPxQ+M/wAKvgroZ8RfFXx9o3hmxIJja+uQsk5HVYohmSVv9lFY+1AHza37Ynx0+PTnTv2Nv2f7290qb5V8eeOlfTNGUdPMgh/11yvP8JDA9YyKALOl/sFal8TdRg8U/tlfGvxD8WL6NxPF4etpG0vw7aP2CWsJUyEcDeSm4D5lNAH1H4Q8FeD/AIf6FB4Y8C+FtK8P6Rbf6qy0y0jtoUPc7EAGTjk9T3oA2qACgAoAKACgD5j/AGyvhp4ssv8AhHv2p/g5p5uPiH8KWe5kso8g69oTZN7pz45Y7C0kfUhg20bmBAB7j8K/iZ4T+Mfw80H4neBr/wC16J4hs0u7ZzgOmeHjcDO2RHDIy9mUjtQB8n/E3w/e/sp/Hr4TftBTywpoXicv8OPHkkDHyVW5neXTbxiQMeXJ8ryMOEVVH3qAPtugAoAKACgAoAKACgAoAKACgAoAKACgAoAKACgAoAKACgAoAKACgAoAKACgAoAKAPi344XWrftIftmeDf2Ynhhl8FfDaSD4g+K9in9/Ika/YbWUk7W3Sy7imBlGzztoA+0qAPjfxWf+G0/2mF+HVvm5+DfwR1FLvxLIDmDxD4nXmGwPZ4bblpByC2VYYZGoA+yKACgAoAKACgCK5tra9t5bO8t454J0McsUqBkdSMFWB4II7GgD5i8f/wDBPn4Q6rr8nj/4K6xrnwX8bHLLq3gy4NrbynrtnswRE8ec5RPL3dyaAObPxW/bm/ZvxD8ZvhdafHDwhb8N4n8DRCDWoox/HcaaQFkbAJxEFUDkvQB7D8GP2vv2ffj1C0Pw+8f2susQqxuNAvUa11aFkHzqbVwJHK4IJjDrnjJoA/O3/gqr+1p8OviLJoPww+H/AImk1Q6RNdT6rbyaReWN7oerwNEbWZWuIojlke5iZVJwGLEbkTIB8y/F79uT4ofHvxX8JdW8dXC28Pw1NjI3kyNtvr6KZGl1CQAcSOscYwAQuG2/eIoA/QuX4j6Z+3D+0hoes6VFOfhd8IdNstetre5QA6nr2oQ+bbSSL0xBblTt6pLkHIavBz7GPD0PZQ3n+XX/AC+89rJMIq9b2sto/n0PpuviD7EKACgAoAKAKGv6DpHijQ7/AMN6/YRXum6pbSWl3bSjKSxOpVlP1BNVCcqclOLs0TOEakXGS0ZwP7A3inXPCaeOP2S/F99Je33wivYBoV9Kw33vh68VpLPPq8QDRtj5VBjUfdr9IwOKWMoRrLrv69T8/wAZh3ha8qT6fl0Prius5goAKACgAoAKACgAoAKACgAoAKACgAoAKAPj39vRl8R/Eb9nL4YXTl7DWfHUuuXNuThJxplqZVD9yAZfu42nPOMCuDNKjpYOpJdvz0O3LoKpioRff8tT1evzk++CgAoAKACgAoA5P4teF7Pxt8LvF3hC/hWWDWNEvbNlbjl4WAOcEggkEEDIIBrbDVHSrQmujRjiIKrSlB9Uz8v/AITfHnwD8WPir8NvF37Rmo6nqvh74OeF9L0Xw74W06xe+1HxHqkKgqohHykeYNzvIyhxBCpzuYD9PPzo/RA+KP2/P2k8J4N8L6X+zt4LueP7U1+Mal4lniPG6O0wI7ckZysgV16q9AHafDD9gT4FeB9cHjvxzBqvxT8cOQ83iPxvdHUpjIOcxxP+6jAPK/KzLxhqAPpJVVFCIoVVGAAMACgBaACgAoAKACgAoAKACgD468H/APGGX7TbfDGY/Z/g/wDG7UJb7ww54h0HxM2DNp47JFcDDRLwN2FUcO1AHsnxC8A2n7Uf7NuveA/FUdrA/izTrm3jkRD5dtdRysbaYAkn5JY4n687T60AY37E/wAXtX+LnwH0z/hMt8fjXwbczeEfFlvKcyx6pYkRSM/+1InlyHtlyB0oA96oAKACgAoAKACgAoAKACgAoAKACgAoAKACgAoAKACgAoAKACgAoAKACgAoAxvGni7QvAHhDWvHHie8FrpGgWE+pX0x/gghQu5A7nCnA7nAoA+a/wDgn74e1DVvBviv9ojxr5S+NfjNq/8Awkt7b+YGlsNKIK6XanuEEGXQnqki+lAHUfthfGvxP4D8N6P8JvhDtufix8UbltE8MQq3NihH+k6lJ12x28ZLbiD8204IVsAHoXwC+Cvhj9nz4U6H8LfCpaaHTIi93eyj99qF5Id09zKepd3JPJOBtUcKKAPQ6ACgAoAKACgAoAKACgDxP48/sp/s3fHBf7T+KXg7TLbWUVpIPENnMNP1OAxru3i5Qqz7ApbEm5VwTigD8Lv2q/HU2vfEe+8FWPxal+J/hvwncyWeg+KL+FJNQubUhf3cl2UWW4RGBVdzMgwzR4VzkA8UoA/YX/gmB4attH/Zkh11V3XPiHWr26lmYksywlbaNcnoFWDgAkDJ9SK+F4gqOeM5eyX+f6n2WRwUcLzd2/8AI+uK8Q9kKACgAoAKACgDxCyc+Ef+CiPw+1KxZoR4+8Caxol8qH5ZzZSLdRsw4G4dA3JxxwOa+x4aqOVGcH0f5/8ADHynEEEqsJ91+X/Dn21X0h8+FABQAUAFABQAUAFABQAUAFABQAUAFABQB8eftrgaR+0R+y/4xk+VLbxDruibyeN1/YJGoweOTH659Aa83OIc+BqLy/JpnoZVLkxkH5/mrHrFfnh92FABQAUAFABQBk+LtZTw54U1rxDJII00vT7m9Zzj5RHGzk88fw9+KulDnmo92RUlyQcuyPkH9j79iP4meG/gn4H/AGi/2b/jCnhPx94k0b7Tqema9psd9pOoxtLIY03eX51uDHs3Moc5ztIBBr9SPzc98tv24fiF8GbmPRP20/gLrHgeLeIh4z8No+reHZiTgO5j3S2+eyHzH9QKAPp34f8AxM+HvxW0GPxP8NvGmj+JdLkwPtOm3aTqjEZ2vtOUb1VgGHcUAdNQAUAFABQAUAFABQAUAFAHnH7QnwR8N/tC/CjWvhj4jdrY30Yn07UIx++02/j+a3uoyMEMj4PBGVLLnDGgDzv9if42XfxH+H198OvG0VlZfEb4Z3P9g+KLS12eVO4z5N/FswrRXCgyblABffgYxkA5CT/jHH9vJJf+PfwV+0Zp/lt2itvFNgnB9F8+BseryN320AfXVABQAUAFABQAUAFABQAUAFABQAUAFABQAUAFABQAUAFABQAUAFABQAUAFAHyP+3RqF98U9c+HP7Gfhu7ljufihqq3/ieSBsPaeG7FhNcMSPumV0CoejGNl/ioA91vH8M/BPTfGPxD8SX2n6N4R03TbWYFMgWlraW5QrtxjoAqKuSeABkgUAeLfsheDPEvxP8Va5+2r8WNKms9e8dQCx8G6Tc8toPhdW3QIB0Etwf3rkdQwIxvZaAPqygAoAKACgAoAKACgAoAKAPMf2hfgv8H/jh4Ak8OfHGFZPC+nzf2jK0mpPYxwSqjqszzKykBN5Iy23ONwI4oA/ny/aJ+Gvw++FvxP1Xwx8Kvipp/wAQvDEEn+iavZRvhMk/uJH2iKSRQPvws0bAggg5RQDl9G+GnxA8Q+Ddb+Ieh+D9Vv8Aw14clhg1bVILZnt7N5c7BIw6Z28noMrnG5cgH7Df8E+S1j+zdZeEZQVm8Ka9rWjTIcbkdL6WQqe+f3o6gHnp0r4LPocuOk+6X5W/Q+1yWXNg4rs3+d/1PpKvHPWCgAoAKACgAoA8O1hBrv8AwUC+Bemph28L+HPFGtuv9xbi3W1Dcc8nj5sD0OeK+u4ZhaFSXdr8L/5ny/EMrzpx8n+n+R9uV9OfOBQAUAFABQAUAFABQAUAFABQAUAFABQAUAfOf7fXww8QfEj9nTU9R8E2ZufFvgPULPxpoCKCXN1YSb3CAclzAZ1VRyWKjvUVIKpBwls1YqE3Tkpx3WpX+F3xF8PfFv4faD8R/C04k03XrNLqNSwLQseJInxxvRwyMP7ymvzPEUJYarKlPdH6HQrRxFNVYbM6msTYKACgAoAKAPn79s/xFq118N7P4HeCf3/jT4vX8fhXR7ZWIKwyMv2y4kxyIUhLB2/h8wE8Zr2MjwrxGKU+kdf8vx/I8nOcSqGGcestP8/68z7S8F+E9J8B+DtC8D6BF5WmeHtNttLs0/uwQRLGg/75UV96fFGrc21te28tpeW8c8E6GOWKVAyOpGCrA8EEcYNAHzH4/wD+CfXwg1XX5PH3wV1fXPgv42OWXV/BlwbW3kOc7Z7MEQvGTnKJ5e7uTQBzI+Kf7dH7Nw8r4y/DGz+OPg+3+94m8Dxi31uKMfxz6cQFlbAPEQCjqXoA9j+CP7Xf7P8A+0EPsfw78f2ja2mRPoGog2WqQMv3lNvJhm245ZNyj1oA9koAKACgAoAKACgAoAKAPiz48fDnxX+zXfeFv2wPAliL/UPBttJpPxE0uwyRrPhqScu0wBA3TWpYSAkD5V5O2PBAPSv2rfAlv+0p+zG/iT4U6ol5rmmx2njrwLqdp8zG+th59u0X+1IheMZ6GQZ6UAei/s9fGHSfj58F/CXxa0gIi+INOSa5gQ5FtdrlLiH1+SZJF56gA96APRKACgAoAKACgAoAKACgAoAKACgAoAKACgAoAKACgAoAKACgAoAKACgBkssUETzTSLHHGpZ3Y4VVHJJJ6CgD5F/Y0il+OPxY+J/7Z+qRs9j4jvG8H+BTID+78P2Mm15kz0E86lyOzxv2NAGV8U7rV/2x/wBpS5/ZotJIZPhH8MLy01jx9PATjVb4KHttIZgSGUSqzyKAMeWQcOi5APtCOOOGNYYY1SNFCqqjAUDoAOwoAdQAUAFABQAUAFABQBxfxQ+M/wAKvgroZ8RfFXx9o3hmxIJja+uQsk5HVYohmSVv9lFY+1AHza37Ynx0+PTnTv2Nv2f7290qb5V8eeOlfTNGUdPMgh/11yvP8JDA9YyKALWmfsFah8TdRt/FH7ZPxq8RfFi/jcTx+HreRtL8OWj9glrCVMhXgbyU3AfMpoA8f/4KCfsoXfxj+IPwC/Z2+BvhSw8NaPbpr2oam9hYLBp2l2RawU3MiRgKXG11UHBd3Vc/MSAD7a+D3wI+HHwR+E+n/BvwdoMB8P2ls8F0l1Gsrai8gxPLc5GJGkyd2RjGFACgKAD5X8N2w+BP7ZnxK+FGpxfY9E+LUi+PvCcmcRT3pTZqkHp53mL5u0dI1BPUV8xxHhXKMcRHpo/0/rzPosgxKjKVCXXVfr/Xke/18ifUhQAUAFABQAhIUFmIAHJJoA8c/YvtT8YPj18V/wBqhYPM8PBIPAHg27JyLmytHMl7PH6xSXGwow64cHlTX6HlOFeEwsYS3er+f/APhMzxKxWJlKOy0XyPs+vSPPCgAoAKACgAoAKACgAoAKACgAoAKACgAoAKAPgTxtoV/wDsHfE691yOC7uf2f8Ax/qbXUzxQmT/AIQrWJ2+bdt5FlMx4OMIcKMEfvfCznK/rkfa0vjX4r/PsezlWZfVJeyqfA/wf+R9EadqOn6xp9tq2k30F5ZXkST29xBIJIpomAKujDhlIIII4INfESi4txkrNH2KakrrYsUhhQAUAcj8U/ir4G+DPg688c/EDWo9O021G1QeZbmYglYYU6ySNg4UehJwASN8PhqmKqKnSV2Y18RTw0HUqOyOd/ZL+D3jnxt45n/a++O2l3Gla/qdk+n+CvC86bT4c0aQ58yUHn7XOOWzgqrMpxu2R/oOAwUMBRVOO/V92fDY3GTxtV1JbdF2R9d12nGFABQAUAeOfG39kT9n/wDaB/034heAbQ62mGg1/TSbLVIHX7rLcxYZtvUK+5Qe1AHjY+Fv7dH7N2Zfg98TrP45+D7flfDPjeUW2twxD+CDUQQsrYAGZSFHQJQB03w+/wCCgvwg1fXY/AXxp0nXPgv424DaR40tzawSnON0F4QInTOMM/l7uwNAH05bXNte28V3Z3Ec8E6CSKWJwyOpGQykcEEc5FAEtABQAUAFABQBzPg3VW8c+B7e/wBfsbSVdTjnhubcR5hkj3vGVKsTkFRgg5zk0AfMv7P15c/spfHbUf2QvEtzKPA/itrnxF8Kr64clYkLF7zRtx/iiYmSME5KkknLqtAE37Pv/GPf7V/xI/Znuf3Hhnx2G+I/gdTxHG0rbNSs07DbIodYx91FLfxUAfXVABQAUAFABQAUAFABQAUAFABQAUAFABQAUAFABQAUAFABQAUAFABQB8z/ALfPxD1/QPg9a/CTwBN/xXHxi1OLwVoaqSGiS5O27uDjkIkBYFx90yI3agCP4z+NLX9kH9n7wf8ABb4L6cNQ8cazBb+DfAWmBV33F7sCPeyjpsj3GaRj8u5gGIDZAB3/AOzH8EPC37P3w3g+H+majb6r4jBGoeKtVLh7rUtUny8txMT8+GYtsDchAOpySAeu0AFABQAUAFABQB4V8av21f2e/gZenw94j8Y/214qd/Kg8MeHYv7R1WaU9I/JjOImPYSsme1AHlp8Uft+ftJ4Twb4X0v9nbwXc8f2pr8Y1LxLPEeN0dpgR25IzlZArr1V6AO0+GH7AnwK8D64PHfjmDVfin44ch5vEfje6OpTGQc5jif91GAeV+VmXjDUAfSSqqKERQqqMAAYAFAC0AN8uPzDL5a7yu0tjnHpn0oAdQB4h+1h+zvL8fvA9jJ4X1xvD/j7wdef234Q1tQD9lvlGDFICDuhlACuORwrENt2mKlONaDpzV0y6dSVKSnB2aPJPgH8fIvijFf+CvGukt4W+J/hYm28TeGbkeXLBKuAbiAEnzLZyVKuCRhl5IKs35/mWW1MBU7wez/R+Z9xl+YQxsO0luv1Xkev15p6AUAFABQB85/FTx14q+P3jib9lP8AZ61RlvpwY/Hfiy3j8228M6cSVlhV87WvJAGRUByMt0IZo/pMlyl1ZLEV17q2Xfz9Pz9D5/NszVOLw9F+91fby9fyPtD4ZfDnwr8IvAGg/DTwTYm00Tw7ZR2NnGxDOVXq7sANzuxZ2bAyzMe9fYnyh09ABQAUAFABQAUAFABQAUAFABQAUAFABQAUAFAFPV9I0rxBpd1omu6Za6jp19C1vdWl1CssM8TDDI6MCGUjggjFAHxrrn7I3xr/AGe7u51z9j7xXaax4VeeS5m+Gfiici2i3tuZdNvT80BJJ2pKdmSWZm4FeZjsqw+O96StLuv17noYPM6+D92LvHs/07GHP+1zqPgmVtP+O37OvxQ8AXsXLzjR21XTWA+8Y7y2ysgUZJwvQZ9q+drcO4mD/dtSX3f19579LPsPNfvE4v7/AOvuIV/4KA/szXDfZdM8S+INR1BeH0+18Mai1wjH7qlTCBlu3P5VzLIsc3bl/Ff5m7znBpX5vwZZg+P3x4+KYay/Z1/ZX8X3qykJH4g8aIuh6XHk/wCuCyN5twg7qm1jzjpz34fhupJ3rzSXZav+vvOKvn9NK1GN35/1/kekfB/9iy9t/Gun/Gf9pzx0vxK8eacrPpdktuItB8PuxBJs7cjLuMACaQBjhW2hgGH02FwdHBx5KKt+bPnsTiquLlzVXf8AQ+p66TnCgAoAKACgAoAKAOZ+IHwy+HvxW0CTwv8AEnwXo/iXS5Mn7NqVok6oxGNyFhlG9GUhh2NAHzFdfsQfET4Lzy6z+xX8etY8ERbzKfBniR31bw7MSclEEm6W2z3ceY/oRQAtv+3F4/8AgxcRaJ+2n8BtY8Dx7xCPGXhyN9W8OzknAdmj3S2+eyHzH9QKAPp3wB8S/h98VNAj8UfDfxno/iTSpcAXWm3aTqrEZ2vtOUYd1YBh3AoA6WgAoAKAKWjf2N/ZsP8Awj/2L+z/AJvJ+x7PJ+8d23Z8v3s5x3zQB5T+1T8Bf+F+/C+TRdF1L+x/GXh+7i17whrSHbJp2r253QuG6hGPyN14bOCVFAHy58Tvifrnxq/Z48LftYeH9BOm/F79nDxE83ivQQNk0Hk4h1iyI6rFLDiYHJwiMuSwNAH3f4Q8V6H468KaN418M3i3eka9YQalYzj/AJaQTIHRvb5WHHagDXoAKACgDyT4h/tafs0/Cq+k0rx78bfCel6hEGMtl9vWe5j29d8MW51PoCAT0GaAOBtP+ClH7EN7etp8Px605ZUZVLS6XqEUeW6YkeAIR6kHA74oA9h+G/xx+Dvxgt2ufhf8TfDfibYCZItO1GOWaIf7cQO9P+BKKAO4oAKACgAoAKACgAoAKACgDF8WeNPB3gPSZNf8ceK9H8PaZF9+81S+itYF+ryMF/WgDwfW/wDgo3+xP4fLC/8Aj7o0u0An7DZXl73xx5EL56flz0oA2PC37eP7HvjG8hsNF/aB8KLPO/lxrfzvYbmwCBm5WMc5AHqeBzxQB7pZ3lnqNrFfafdw3NtOoeKaGQOkinoVYcEe4oAmoAKACgD4w8Ia/ovxk/bC+IX7RHijUoLf4c/s76bc+FdGvbhsWy6q0Zk1a8z0BijzCSOqmMigDX/ZW0HWf2gfiZq37b3xC024trTUYZNF+GOk3S4bTdCDEPelD92e6O456hCQCyOuAD6Y0Xw/e6d4s8R69PLC1vq/2PyFRiXXyoirbgRgcnjBP4UAdBQAUAFAFXVNU0zRNPuNX1rUbWwsbRDLcXV1MsUUSDqzuxAUD1JoA+XPF3/BQfwDqGu3HgT9mnwR4h+OHi2E7Hh8NQldKtm6BrjUHHlIn+2gdP8AaFAGKPgF+2R+0av2j9pH42R/DPwtcfe8F/Dl9lzJGeqXWovuJOOGVPMjbPG3pQB7r8Ff2YfgT+z3Yi1+FPw50vSLlk2T6kyGfULjPXzLmTdKQTzt3BRk4AoA9SoAKACgAoAKACgAoA8Q/aI/ZQ8D/H6XTPFEeq6h4O8feHyW0Txfom1L61yCDFIDxPCcnMbdiwVl3NmKlOFaLhUV0y6dSVKSnB2aPBLnxJ+2Z8CQ+mfFf4Iy/FrRLPHl+LPALIb2eId5tLfDmbHLeXiMHgZ6183iuHIyfNh5W8n/AJ/8Oe/hs/lFcteN/Nf5f8MUn/b5/Z70sY8Zz+L/AAi4/wBZHrfhS/iaPt82yN/4sr9QfrXkzyHGx2in81+tj0451g5bya+T/QVf24Ph5roFt8Mfhz8T/H1/KdkFtofhK6O9/RnlCBQAVJPOAwPNXT4fxk371l8/8rkTzzCxXu3fy/zNOz+GX7Zv7SMptPFiw/s/eA5OJ4rO8i1HxPqMZHKrIn7q0UjvxIp4w4r3MHkNDDvnq++/w+7/AD+48fF53Wrrlpe6vx+8+qfgz8FPhv8AALwNZ/D34YeHYtL0u0G6R/v3F3MR8088h5kkbux6cAAKAB7x4p3VABQAUAFABQAUAFABQAUAFABQAUAFABQAUAFABQAUAFABQAUAFABQAUAFABQAUAFABQAUAFABQBFc21te28tneW8c8E6GOWKVAyOpGCrA8EEdjQB8xeP/APgnz8IdV1+Tx/8ABXWNc+C/jY5ZdW8GXBtbeU9ds9mCInjznKJ5e7uTQBzX/C1f26P2bz5Xxl+F9n8cPB9v97xP4GiFvrUUY/jn004WVsAnEQVR1L0AeyfBL9rr9n/9oH/Qvh38QLN9aTIn0HUQbLVIGX76m3lwzbcYLJuUetAHsdAHP+AfD974W8J2Og6hLDJcWvm72hYlDulZhgkA9GHagDoKAPjb9pHQ4/2Z/jLD+1Npumm5+HXjlIfC3xd0pIi8PkP+6tdXMYHJjL+XJxko2AMuzAA0f2D9cfwBd+Pf2R9V1T7afhrqP9o+FLsyiT7f4X1AmezkR+fM2FyrMCQN6KOlAH1xQB558dPjz8Nv2dvAs/j74l6ybSzEgt7O1hXzLvULlgdlvbxZzJI2DxwAASxABIcYuTstxNqKu9j85/iL8Uv2hf2qjLN8R/EV98P/AIf3bM1t4K0Kcw3Nzbk/KNRuh88hK/eiGF5+6jCv1Hh7w7niIxxOatxT15Fv/wBvPp6LXzTPznPOO40JSoZalJr7b2+S6+r08mjK8NfCX4aeEIhF4d8EaTakY/em3Espx0zI+XP4mv03BZDlmXq2GoRXna7+93f4n55i86zDHO9etJ+V7L7lZfgdJNpmm3EAtZ9PtpIVBAjeJSoB6jBGOa9KVGnOPJKKa7WOCNapGXNGTT9TivEXwM+GfiG6XVE8PJo+rQuJbfVNGc2N3BKDlZFePALg9CwNeBmPCWUZmn7WioyfWPuv100fzTPawHE+aZe17Oq2l0l7y/HVfJo9Z+Ev7Zvxi/Zz1Gz0L9oXWLr4g/DSQi3XxWtsW1nROfka8C5N1F2aTBk7kk4RvyLiTgvFZEnXpP2lHvbWP+JfqtO9tD9RyDi3DZy/Y1FyVe3R+j/TftfU/Rjw/wCIND8WaHYeJvDOrWmqaTqlul3ZXtpKJIbiFxlXRhwQQQc18UfXGhQAUAFABQAUAFAHxH+0p+3brg8U3vwU/ZWj0/VvE2nStB4h8V3kfnaXoLDhoox0uLkHjbyqEEEN82z3Mj4fxmf1/ZYZWit5PZf8Hslr8tTx85zzC5JR9piHq9ord/8AA7vb56HytJ8G9K8Ua2/jP4x67qnxI8VT8zan4gnaZF5z5cVvny44geiYIXoOOK/Zcq4EynLop1oe1n3lt8o7W9bvzPyfMuNMzx0mqUvZw7R3+ct7+ll5HaafoeiaSqppWj2Nmq/dFvbpGBxjjaB24r62lhaFBWpQUfRJfkfMVcRWra1Jt+rbKWs+B/BniK3e113wppN/G4wRcWcb/kSMg8nkVjicswWLi416UZLzimbUMwxeFlzUasovybRi+EPDnxG+AupyeJP2Y/iBd+FZHfzbrw5fyPeaFqBxyJIHJMbnp5iHcBwu2vg868OsJiYuplr9nPs7uL/VfivI+zyjjzFYdqnmC9pHutJL9H+D8z7t/ZS/bH8MftEQ3Hg3xHpR8I/E7Q4A+s+Grl871B2m5s3P+ugJIORkpuAOQVdvx3G4LEZfWlh8TFxmt0/61XZrRn6rhMXQx1FV8PJSi+q/rR+T1PouuU6Txz9rr42P8AvgF4m8e6cDLr7wrpfh62Vd73Gq3J8q2VU/j2s3mFe6xtQB8jeGvhJdeJ7DwP8A8E7vDV7M2jeGbW38W/HPWraYlri6nf7QNK80ctJNKRk53CKNCCdjrQB+imn2FjpVhbaXplpDaWdnClvbwQoEjiiRQqoqjgKAAAB0AoAx9F8QXuo+LPEegzxQrb6R9j8hkUh282Is24k4PI4wB+NAHQUAcX8UPjP8KvgroZ8RfFXx9o3hmxIJja+uQsk5HVYohmSVv9lFY+1AHza37Ynx0+PTnTv2Nv2f7290qb5V8eeOlfTNGUdPMgh/11yvP8JDA9YyKALOl/sFal8TdRg8U/tlfGvxD8WL6NxPF4etpG0vw7aP2CWsJUyEcDeSm4D5lNAH1H4Q8FeD/h/oUHhjwL4W0rw/pFt/qrLTLSO2hQ9zsQAZOOT1PegDaoAKACgAoAKACgAoAKACgAoAKACgAoAKACgAoAKACgAoAKACgAoAKACgAoAKACgAoAKACgAoAKACgAoAKACgAoAKACgAoAKACgAoAKACgAoAKACgAoAKAPG/jb+yH+z9+0ATffELwBaHXFw0Gv6aTZapA6/cYXMWGbb1CvuUelAHjg+Fv7dH7N2Zfg98TrP45+D7flfDPjeUW2twxD+CDUQQsrYAGZSFHQJQBq/B3/gon8JPFc1n4P8AjZb33wk8cTbg2n+J7VrOyuPnIDW925Mbp0GXZNzZ2gigD6ut7m3vLeO7tJ454JkEkcsbBkdSMhgRwQR3FAGL4707wprXg/WNB8cWltd6FqllPZX9rcY23MLxsHjx3JXdgDn0oA/JXQPizD+y/wDGH4eeLJvEreIPDngy2FhpniGFvM/4SP4a6lNttyxGC02nXR2GLhtxVdoWImgDpf2Xf+CgnxI+OX7W1vY+Ktfj8O/D6PV/EXjG5hdyPL0+HRGht7ads7RFAkBnbAw0zu56LgApan461/8Aap+J0v7QvjhHTQrKWa08A6HImI9PsA+PtjqetxNtDFu3GOAm39g4A4YhGms3xSvJ/An0X83q+nZa9Vb8s434ilKbyvDOyXxtdf7vouvd6dHfra/VT81CgAoAKAGTwQXUElrdQxzQzIY5I5FDK6kYKkHggjjFKcIzi4yV090OMpQkpRdmje/Yy+LWo/s5/GLT/wBnrXdSMnw0+INxM/hRrgnOi6yTuNir/wDPKck7FP8Ay0Kgcly38/8AGnDayLFKrh1+5qXt/dfWP6ry06XP27hLP3nOGdOt/Fhv5ro/8/P1sfpRXxZ9cFABQAUAFAHyB/wUA/aG8UeCNN0L4A/CXVlsfHXxDSU3OoIC0miaKmVmuwB92RyDHGx7iTBDBSPUybKqudY2GDo6OW77Jbv+t3ZHnZtmVLKcJPF1emy7vov66any/wCCvBmg+APDlp4Y8OWvk2lqvLNgyTSH70kjAfM7Hkn+QAFf0nluW4fKcNHC4ZWjH72+rfds/n/MMfXzPESxOId5P7kuy8kbldxxhQAUAFAHH+OvC2uz3ulfEP4d6q2iePvCM327QdTjUZLjO63lB4eKQFlKnj5jkEFgfleK+G6Wf4V8qtWj8L/9tfk/wevdP6ThrP6mSYn3taUviX6rzX4rTtb9Gf2Wvj5pn7SXwX0T4mWttHZanIHsNd01M50/VIcLcQEN8wGSHUNzsdCetfztOEqcnCas1o0fu8ZRnFSi7pnxv+3N8el1P9prw34M0HTv+Eg/4VF9n1DT9EQbxrHjjUBs0i1ZR1ECH7STkcLKmQzLmSj69/ZU+Ah+AfwxXS9e1D+2PG3iS6k17xjrTndJqOrT/NM27qUQnYnQYXdgFmoA9loA8D+Mn7ZP7NvwF1a40rW/E8Gr+Mrt0hPh3w1bDUNYuplGEieOL7jYPyiZk46UAeaHxR+35+0nhPBvhfS/2dvBdzx/amvxjUvEs8R43R2mBHbkjOVkCuvVXoA7T4YfsCfArwPrg8d+OYNV+KfjhyHm8R+N7o6lMZBzmOJ/3UYB5X5WZeMNQB9JKqooRFCqowABgAUALQAUAFABQAUAFABQAUAFABQAUAFABQAUAFABQAUAFABQAUAFABQAUAFABQAUAFABQAUAFABQAUAFABQAUAFABQAUAFABQAUAFABQAUAFABQAUAFABQAUAFABQAUAFAHGeKPhl8I/it4PXwv4p8F+GvEvhuTeYraa0int0YkhmiIGEbdn5kIYHPOaAPnCf9iD4ifBaeXWf2LPj1q/gqHeZT4M8TO+reHZiTkogfdLbZ7uPMf3FAHh/wC1d8cP2gdX+F998K/2lPBl18Ipb2M2sniay0C38T+DdVz93zmMUtzYMTjYyGSRPvbNwBAB+RkqmKR4PMVxGxGUOVPbI9jigDsPhO2p3nic+E9IeSK48WQpoTTxHDQwzTxGY57AxJIjequw6E125bg5ZhjKWFj9uSX3vV/JanHmGLWBwtTEy+ym/uWn3n6V2NlaaZZW+nWFukFraxJBBEgwscagBVA7AAAV/UtKlCjBU6atFJJLslsj+calSVWbqTd23dvu2T1ZAUAFABQAUAcD8c/D114g+GWrvpbyRato6LrOl3ETbZYLu2Pmo8bDlXwrKCP71fOcW5cszyitSteUVzL1jrp6q6+Z73DGPeX5pSqXsm+V+ktNfR2fyP1K+CHxHtvi98H/AAZ8T7VQo8TaJaalJGBjypZIlMsf/AX3L+Ffzafv529ABQAUAFAH5L3Hidvi3+0V8X/jPOWlt5debwrojOSfL07TwIsxg/dSV18wj+9k4Br9l8M8uVPDVcfJayfKvRav72/wPyjxCx7niKWCi9Irmfq9F9yX4nS1+oH5yFABQAUAFABQAfs0/HDQv2XfjB8Yx4olaHwzr/g8eOraAPtR9SsmMMsMY6CWfzVJOPmITJ6CvwHxAy5YLN3VgrRqpS+ez/FXfqftvBGPeMytU5O7ptx+W6/B2XoXP+CbHwc1Hxnq3iD9u34/3VtAL7UdR1DQZNQcRQR3E7kXupEucIoCi3i5ACo5wPlNfEH2B9FeLv8AgoP4B1DXbjwJ+zT4I8Q/HDxbCdjw+GoSulWzdA1xqDjykT/bQOn+0KAMUfAL9sj9o1ftH7SPxsj+Gfha4+94L+HL7LmSM9UutRfcSccMqeZG2eNvSgD134B/so/CT9nTVNZl+G/gnSdNgvY7aO3uzuuNQYKhEvm3EoL4Zzu2htvsOBQB7VQAUAFABQAUAFABQAUAFABQAUAFABQAUAFABQAUAFABQAUAFABQAUAFABQAUAFABQAUAFABQAUAFABQAUAFABQAUAFABQAUAFABQAUAFABQAUAFABQAUAFABQAUAFABQAUAFAHP+AfD974W8J2Og6hLDJcWvm72hYlDulZhgkA9GHagDoKAPgr9uO2/b6+O6Xnwj+AXwfvPD/gC48y11PXbrX9NtrvWo+VZBGbjzYLZsEYK75FI3BVJQgHw7pn/AASK/bMvxH9q8O+GNO3vtP2nXom2D+8fKD8fTJ9qAIn/AGJPiz+yj8Z/hfd/Fm+8NzQ+KLvU1sxpV1LcGKS1tQ+Jd8SBdxlXbtLH5WzjAz9TwVGM8+w6l3f4Rk1+J83xdJxyWu49l/6Urn0zX9GH4MFABQAUAFABQBW1OGC4027gumCwyQSJISu4BSpByO/Has60YzpyjPZp3NKMpRqRlHdNH1n/AME1ru9vf2IfhdNqCOkq2V9EoZ958tNQuUjOfQoqkDsCB2r+Tj+mT6ZoAKACgAoA/Gr9mqWe7+FNtqV8Ct/f6lqVzeqxyyzteS7gxPLHgcnmv6E4BjGOQ0murlf/AMCa/Kx+G8aybzqqn0Ubf+Ao9Sr7E+UCgAoAKACgAoA8I+OPwa8b/Hr4v/Dz4VfDeWyGt+JLXUoZheztBbfZYPJuGMzqCxQeWWwoJyowMmvyDxRjFVMNJb2n/wC22/Nn6l4cyl7PER6Xj/7d/wAA+7fBP/BOq28QWWj/APDU3xY1r4j2+iQQw6b4S09m0nwzpscShY44rWEgybAFAclCwHzq1flJ+ln1n4Q8FeD/AIf6FB4Y8C+FtK8P6Rbf6qy0y0jtoUPc7EAGTjk9T3oA2qAOf0XxBe6j4s8R6DPFCtvpH2PyGRSHbzYizbiTg8jjAH40AdBQAUAFABQAUAFABQAUAFABQAUAFABQAUAFABQAUAFABQAUAFABQAUAFABQAUAFABQAUAFABQAUAFABQAUAFABQAUAFABQAUAFABQAUAFABQAUAFABQAUAFABQAUAFABQAUAFAHP+AfEF74p8J2OvahFDHcXXm71hUhBtlZRgEk9FHegDoKACgAoA+Jv+Co+gXNn4E+G/xjhQNbeAvGNv8A2m2MGKwvVMEkm7sA/krjod4z0r18hxqy/M6GJltGSv6PR/gzy86wjx2XVsPHdxdvVar8TxWv6eP52CgAoAKACgAoA5L4teJYvCHw08SeIZWwbXTpRF82MyuNkYz2y7KPxryc+xqy/LK+JfSLt6vRfi0enkuEeOzCjQXWSv6LV/gmfot+yX8Pb34Vfs0/DbwFqkIhv9L8PWn22LaF8u6lTzZkx6iSRxnqcZPJr+YD+ij1qgAoAKACgD8hfA2gXPw78d/FL4OaggjufB/jG+8hQMBrC6Yz2sgX+EMjFsDj61+4+G2NVbLJ4brTl+EtV+Nz8d4/wjo5jHEdJx/GOj/Cx29foh8IFABQAUAFABQBt/sf6FceOP24bnXIYg2n/DPwbILiUjdsv9QkCxx/7JMCyNkYJ2kdK/DvEnGqvmcMNH/l3HX1lr+Vj9i4Awjo5fOvL7ctPRafnc/Sivzs+7CgAoApWv8AY39pX32L7F/aH7r7d5Wzzvu/u/Nx833c7d3bpQBdoAKACgAoAKACgAoAKACgAoAKACgAoAKACgAoAKACgAoAKACgAoAKACgAoAKACgAoAKACgAoAKACgAoAKACgAoAKACgAoAKACgAoAKACgAoAKACgAoAKACgAoAKACgAoAKACgClo39jf2bD/wj/2L+z/m8n7Hs8n7x3bdny/eznHfNAF2gAoAKAOP+L3wv8NfGn4ZeJPhX4vhL6V4lsJLKZlALQseY5kzxvjkCSLn+JBQB+Wfw9u/E3hbUtX+B/xOVrbxx4EmNheJKpU39opxb3sW7l45I9h3DPUE43Cv3/gjiGOb4FYerL99TVn3a6S8+z8990fiHF+RyyvGOvTj+6qO68n1Xl3Xl6M7mvtj5EKACgAoAKAMf4XfDn/hqv8AaF0j4bxWz3nw/wDh/dR6741uVTdb3NzGc2umFvusXcEyL/dV+jJX454icQQxE1lWGldRd5279I/Ld+duqP1bgTI5UIvMq6s5K0PTq/n08r9Gfq3X5afo4UAFABQAUAfn1/wUJ+F938MPiLo/7W3hrTp5NEvoIvD3xBjt4i/lwg4s9RYLz8hxCzc/KIlH3jX0/CWe/wBhZgqtR/u5aS9Oj+T/AAuup87xPk39tYF04L95HWPr1XzX42fQ88tLu1v7WG+sbmK4t7hFlilicMkiMMhlI4II5zX9GU6kasVODunqmtmj8GnCVOThNWa0aZLVEhQAUAFAHO+PvHGj/D3wzdeJNYckR4jtrdOZbq4biOGNRyzMfToMk8A15ub5rQybCSxeIei2XVvol5v8N9kehleW1s2xUcLQWr3fZdW/T/gbn2b+wR8AdY+C/wAIJvEnj6zaL4g/ES7/AOEh8SiRNslqzA/Z7LHUCGNsbT915JB0xX8zY3GVcwxE8VWd5Tbb+f6LZeR/QmEwtPBUIYeirRirL+vzPpiuU6QoAKAOf0Xw/e6d4s8R69PLC1vq/wBj8hUYl18qIq24EYHJ4wT+FAHQUAFABQAUAFABQAUAFABQAUAFABQAUAFABQAUAFABQAUAFABQAUAFABQAUAFABQAUAFABQAUAFABQAUAFABQAUAFABQAUAFABQAUAFABQAUAFABQAUAFABQAUAFABQAUAFABQBz/gHw/e+FvCdjoOoSwyXFr5u9oWJQ7pWYYJAPRh2oA6CgAoAKACgD5x/a7/AGRLP9oaz0zxn4M1xPC3xN8LKw0TWyhMNxCSS1ldqBl4GJPOCUJJAILK3ZgMfiMsxEcThpcs4/1Z90+qOXG4KhmFCWHxEbxf9XXZ9mfCNp8QtS8LeJm+GPxw8Oz+BPHFsxiezvwUtL8g7fNs7g/u5Y2OCuGPXALYzX7nw9xvgc3jGliGqdbs9m/7r8+z16a7n41nnCGMyuUqlBOpS7rdeq8u609Njua+2PkQoAgvr+x0y0l1DUryC0tYF3yzzyCOONfVmbAA9zUVasKMHUqySit23ZL5l06c60lCmm29ktWcz4G0z4nftU6+3gb9nq3mstCR2j1zx9d2rrp+nxjhktc4+0XBz8oU8cHgfOv5bxPx/TjB4XKHeT0c+i/w9357Lpfdfo3D3BE5SWJzNWS1UO/+LsvLd9bbP9LfgN8C/Av7O3w20/4aeAbWUWdoWmury4YPc6hdvjzbmd8fNI5H0AAUAAAD8glJyd3ufqaSirLY9DpDCgAoAKACgCnq+kaX4g0q80LW9PgvtO1G3ktbu1uEDxTwupV0dTwVKkgg9jQB+Y/xq/Zr+If7HeoXGu+CNN1bxr8FbmeSX7PbRtc6p4T3HdtZRlprQc4fqo+8QeZPveFONKmTWwmMvKj07x9O68vmuz+K4l4Sp5tfE4W0avXtL17Pz+T7rH8KeMvC3jjSk1rwnrlrqdo+MvC+WQkZ2up+ZG/2WANfteAzHC5nSVfCVFOPl09Vun5PU/IsbgMTl1X2OKg4y8/0ezXmjZrtOQKAOQ8afFLwp4KuINJup59S129YR2OiaZCbq/upG+6qQpluexOAa8LOeI8vyOF8VP3ukVrJ/Lp6uyPZyrIcdnErYeHu9ZPSK+fX0V2fRH7J37GvjHV/FukftFftM2aWuq6ePtPhPwUG3w6IW5W5uz0ku8YwOkZ5IDALH+D8QcR4riGv7StpBfDFbL/N93+SP2jI8hw2R0fZ0tZP4pdX/kuyPuqvnz3AoAKACgDn9F8QXuo+LPEegzxQrb6R9j8hkUh282Is24k4PI4wB+NAHQUAFABQAUAFABQAUAFABQAUAFABQAUAFABQAUAFABQAUAFABQAUAFABQAUAFABQAUAFABQAUAFABQAUAFABQAUAFABQAUAFABQAUAFABQAUAFABQAUAFABQAUAFABQAUAFABQBz/gHxBe+KfCdjr2oRQx3F15u9YVIQbZWUYBJPRR3oA6CgAoAKACgAoA4/4ofCH4ZfGnw1J4Q+KngnSvEulOSyw3sO5oWIxvikGHhfHG9GVvegD5Y13/glz4Bsrh5vg98aviH4Dt2zt00XqanYQkfd2RzjeBnGcyHIGOK9fBZ9meXrlw1eUV2vdfc7o8vF5Ll2OfNiKMW+9rP71qYcX/BNT4pyTGLUf2ztalsQQEjt/BtnBOFP3gZvNOSex28e9elLjXPpR5XiH90V+PLc4I8I5LGXMqC++X5XO08Gf8EwvgBp17DrPxU1rxf8UtRhkWVB4k1VhZRuDxstoNi7fVHLqcnIxxXiYzMsZmEubFVZT9W39y2XyPXwmX4XArlw1OMfRJfj1PrLRtF0bw5pVroXh7SbLS9NsYhDa2dlAkEEEY6IkaAKqj0AArhOwu0AFABQAUAFABQAUAFAHzZ8W/8Agnv+zP8AFjWbnxaPC9/4M8T3RLSa34Rvm0y4Zycl2jUGBnJ5LtGWJ6k1tQxFbDT9pQm4y7ptP70ZVqFLER5K0VJdmk1+J5He/wDBM/4gWmV8I/tj+J7NB9wat4ZtNSI57kyR7vlwPrk98V9BS4yz2irRxD+ai/zTPDq8J5NV1lQXybX5NFnTv+CYU+oSLH8RP2qfiDrFmT+9t9ItrbSPNX+6WUSHBOc+oIHGM1jieKs5xUXGpiJWfZ8v/pNjWhw3lOGlzU6Eb+ev53Poj4Ifsm/AD9ngy3fwu+HtnY6rcqVudYupHvNRmyPmBuJizqrYyUQqhPO2vAlJyfNJ3Z7aioqy2PXqQwoAKACgAoApWv8AY39pX32L7F/aH7r7d5Wzzvu/u/Nx833c7d3bpQBdoAKACgAoAKACgAoAKACgAoAKACgAoAKACgAoAKACgAoAKACgAoAKACgAoAKACgAoAKACgAoAKACgAoAKACgAoAKACgAoAKACgAoAKACgAoAKACgAoAKACgAoAKACgAoAKACgCkdF0r+ypdDj0+GHT5onha3hXyk2PncAFxjO49MdaAMzw/4B8J+Fr19Q0HSfstxJEYWfz5XyhIJGGYjqo/KgA8QeAfCfim9TUNe0n7VcRxCFX8+VMICSBhWA6sfzoA0/7G03+xv+Ef8As3/Ev+y/Y/J3t/qdmzbuzu+7xnOfegDM8P8AgHwn4WvX1DQdJ+y3EkRhZ/PlfKEgkYZiOqj8qADxB4B8J+Kb1NQ17SftVxHEIVfz5UwgJIGFYDqx/OgDT/sbTf7G/wCEf+zf8S/7L9j8ne3+p2bNu7O77vGc596AMzw/4B8J+Fr19Q0HSfstxJEYWfz5XyhIJGGYjqo/KgA8QeAfCfim9TUNe0n7VcRxCFX8+VMICSBhWA6sfzoA0/7G03+xv+Ef+zf8S/7L9j8ne3+p2bNu7O77vGc596AMzw/4B8J+Fr19Q0HSfstxJEYWfz5XyhIJGGYjqo/KgA8QeAfCfim9TUNe0n7VcRxCFX8+VMICSBhWA6sfzoA0/wCxtN/sb/hH/s3/ABL/ALL9j8ne3+p2bNu7O77vGc596AMzw/4B8J+Fr19Q0HSfstxJEYWfz5XyhIJGGYjqo/KgA8QeAfCfim9TUNe0n7VcRxCFX8+VMICSBhWA6sfzoA0/7G03+xv+Ef8As3/Ev+y/Y/J3t/qdmzbuzu+7xnOfegDM8P8AgHwn4WvX1DQdJ+y3EkRhZ/PlfKEgkYZiOqj8qADxB4B8J+Kb1NQ17SftVxHEIVfz5UwgJIGFYDqx/OgDT/sbTf7G/wCEf+zf8S/7L9j8ne3+p2bNu7O77vGc596AMzw/4B8J+Fr19Q0HSfstxJEYWfz5XyhIJGGYjqo/KgA8QeAfCfim9TUNe0n7VcRxCFX8+VMICSBhWA6sfzoA0/7G03+xv+Ef+zf8S/7L9j8ne3+p2bNu7O77vGc596AMzw/4B8J+Fr19Q0HSfstxJEYWfz5XyhIJGGYjqo/KgA8QeAfCfim9TUNe0n7VcRxCFX8+VMICSBhWA6sfzoA0/wCxtN/sb/hH/s3/ABL/ALL9j8ne3+p2bNu7O77vGc596AMzw/4B8J+Fr19Q0HSfstxJEYWfz5XyhIJGGYjqo/KgA8QeAfCfim9TUNe0n7VcRxCFX8+VMICSBhWA6sfzoA0/7G03+xv+Ef8As3/Ev+y/Y/J3t/qdmzbuzu+7xnOfegCl4c8HeG/CX2j/AIR/Tvsv2rZ5376STdtzt++xxjcenrQBtUAFABQAUAFABQAUAFABQAUAFABQAUAFABQAUAFABQAUAFABQAUAFABQAUAFABQAUAFABQAUAFABQAUAFABQAUAFABQAUAFABQAUAFABQAUAFABQAUAFABQAUAFABQAUAFABQAUAFABQB8VfErxL+0Pp/wC3F4S+AuhftKeItN8L+NdD1LxGY4/D2hySaf5TzmO2heSyZmjAjVd0hZyOSxPNAHs/7Y2q/EXwn8BPFnxF+GfxL1Hwhqvg/SL3WFNrp1jdpfGKIssMou4ZQqZGcptb3oA5v4MeO/Ftj+yTpPxY+Lv7RNhDrHjLw1Z6pa6/4pt9M06w0a9u7RTFGBDHBHJGJnBCyEs33c0Aeq/AjVda1r4ReGNS8R/Erw98QNUls9t54l8PmI6fqMyuyu8Pk/u8AqVO3A3K3yr90AHmX7Sfxp0e6+EXjy8+CH7R+iaT418BaLqXiCW00S70rU7qT7JaTP8AZ7i3nSYpGXCFiFVxtADAEggHoX7OnjHXPG/7PPw48e+MtTW71fXPCWl6rqd40ccIluJbWOSWQqgVEBZmOFAUdgBQB4f+2X+0G1j8A/FnxM/Zs/aW0aDXvAUMc95Y6BNpGsLcedd28AFyksczRBN742bMlvmzgAAH0/4Y1WS78HaTrerXSeZNpkF1dTvtRcmJWdz0CjqewFAGR4U+Mfwi8d6rNoXgf4qeD/EWp2wJms9K1y1u54wOpaOJ2YY75FADrr4wfCWx8ar8Nr34o+EbfxcxULoEut2yakS0fmKBbF/N5j+cfLyvPTmgCfwl8Ufhn4/u72w8CfEXwx4kutNOL2HSNXt7yS2OcYkWJ2Kc8fNigDp6APjP9qbxd8ffBX7TPwb8BeBf2g9d0Lw/8W9U1GzurGLQdGuBpaWkFsR9nkntHkYu0rs3mM/XAwOKAPsPTLa6stNtLO91GXULiCCOKa7lREe4dVAaRlQKgLEEkKAoJ4AHFAHPeMviv8Lfhy8UfxC+JXhXww04zEus6zbWRkGcZXzXXP4UAX38ceCovCj+PJPF+iJ4Zit2u31ltQiFisA6ym43eWEGDlt2PegDG8I/Gv4NfEAagfAfxb8F+JBpMH2m/wD7I161vPskPP7yXypG8teD8zYHBoAn8DfF74T/ABPlvIPhr8T/AAl4sk09Ue7TQ9btr9rdXJCGQQu2wNtbGcZwcdKAIdN+NPwc1nxO3gnSPiz4MvvESuYm0i2161lvQ46qYFcvkemKAJvF3xd+E/w/1ay0Hx58T/CXhvU9TUNZWWr61bWc9ypbaDHHK6s4LfL8oPPHWgBIPi/8JrrxqPhta/FDwlN4uLSINAj1u2bUiyIzuPswfzcqisxG3gKSeAaAILn43fBey8THwXefF7wVB4hWTyTpMuv2i3ok/u+QZN+fbGaAO068igBaACgAoAKACgAoAKACgAoAKACgAoAKACgAoAKACgAoAKACgAoAKACgAoAKACgAoAKACgAoAKACgAoAKACgAoAKACgAoAKACgAoAKACgAoAKACgAoAKACgAoAKACgAoAKACgAoAKACgAoAKACgAoA+EP2kPDPiHxd/wUl+EOieF/HuqeDdQl8Bam6atpttbTzxBXuiyhLmOSMhgMHKk4PGDQBu/tYfBH4v6J+zR8TdX1j9rPx1r1jZ+GL+a40y70bRY4byNYWJidorNZFVhwSrA+hFAHqP7P1lZ3/7C3w9t760huYv+Fa6c2yWMOuRpykHB4yKAPkiz8deKPh5/wRU07XPCF5PZ39zYy6Y13AxV4ILnXZYZiCOQTG7ICOQXBHNAHu3xv/Z1+DPhn9gPxLovh/wdo1j/AMI38P7nUNP1K1tY4rs3MdizmXz1ActN8yyHP7xZXVshiKAPIv2ifEmuaV/wTL+AXhTStSuNPsvHcfg3wvrVzA5Rl06awMko3DoGMKKexVip4JBAPRf+CjPwM+Evhj9iLxXceFPA+i+H5vCVvp66VPp1olvJFG17bwvCXUBnR0chlYkM21jllBABlft9eJPFC/Bz4CfC7RLdbjTPiJ4r0HRtZtZL5rKHULbZGRZTXCq5iilZl3MEYgR52sAVIBY/aJ+C/wC0P8RvB3h9vCfwR+EPwu17wPqtpqugeJ7Pxs+dL8k4MIVdLhHkup2lN4U/LkHAFAD/ANtj4b+F/F/7T37L9hrGhWUMviPXtXh12S3jVJNQgjtLctbzSABpYmQNEQx5R2HANAF34q+AvBfwm/b+/Zq1T4a+FdJ8MN4tsfFWk6zFpFnHaRXtvb2KSQrIkQVWKvJkEjPyJ/dGAD7XoA+M/wBsj/k8b9j/AP7D/iL/ANEWVAH2JfX9jpdpJf6newWlrCN0k88ixxoM4yWYgDk96APkmfxx4f8AEH7VHxL0z4Ffs76d4/8AG2j2WmWHjLxF4g1yPTbCw/dv9ntLdjb3EjEqH3hIwC0fzE7RQBkfsLHW7L42ftNfC/X/AAlpHhvS9J13RdSj8M6Zem+03T57+0me4EDtDECknlRsVESAHIA4yQDA+DXi/wAK/sX/ABc/aF+DXi20gtvDNnYzfFPwoPLVWn0yZcXNjESMkJOEijTnJEhxyaAMv9pWy8b/ALN3/BOHWtSsIxpPjvxxdQ3fiy/so/KlgudUuvOu4gy8qqK/2VcdEAxg0AdF8Tv2f/i542/Z3PwX0D9mb4ReFLLT7CA6Hrtt49labSJ4Nrx3qOulI3mZTLN5ilwzbm+Y0AZf7fHhTWNQ/Yz+HF749l0m68fR6t4X06+8RaeElc3DYE0tvcFQ2x5MyDGAcg4oA+lbv9kz4K202g614K8H6f4U8R+FbPULbRdZ0u3SG6ie7s5bWSSZ1Ae4bEzPl2JMg3ZySSAfHkMN/wDs3fs/XH7PP7X37KEupfD2C3nsLv4ieC1g1GJlldtt/PEyie2mVnVvOf5twBC5wCAfoZ4FuvDl94I8PXvg/UFv9BuNKtJdLu1bcLi0aFTDIDgZ3IVPQdaANygAoAKACgAoAKACgAoAKACgAoAKACgAoAKACgAoAKACgAoAKACgAoAKACgAoAKACgAoAKACgAoAKACgAoAKACgAoAKACgAoAKACgAoAKACgAoAKACgAoAKACgAoAKACgAoAKACgAoAKACgAoAKAPl3xt+yl8Z/FX7R+l/tHad+0F4c07UvDtneaVounyeA3uI4NPneQ+XM/9ooZpFWUjzAEBIzsHSgD0/8AaQ+E3jP43/DLVfhj4V+IWneErPxDaXGnavcXegNqjy2ssZQrEBcweU4zncd/0oA5vwH8C/jH4D/Z/g+Cdn8bPDtzd6Xp9touk6y/gp1S306KFYTHLb/bz50rKD+8EiAE/cOKAMX4N/sfP4J/Zx1H9lv4qeO7Dx54KuLGTT7JbbQG0q5t45JpZpGdzcziSQSyI8bAJsMY4bPABgap+xl8WfEXwbv/ANn/AMTftWanf+CW0l9J0+NfC8EWoJEse21S6u1mzcxxMIyyqsLSiPaz7WbIB01h+yFF4h/ZfX9l740+N7bxZpNhZWmnaPqml6MdJubCG0ijS2kAaecNOjRli+QrBipTGcgHJfFP9i74x/G/4RXnwf8Aip+1jeatpvlwfYpoPCMNq7zRSKUlvitxuuyFU4VWhUuVdgxUCgD0bxZ+zLH8WfgVafB341+ME1rUNMmhutM8Q6Fpp0mfT7m34triCNpp9sqLlSxchgzcDNAGdqn7N3xL+I1tpPhr48fHiPxh4Q0u9tr+fR9P8LRaS2sy27rJCNQmE8oljEiI7RxJCrMoyMDFAFT46/szfFP4ufGHwT8VNA+N2h+HIvh3cz3mgadceDHvyk08CRTmeYX0XmqdmVARNucZbrQBF8Y/2Y/i38Tvjf4H+NGi/HXQNBl+HIvToGnz+CXvQr3lrHBdGeQX8fmhjGWQBU2bsEtjJAPpEZAG45Pc0AfM/wAdP2V/iv8AGH4z+Cvi3pvx20LQE+HF5c3vhrTZfBL3hia4ihSYXE32+PzwTCGXCR43Y5xmgCX4nfs9ftKfF3wJq/w48YftJ+Df7G1yJILz7H8NZYpiiyK/yOdVYKcqOcGgC1qH7K3i3w18bPFXxr+BXxmHgm68ex23/CT6RqHh5NXsb2eBSsdxGPOheGQBnz8zAl2OOcAAzfg5+zH4w/Z5+LHxC+NWp/H5fEWjeNzDqnii11Twyq3jva28wV4rqG4CRIrzO+xbc4RUjHTeQDjPjb4M+EX7V/7SPwBv/Cer2uurodpd+LtXurCYPC+hKYJLSG4HUia78rZG2DtW5yOKAPqX4pfDLwf8Zfh9rfwx8fab9u0LxBbG2u4g21xyGSRG/hdHVXVuzKDQB4s/7Lnxa1b4fx/BXxZ+0ze6n8Pfsi6VcwQ+GorbXL3TFAT7JNqImZCrRgRvItusjKTlskmgC5+0z+yz4k+O3grw58NPBvxK0jwL4V8Oz2N3FYnwu2ouZbNh9nCSC7hEcSqApTaxOPvCgD1a28G+Jdb+GV94F+Jni221rUtXsLzTtQ1XSNM/sxXjnDoDFA8s/lssbgZLsCy7sDO0AHil7+yr8ZdX+FA+AutftOfavAcmmrodxjwfCutzaYFEf2c3puDFkxDYZPsxYjnrzQB9C+D/AApongTwlovgjw1am20jw/p9vpdhCWLGO3gjWONSTySFUDJ5NAGvQAUAFABQAUAFABQAUAFABQAUAFABQAUAFABQAUAFABQAUAFABQAUAFABQAUAFABQAUAFABQAUAFABQAUAFABQAUAFABQAUAFABQAUAFABQAUAFABQAUAFABQAUAFABQAUAFABQAUAFABQAUAFABQAUAFABQAUAFABQAUAFABQAUAFABQAUAFAEc8EF1BJbXMKTQzIY5I5FDK6kYKkHggjjFAHP8Agz4afDn4cRXcHw88AeG/C8d+4luk0XSoLJZ3GcNIIVXcRk8nPU0AdJQAUAFABQAUAFABQAUAFABQAUAFABQAUAFABQAUAFABQAUAFABQAUAFABQAUAFABQAUAFABQAUAFABQAUAFABQAUAFABQAUAFABQAUAFABQAUAFABQAUAFABQAUAFABQAUAFABQAUAFABQAUAFABQAUAFABQAUAFABQAUAFABQAUAFABQAUAFABQAUAFABQAUAFABQAUAFABQAUAFABQAUAFABQAUAFABQAUAFABQAUAFABQAUAFABQAUAFABQAUAFABQAUAFABQAUAFABQAUAFABQAUAFABQAUAFABQAUAFABQAUAFABQAUAFABQAUAFABQAUAFABQAUAFABQAUAFABQAUAFABQAUAFABQAUAFABQAUAFABQAUAFABQAUAFABQAUAFABQAUAFABQAUAFABQAUAFABQAUAFABQAUAFABQAUAFABQAUAFABQAUAFABQAUAFABQAUAFABQAUAFABQAUAFABQAUAFABQAUAFAH/9k=;" parent="1" vertex="1">
          <mxGeometry x="102" y="512.62" width="105.52" height="80.76" as="geometry" />
        </mxCell>
        <mxCell id="qXU9WI0w4rbYGttdrwVk-383" value="Global Model" style="text;html=1;align=center;verticalAlign=middle;whiteSpace=wrap;rounded=0;" parent="1" vertex="1">
          <mxGeometry x="117.14" y="587" width="75.24" height="30" as="geometry" />
        </mxCell>
        <mxCell id="qXU9WI0w4rbYGttdrwVk-384" value="&lt;h1&gt;&lt;b&gt;&lt;font style=&quot;font-size: 14px;&quot;&gt;SERVER&lt;/font&gt;&lt;/b&gt;&lt;/h1&gt;" style="text;html=1;align=center;verticalAlign=middle;whiteSpace=wrap;rounded=0;" parent="1" vertex="1">
          <mxGeometry x="323.78" y="491" width="47.25" height="20" as="geometry" />
        </mxCell>
        <mxCell id="qXU9WI0w4rbYGttdrwVk-285" value="&lt;font style=&quot;font-size: 10px;&quot;&gt;(4) Client&#39;s Locally Trained Parameters&lt;/font&gt;" style="text;html=1;align=center;verticalAlign=middle;whiteSpace=wrap;rounded=0;rotation=270;container=0;" parent="1" vertex="1">
          <mxGeometry x="45.99769230769229" y="723" width="176.92307692307693" height="30" as="geometry" />
        </mxCell>
        <mxCell id="qXU9WI0w4rbYGttdrwVk-241" value="" style="endArrow=classic;html=1;rounded=0;entryX=0;entryY=0.5;entryDx=0;entryDy=0;exitX=0.095;exitY=1.041;exitDx=0;exitDy=0;exitPerimeter=0;" parent="1" edge="1">
          <mxGeometry width="50" height="50" relative="1" as="geometry">
            <mxPoint x="143.70000000000005" y="620.74" as="sourcePoint" />
            <mxPoint x="159.82591093117378" y="854.9500534188035" as="targetPoint" />
            <Array as="points">
              <mxPoint x="146" y="855" />
            </Array>
          </mxGeometry>
        </mxCell>
        <mxCell id="EYsG2K-YTQwW0VOzBM05-10" value="" style="group" vertex="1" connectable="0" parent="1">
          <mxGeometry x="160" y="750" width="125" height="218" as="geometry" />
        </mxCell>
        <mxCell id="EYsG2K-YTQwW0VOzBM05-9" value="" style="rounded=0;whiteSpace=wrap;html=1;dashed=1;dashPattern=1 1;fillColor=#33001A;opacity=30;" vertex="1" parent="EYsG2K-YTQwW0VOzBM05-10">
          <mxGeometry width="125" height="218" as="geometry" />
        </mxCell>
        <mxCell id="qXU9WI0w4rbYGttdrwVk-287" value="" style="endArrow=none;dashed=1;html=1;dashPattern=1 3;strokeWidth=2;rounded=0;" parent="EYsG2K-YTQwW0VOzBM05-10" edge="1">
          <mxGeometry width="50" height="50" relative="1" as="geometry">
            <mxPoint x="60.11538461538461" y="154" as="sourcePoint" />
            <mxPoint x="60" y="128" as="targetPoint" />
          </mxGeometry>
        </mxCell>
        <mxCell id="qXU9WI0w4rbYGttdrwVk-271" value="&lt;p style=&quot;line-height: 50%;&quot;&gt;&lt;font style=&quot;font-size: 8px;&quot;&gt;(4) Compute Statistical&lt;br&gt;Metrics &amp;amp; (5)&amp;nbsp;&lt;/font&gt;&lt;span style=&quot;background-color: initial;&quot;&gt;&lt;span style=&quot;font-size: 8px;&quot;&gt;Layer-wise coefficient&lt;/span&gt;&lt;/span&gt;&lt;/p&gt;&lt;p style=&quot;line-height: 0%;&quot;&gt;&lt;span style=&quot;background-color: initial;&quot;&gt;&lt;b style=&quot;&quot;&gt;&lt;font style=&quot;font-size: 9px;&quot;&gt;Worker 1.n&lt;/font&gt;&lt;/b&gt;&lt;/span&gt;&lt;/p&gt;" style="rounded=1;whiteSpace=wrap;html=1;container=0;fillColor=#dae8fc;strokeColor=#6c8ebf;" parent="EYsG2K-YTQwW0VOzBM05-10" vertex="1">
          <mxGeometry x="12.379999999999995" y="159" width="100" height="50" as="geometry" />
        </mxCell>
        <mxCell id="EYsG2K-YTQwW0VOzBM05-7" value="&lt;p style=&quot;line-height: 50%;&quot;&gt;&lt;font style=&quot;font-size: 8px;&quot;&gt;(4) Compute Statistical&lt;br&gt;Metrics &amp;amp; (5)&amp;nbsp;&lt;/font&gt;&lt;span style=&quot;background-color: initial;&quot;&gt;&lt;span style=&quot;font-size: 8px;&quot;&gt;Layer-wise coefficient&lt;/span&gt;&lt;/span&gt;&lt;/p&gt;&lt;p style=&quot;line-height: 0%;&quot;&gt;&lt;span style=&quot;background-color: initial;&quot;&gt;&lt;b style=&quot;&quot;&gt;&lt;font style=&quot;font-size: 9px;&quot;&gt;Worker 1.1&lt;/font&gt;&lt;/b&gt;&lt;/span&gt;&lt;/p&gt;" style="rounded=1;whiteSpace=wrap;html=1;container=0;fillColor=#dae8fc;strokeColor=#6c8ebf;" vertex="1" parent="EYsG2K-YTQwW0VOzBM05-10">
          <mxGeometry x="12.379999999999995" y="9" width="100" height="50" as="geometry" />
        </mxCell>
        <mxCell id="EYsG2K-YTQwW0VOzBM05-8" value="&lt;p style=&quot;line-height: 50%;&quot;&gt;&lt;font style=&quot;font-size: 8px;&quot;&gt;(4) Compute Statistical&lt;br&gt;Metrics &amp;amp; (5)&amp;nbsp;&lt;/font&gt;&lt;span style=&quot;background-color: initial;&quot;&gt;&lt;span style=&quot;font-size: 8px;&quot;&gt;Layer-wise coefficient&lt;/span&gt;&lt;/span&gt;&lt;/p&gt;&lt;p style=&quot;line-height: 0%;&quot;&gt;&lt;span style=&quot;background-color: initial;&quot;&gt;&lt;b style=&quot;&quot;&gt;&lt;font style=&quot;font-size: 9px;&quot;&gt;Worker 1.2&lt;/font&gt;&lt;/b&gt;&lt;/span&gt;&lt;/p&gt;" style="rounded=1;whiteSpace=wrap;html=1;container=0;fillColor=#dae8fc;strokeColor=#6c8ebf;" vertex="1" parent="EYsG2K-YTQwW0VOzBM05-10">
          <mxGeometry x="12.379999999999995" y="73" width="100" height="50" as="geometry" />
        </mxCell>
        <mxCell id="EYsG2K-YTQwW0VOzBM05-14" value="" style="group" vertex="1" connectable="0" parent="1">
          <mxGeometry x="400" y="750" width="125" height="218" as="geometry" />
        </mxCell>
        <mxCell id="EYsG2K-YTQwW0VOzBM05-15" value="" style="rounded=0;whiteSpace=wrap;html=1;dashed=1;dashPattern=1 1;fillColor=#33001A;opacity=30;" vertex="1" parent="EYsG2K-YTQwW0VOzBM05-14">
          <mxGeometry width="125" height="218" as="geometry" />
        </mxCell>
        <mxCell id="EYsG2K-YTQwW0VOzBM05-16" value="" style="endArrow=none;dashed=1;html=1;dashPattern=1 3;strokeWidth=2;rounded=0;" edge="1" parent="EYsG2K-YTQwW0VOzBM05-14">
          <mxGeometry width="50" height="50" relative="1" as="geometry">
            <mxPoint x="60.11538461538461" y="154" as="sourcePoint" />
            <mxPoint x="60" y="128" as="targetPoint" />
          </mxGeometry>
        </mxCell>
        <mxCell id="EYsG2K-YTQwW0VOzBM05-17" value="&lt;p style=&quot;line-height: 50%;&quot;&gt;&lt;font style=&quot;font-size: 8px;&quot;&gt;(4) Compute Statistical&lt;br&gt;Metrics &amp;amp; (5)&amp;nbsp;&lt;/font&gt;&lt;span style=&quot;background-color: initial;&quot;&gt;&lt;span style=&quot;font-size: 8px;&quot;&gt;Layer-wise coefficient&lt;/span&gt;&lt;/span&gt;&lt;/p&gt;&lt;p style=&quot;line-height: 0%;&quot;&gt;&lt;span style=&quot;background-color: initial;&quot;&gt;&lt;b style=&quot;&quot;&gt;&lt;font style=&quot;font-size: 9px;&quot;&gt;Worker n.n&lt;/font&gt;&lt;/b&gt;&lt;/span&gt;&lt;/p&gt;" style="rounded=1;whiteSpace=wrap;html=1;container=0;fillColor=#dae8fc;strokeColor=#6c8ebf;" vertex="1" parent="EYsG2K-YTQwW0VOzBM05-14">
          <mxGeometry x="12.379999999999995" y="159" width="100" height="50" as="geometry" />
        </mxCell>
        <mxCell id="EYsG2K-YTQwW0VOzBM05-18" value="&lt;p style=&quot;line-height: 50%;&quot;&gt;&lt;font style=&quot;font-size: 8px;&quot;&gt;(4) Compute Statistical&lt;br&gt;Metrics &amp;amp; (5)&amp;nbsp;&lt;/font&gt;&lt;span style=&quot;background-color: initial;&quot;&gt;&lt;span style=&quot;font-size: 8px;&quot;&gt;Layer-wise coefficient&lt;/span&gt;&lt;/span&gt;&lt;/p&gt;&lt;p style=&quot;line-height: 0%;&quot;&gt;&lt;span style=&quot;background-color: initial;&quot;&gt;&lt;b style=&quot;&quot;&gt;&lt;font style=&quot;font-size: 9px;&quot;&gt;Worker n.1&lt;/font&gt;&lt;/b&gt;&lt;/span&gt;&lt;/p&gt;" style="rounded=1;whiteSpace=wrap;html=1;container=0;fillColor=#dae8fc;strokeColor=#6c8ebf;" vertex="1" parent="EYsG2K-YTQwW0VOzBM05-14">
          <mxGeometry x="12.379999999999995" y="9" width="100" height="50" as="geometry" />
        </mxCell>
        <mxCell id="EYsG2K-YTQwW0VOzBM05-19" value="&lt;p style=&quot;line-height: 50%;&quot;&gt;&lt;font style=&quot;font-size: 8px;&quot;&gt;(4) Compute Statistical&lt;br&gt;Metrics &amp;amp; (5)&amp;nbsp;&lt;/font&gt;&lt;span style=&quot;background-color: initial;&quot;&gt;&lt;span style=&quot;font-size: 8px;&quot;&gt;Layer-wise coefficient&lt;/span&gt;&lt;/span&gt;&lt;/p&gt;&lt;p style=&quot;line-height: 0%;&quot;&gt;&lt;span style=&quot;background-color: initial;&quot;&gt;&lt;b style=&quot;&quot;&gt;&lt;font style=&quot;font-size: 9px;&quot;&gt;Worker n.2&lt;/font&gt;&lt;/b&gt;&lt;/span&gt;&lt;/p&gt;" style="rounded=1;whiteSpace=wrap;html=1;container=0;fillColor=#dae8fc;strokeColor=#6c8ebf;" vertex="1" parent="EYsG2K-YTQwW0VOzBM05-14">
          <mxGeometry x="12.379999999999995" y="73" width="100" height="50" as="geometry" />
        </mxCell>
        <mxCell id="EYsG2K-YTQwW0VOzBM05-23" value="" style="group" vertex="1" connectable="0" parent="1">
          <mxGeometry x="172" y="617" width="100" height="90" as="geometry" />
        </mxCell>
        <mxCell id="EYsG2K-YTQwW0VOzBM05-21" style="edgeStyle=orthogonalEdgeStyle;rounded=0;orthogonalLoop=1;jettySize=auto;html=1;exitX=0.25;exitY=0;exitDx=0;exitDy=0;" edge="1" parent="EYsG2K-YTQwW0VOzBM05-23">
          <mxGeometry relative="1" as="geometry">
            <mxPoint x="37" as="targetPoint" />
            <mxPoint x="37" y="40" as="sourcePoint" />
          </mxGeometry>
        </mxCell>
        <mxCell id="EYsG2K-YTQwW0VOzBM05-22" style="edgeStyle=orthogonalEdgeStyle;rounded=0;orthogonalLoop=1;jettySize=auto;html=1;entryX=0.75;entryY=0;entryDx=0;entryDy=0;" edge="1" parent="EYsG2K-YTQwW0VOzBM05-23">
          <mxGeometry relative="1" as="geometry">
            <mxPoint x="61" y="40" as="targetPoint" />
            <mxPoint x="61" as="sourcePoint" />
          </mxGeometry>
        </mxCell>
        <mxCell id="qXU9WI0w4rbYGttdrwVk-280" value="&lt;div&gt;(2)&lt;/div&gt;Local Training&lt;div&gt;&lt;b style=&quot;&quot;&gt;&lt;font style=&quot;font-size: 12px;&quot;&gt;Client 1&lt;/font&gt;&lt;/b&gt;&lt;br&gt;&lt;/div&gt;" style="rounded=1;whiteSpace=wrap;html=1;container=0;fillColor=#003366;opacity=30;" parent="EYsG2K-YTQwW0VOzBM05-23" vertex="1">
          <mxGeometry y="40" width="100" height="50" as="geometry" />
        </mxCell>
        <mxCell id="EYsG2K-YTQwW0VOzBM05-24" value="" style="group" vertex="1" connectable="0" parent="1">
          <mxGeometry x="412" y="617" width="100" height="90" as="geometry" />
        </mxCell>
        <mxCell id="EYsG2K-YTQwW0VOzBM05-25" style="edgeStyle=orthogonalEdgeStyle;rounded=0;orthogonalLoop=1;jettySize=auto;html=1;exitX=0.25;exitY=0;exitDx=0;exitDy=0;" edge="1" parent="EYsG2K-YTQwW0VOzBM05-24">
          <mxGeometry relative="1" as="geometry">
            <mxPoint x="39" as="targetPoint" />
            <mxPoint x="39" y="40" as="sourcePoint" />
          </mxGeometry>
        </mxCell>
        <mxCell id="EYsG2K-YTQwW0VOzBM05-26" style="edgeStyle=orthogonalEdgeStyle;rounded=0;orthogonalLoop=1;jettySize=auto;html=1;entryX=0.75;entryY=0;entryDx=0;entryDy=0;" edge="1" parent="EYsG2K-YTQwW0VOzBM05-24">
          <mxGeometry relative="1" as="geometry">
            <mxPoint x="61" as="sourcePoint" />
            <mxPoint x="61" y="40" as="targetPoint" />
          </mxGeometry>
        </mxCell>
        <mxCell id="EYsG2K-YTQwW0VOzBM05-27" value="&lt;div&gt;(2)&lt;/div&gt;Local Training&lt;div&gt;&lt;b style=&quot;&quot;&gt;&lt;font style=&quot;font-size: 12px;&quot;&gt;Client n&lt;/font&gt;&lt;/b&gt;&lt;br&gt;&lt;/div&gt;" style="rounded=1;whiteSpace=wrap;html=1;container=0;fillColor=#003366;opacity=30;" vertex="1" parent="EYsG2K-YTQwW0VOzBM05-24">
          <mxGeometry y="40" width="100" height="50" as="geometry" />
        </mxCell>
        <mxCell id="EYsG2K-YTQwW0VOzBM05-28" value="" style="endArrow=none;dashed=1;html=1;dashPattern=1 3;strokeWidth=2;rounded=0;" edge="1" parent="1">
          <mxGeometry width="50" height="50" relative="1" as="geometry">
            <mxPoint x="332" y="686" as="sourcePoint" />
            <mxPoint x="359" y="686" as="targetPoint" />
          </mxGeometry>
        </mxCell>
        <mxCell id="EYsG2K-YTQwW0VOzBM05-30" value="" style="endArrow=classic;html=1;rounded=0;entryX=0;entryY=0.5;entryDx=0;entryDy=0;exitX=0.095;exitY=1.041;exitDx=0;exitDy=0;exitPerimeter=0;" edge="1" parent="1">
          <mxGeometry width="50" height="50" relative="1" as="geometry">
            <mxPoint x="383.70000000000005" y="620.74" as="sourcePoint" />
            <mxPoint x="399.8259109311738" y="854.9500534188035" as="targetPoint" />
            <Array as="points">
              <mxPoint x="386" y="855" />
            </Array>
          </mxGeometry>
        </mxCell>
        <mxCell id="EYsG2K-YTQwW0VOzBM05-31" value="&lt;font style=&quot;font-size: 10px;&quot;&gt;(4) Client&#39;s Locally Trained Parameters&lt;/font&gt;" style="text;html=1;align=center;verticalAlign=middle;whiteSpace=wrap;rounded=0;rotation=270;container=0;" vertex="1" parent="1">
          <mxGeometry x="285.9976923076923" y="724" width="176.92307692307693" height="30" as="geometry" />
        </mxCell>
        <mxCell id="EYsG2K-YTQwW0VOzBM05-32" value="" style="endArrow=none;dashed=1;html=1;dashPattern=1 3;strokeWidth=3;rounded=0;" edge="1" parent="1">
          <mxGeometry width="50" height="50" relative="1" as="geometry">
            <mxPoint x="320" y="879" as="sourcePoint" />
            <mxPoint x="367.5" y="879" as="targetPoint" />
          </mxGeometry>
        </mxCell>
        <mxCell id="EYsG2K-YTQwW0VOzBM05-33" value="" style="endArrow=classic;html=1;rounded=0;entryX=0;entryY=0.5;entryDx=0;entryDy=0;exitX=0.095;exitY=1.041;exitDx=0;exitDy=0;exitPerimeter=0;" edge="1" parent="1">
          <mxGeometry width="50" height="50" relative="1" as="geometry">
            <mxPoint x="302.82591093117367" y="618.74" as="sourcePoint" />
            <mxPoint x="286.69999999999993" y="852.9500534188035" as="targetPoint" />
            <Array as="points">
              <mxPoint x="300.5259109311737" y="853" />
            </Array>
          </mxGeometry>
        </mxCell>
        <mxCell id="EYsG2K-YTQwW0VOzBM05-34" value="" style="endArrow=classic;html=1;rounded=0;entryX=0;entryY=0.5;entryDx=0;entryDy=0;exitX=0.095;exitY=1.041;exitDx=0;exitDy=0;exitPerimeter=0;" edge="1" parent="1">
          <mxGeometry width="50" height="50" relative="1" as="geometry">
            <mxPoint x="542.8259109311737" y="617.74" as="sourcePoint" />
            <mxPoint x="526.6999999999999" y="851.9500534188035" as="targetPoint" />
            <Array as="points">
              <mxPoint x="540.5259109311737" y="852" />
            </Array>
          </mxGeometry>
        </mxCell>
        <mxCell id="EYsG2K-YTQwW0VOzBM05-37" value="&lt;p style=&quot;line-height: 90%;&quot;&gt;&lt;font style=&quot;font-size: 10px;&quot;&gt;(1) Global Parameters&lt;/font&gt;&lt;/p&gt;" style="text;html=1;align=center;verticalAlign=middle;whiteSpace=wrap;rounded=0;" vertex="1" parent="1">
          <mxGeometry x="150.51999999999998" y="628" width="60" height="30" as="geometry" />
        </mxCell>
        <mxCell id="EYsG2K-YTQwW0VOzBM05-38" value="&lt;p style=&quot;line-height: 90%;&quot;&gt;&lt;font style=&quot;font-size: 10px;&quot;&gt;(1) Global Parameters&lt;/font&gt;&lt;/p&gt;" style="text;html=1;align=center;verticalAlign=middle;whiteSpace=wrap;rounded=0;" vertex="1" parent="1">
          <mxGeometry x="390.52" y="628" width="60" height="30" as="geometry" />
        </mxCell>
        <mxCell id="EYsG2K-YTQwW0VOzBM05-39" value="&lt;p style=&quot;line-height: 90%;&quot;&gt;&lt;font style=&quot;font-size: 10px;&quot;&gt;(3) Trained Parameters&lt;/font&gt;&lt;/p&gt;" style="text;html=1;align=center;verticalAlign=middle;whiteSpace=wrap;rounded=0;" vertex="1" parent="1">
          <mxGeometry x="477.52" y="627" width="60" height="30" as="geometry" />
        </mxCell>
        <mxCell id="EYsG2K-YTQwW0VOzBM05-40" value="&lt;p style=&quot;line-height: 90%;&quot;&gt;&lt;font style=&quot;font-size: 10px;&quot;&gt;(3) Trained Parameters&lt;/font&gt;&lt;/p&gt;" style="text;html=1;align=center;verticalAlign=middle;whiteSpace=wrap;rounded=0;" vertex="1" parent="1">
          <mxGeometry x="237.51999999999998" y="627" width="60" height="30" as="geometry" />
        </mxCell>
        <mxCell id="EYsG2K-YTQwW0VOzBM05-41" value="&lt;b&gt;Stage 1&lt;/b&gt;" style="text;html=1;align=center;verticalAlign=middle;whiteSpace=wrap;rounded=0;" vertex="1" parent="1">
          <mxGeometry x="308.5" y="700" width="60" height="30" as="geometry" />
        </mxCell>
        <mxCell id="EYsG2K-YTQwW0VOzBM05-42" value="&lt;font style=&quot;font-size: 10px;&quot;&gt;&lt;font style=&quot;forced-color-adjust: none; color: rgb(0, 0, 0); font-family: Helvetica; font-style: normal; font-variant-ligatures: normal; font-variant-caps: normal; font-weight: 400; letter-spacing: normal; orphans: 2; text-align: center; text-indent: 0px; text-transform: none; widows: 2; word-spacing: 0px; -webkit-text-stroke-width: 0px; white-space: normal; background-color: rgb(251, 251, 251); text-decoration-thickness: initial; text-decoration-style: initial; text-decoration-color: initial; font-size: 10px;&quot;&gt;(5) Statistical Matrix &amp;amp;&amp;nbsp;&lt;/font&gt;&lt;span style=&quot;forced-color-adjust: none; color: rgb(0, 0, 0); font-family: Helvetica; font-style: normal; font-variant-ligatures: normal; font-variant-caps: normal; font-weight: 400; letter-spacing: normal; orphans: 2; text-align: center; text-indent: 0px; text-transform: none; widows: 2; word-spacing: 0px; -webkit-text-stroke-width: 0px; white-space: normal; background-color: initial; text-decoration-thickness: initial; text-decoration-style: initial; text-decoration-color: initial;&quot;&gt;Layer-wise coefficient&lt;/span&gt;&lt;/font&gt;" style="text;whiteSpace=wrap;html=1;flipH=1;flipV=1;direction=west;rotation=90;" vertex="1" parent="1">
          <mxGeometry x="195" y="736" width="230" height="30" as="geometry" />
        </mxCell>
        <mxCell id="EYsG2K-YTQwW0VOzBM05-43" value="&lt;font style=&quot;font-size: 10px;&quot;&gt;&lt;font style=&quot;forced-color-adjust: none; color: rgb(0, 0, 0); font-family: Helvetica; font-style: normal; font-variant-ligatures: normal; font-variant-caps: normal; font-weight: 400; letter-spacing: normal; orphans: 2; text-align: center; text-indent: 0px; text-transform: none; widows: 2; word-spacing: 0px; -webkit-text-stroke-width: 0px; white-space: normal; background-color: rgb(251, 251, 251); text-decoration-thickness: initial; text-decoration-style: initial; text-decoration-color: initial; font-size: 10px;&quot;&gt;(5) Statistical Matrix &amp;amp;&amp;nbsp;&lt;/font&gt;&lt;span style=&quot;forced-color-adjust: none; color: rgb(0, 0, 0); font-family: Helvetica; font-style: normal; font-variant-ligatures: normal; font-variant-caps: normal; font-weight: 400; letter-spacing: normal; orphans: 2; text-align: center; text-indent: 0px; text-transform: none; widows: 2; word-spacing: 0px; -webkit-text-stroke-width: 0px; white-space: normal; background-color: initial; text-decoration-thickness: initial; text-decoration-style: initial; text-decoration-color: initial;&quot;&gt;Layer-wise coefficient&lt;/span&gt;&lt;/font&gt;" style="text;whiteSpace=wrap;html=1;flipH=1;flipV=1;direction=west;rotation=90;" vertex="1" parent="1">
          <mxGeometry x="438" y="738" width="230" height="30" as="geometry" />
        </mxCell>
      </root>
    </mxGraphModel>
  </diagram>
</mxfile>
